<svg id="SvgjsSvg1036" width="288" height="288" xmlns="http://www.w3.org/2000/svg" version="1.1" xmlns:xlink="http://www.w3.org/1999/xlink" xmlns:svgjs="http://svgjs.com/svgjs"><defs id="SvgjsDefs1037"></defs><g id="SvgjsG1038"><svg xmlns="http://www.w3.org/2000/svg" viewBox="0 0 24 24" width="288" height="288"><path d="M13,17a1,1,0,0,1-.71-1.71L15.59,12,12.29,8.71a1,1,0,0,1,1.41-1.41l4,4a1,1,0,0,1,0,1.41l-4,4A1,1,0,0,1,13,17Z" fill="#ffffff" class="color000 svgShape"></path><path d="M17,13H7a1,1,0,0,1,0-2H17a1,1,0,0,1,0,2Z" fill="#ffffff" class="color000 svgShape"></path></svg></g></svg>