<svg width="201" height="56" viewBox="0 0 201 56" fill="none" xmlns="http://www.w3.org/2000/svg">
<path d="M26.6705 28.3807V23.2727H28.375V32H26.7045V30.4886H26.6136C26.4129 30.9545 26.0909 31.3428 25.6477 31.6534C25.2083 31.9602 24.661 32.1136 24.0057 32.1136C23.4451 32.1136 22.9489 31.9905 22.517 31.7443C22.089 31.4943 21.7519 31.125 21.5057 30.6364C21.2633 30.1477 21.142 29.5436 21.142 28.8239V23.2727H22.8409V28.6193C22.8409 29.214 23.0057 29.6875 23.3352 30.0398C23.6648 30.392 24.0928 30.5682 24.6193 30.5682C24.9375 30.5682 25.2538 30.4886 25.5682 30.3295C25.8864 30.1705 26.1496 29.9299 26.358 29.608C26.5701 29.286 26.6742 28.8769 26.6705 28.3807ZM37.1974 25.4034L35.6577 25.6761C35.5933 25.4792 35.491 25.2917 35.3509 25.1136C35.2145 24.9356 35.0289 24.7898 34.794 24.6761C34.5592 24.5625 34.2656 24.5057 33.9134 24.5057C33.4323 24.5057 33.0308 24.6136 32.7088 24.8295C32.3868 25.0417 32.2259 25.3163 32.2259 25.6534C32.2259 25.9451 32.3338 26.1799 32.5497 26.358C32.7656 26.536 33.1141 26.6818 33.5952 26.7955L34.9815 27.1136C35.7846 27.2992 36.383 27.5852 36.777 27.9716C37.1709 28.358 37.3679 28.8598 37.3679 29.4773C37.3679 30 37.2164 30.4659 36.9134 30.875C36.6141 31.2803 36.1955 31.5985 35.6577 31.8295C35.1236 32.0606 34.5043 32.1761 33.7997 32.1761C32.8224 32.1761 32.0251 31.9678 31.4077 31.5511C30.7902 31.1307 30.4115 30.5341 30.2713 29.7614L31.9134 29.5114C32.0156 29.9394 32.2259 30.2633 32.544 30.483C32.8622 30.6989 33.277 30.8068 33.7884 30.8068C34.3452 30.8068 34.7902 30.6913 35.1236 30.4602C35.4569 30.2254 35.6236 29.9394 35.6236 29.6023C35.6236 29.3295 35.5213 29.1004 35.3168 28.9148C35.116 28.7292 34.8073 28.589 34.3906 28.4943L32.9134 28.1705C32.099 27.9848 31.4967 27.6894 31.1065 27.2841C30.7202 26.8788 30.527 26.3655 30.527 25.7443C30.527 25.2292 30.6709 24.7784 30.9588 24.392C31.2467 24.0057 31.6444 23.7045 32.152 23.4886C32.6596 23.2689 33.241 23.1591 33.8963 23.1591C34.8395 23.1591 35.5819 23.3636 36.1236 23.7727C36.6652 24.178 37.0232 24.7216 37.1974 25.4034ZM42.9972 32.1761C42.1373 32.1761 41.3968 31.9924 40.7756 31.625C40.1581 31.2538 39.6809 30.733 39.3438 30.0625C39.0104 29.3883 38.8438 28.5985 38.8438 27.6932C38.8438 26.7992 39.0104 26.0114 39.3438 25.3295C39.6809 24.6477 40.1506 24.1155 40.7528 23.733C41.3589 23.3504 42.0672 23.1591 42.8778 23.1591C43.3703 23.1591 43.8475 23.2405 44.3097 23.4034C44.7718 23.5663 45.1866 23.822 45.554 24.1705C45.9214 24.5189 46.2112 24.9716 46.4233 25.5284C46.6354 26.0814 46.7415 26.7538 46.7415 27.5455V28.1477H39.804V26.875H45.0767C45.0767 26.428 44.9858 26.0322 44.804 25.6875C44.6222 25.339 44.3665 25.0644 44.0369 24.8636C43.7112 24.6629 43.3286 24.5625 42.8892 24.5625C42.4119 24.5625 41.9953 24.6799 41.6392 24.9148C41.2869 25.1458 41.0142 25.4489 40.821 25.8239C40.6316 26.1951 40.5369 26.5985 40.5369 27.0341V28.0284C40.5369 28.6117 40.6392 29.108 40.8438 29.517C41.0521 29.9261 41.3419 30.2386 41.7131 30.4545C42.0843 30.6667 42.518 30.7727 43.0142 30.7727C43.3362 30.7727 43.6297 30.7273 43.8949 30.6364C44.16 30.5417 44.3892 30.4015 44.5824 30.2159C44.7756 30.0303 44.9233 29.8011 45.0256 29.5284L46.6335 29.8182C46.5047 30.2917 46.2737 30.7064 45.9403 31.0625C45.6108 31.4148 45.196 31.6894 44.696 31.8864C44.1998 32.0795 43.6335 32.1761 42.9972 32.1761ZM48.6264 32V23.2727H50.2685V24.6591H50.3594C50.5185 24.1894 50.7988 23.8201 51.2003 23.5511C51.6056 23.2784 52.0639 23.142 52.5753 23.142C52.6813 23.142 52.8063 23.1458 52.9503 23.1534C53.098 23.161 53.2135 23.1705 53.2969 23.1818V24.8068C53.2287 24.7879 53.1075 24.767 52.9332 24.7443C52.759 24.7178 52.5848 24.7045 52.4105 24.7045C52.009 24.7045 51.651 24.7898 51.3366 24.9602C51.026 25.1269 50.7798 25.3598 50.598 25.6591C50.4162 25.9545 50.3253 26.2917 50.3253 26.6705V32H48.6264ZM61.7727 35.1648C60.5985 35.1648 59.5568 35.0038 58.6477 34.6818C57.7424 34.3636 56.9792 33.8939 56.358 33.2727C55.7367 32.6553 55.2652 31.8977 54.9432 31C54.6212 30.1023 54.4602 29.0777 54.4602 27.9261C54.4602 26.8049 54.6231 25.7973 54.9489 24.9034C55.2746 24.0095 55.7481 23.2481 56.3693 22.6193C56.9943 21.9867 57.7538 21.5038 58.6477 21.1705C59.5417 20.8371 60.5568 20.6705 61.6932 20.6705C62.7803 20.6705 63.7386 20.8409 64.5682 21.1818C65.3977 21.5227 66.0947 21.9905 66.6591 22.5852C67.2273 23.1799 67.6553 23.8617 67.9432 24.6307C68.2311 25.3996 68.375 26.2121 68.375 27.0682C68.375 27.6667 68.3371 28.2519 68.2614 28.8239C68.1856 29.392 68.0455 29.9072 67.8409 30.3693C67.6402 30.8277 67.3485 31.1951 66.9659 31.4716C66.5871 31.7443 66.0947 31.8864 65.4886 31.8977C65.1667 31.9091 64.8542 31.8712 64.5511 31.7841C64.2481 31.697 63.9905 31.5568 63.7784 31.3636C63.5663 31.1667 63.4375 30.9167 63.392 30.6136H63.3239C63.233 30.8371 63.0814 31.0455 62.8693 31.2386C62.6572 31.428 62.3864 31.5795 62.0568 31.6932C61.7311 31.803 61.3523 31.8485 60.9205 31.8295C60.4432 31.8106 60.0133 31.7027 59.6307 31.5057C59.2481 31.3087 58.9205 31.036 58.6477 30.6875C58.3788 30.339 58.1723 29.9261 58.0284 29.4489C57.8845 28.9716 57.8125 28.4413 57.8125 27.858C57.8125 27.2973 57.8939 26.7955 58.0568 26.3523C58.2197 25.9053 58.4413 25.5208 58.7216 25.1989C59.0057 24.8731 59.3314 24.6155 59.6989 24.4261C60.0663 24.2367 60.4545 24.1174 60.8636 24.0682C61.2614 24.0227 61.6269 24.0341 61.9602 24.1023C62.2936 24.1705 62.5701 24.2746 62.7898 24.4148C63.0133 24.5549 63.1534 24.7083 63.2102 24.875H63.2841V24.2386H64.6818V29.5114C64.6818 29.8106 64.7595 30.0644 64.9148 30.2727C65.0739 30.4811 65.2992 30.5852 65.5909 30.5852C65.9356 30.5852 66.2045 30.4583 66.3977 30.2045C66.5947 29.9508 66.733 29.5606 66.8125 29.0341C66.8958 28.5076 66.9375 27.8333 66.9375 27.0114C66.9375 26.4356 66.8598 25.8939 66.7045 25.3864C66.553 24.875 66.3277 24.4129 66.0284 24C65.733 23.5833 65.3693 23.2254 64.9375 22.9261C64.5057 22.6269 64.0133 22.3958 63.4602 22.233C62.911 22.0701 62.303 21.9886 61.6364 21.9886C60.7311 21.9886 59.9261 22.1288 59.2216 22.4091C58.517 22.6856 57.9223 23.0852 57.4375 23.608C56.9564 24.1307 56.5909 24.7576 56.3409 25.4886C56.0947 26.2159 55.9716 27.0322 55.9716 27.9375C55.9716 28.8807 56.0985 29.7178 56.3523 30.4489C56.6061 31.1761 56.9811 31.7898 57.4773 32.2898C57.9735 32.7898 58.5871 33.1686 59.3182 33.4261C60.0492 33.6875 60.892 33.8182 61.8466 33.8182C62.2708 33.8182 62.6875 33.7803 63.0966 33.7045C63.5057 33.6326 63.8693 33.5492 64.1875 33.4545C64.5095 33.3636 64.75 33.2898 64.9091 33.233L65.3068 34.4773C65.072 34.5871 64.7595 34.6951 64.3693 34.8011C63.983 34.9072 63.5625 34.9943 63.108 35.0625C62.6572 35.1307 62.2121 35.1648 61.7727 35.1648ZM61.25 30.4375C61.7424 30.4375 62.1383 30.339 62.4375 30.142C62.7405 29.9451 62.9583 29.6515 63.0909 29.2614C63.2273 28.8674 63.2955 28.375 63.2955 27.7841C63.2917 27.2083 63.2178 26.75 63.0739 26.4091C62.9337 26.0644 62.714 25.8182 62.4148 25.6705C62.1193 25.5189 61.7386 25.4432 61.2727 25.4432C60.8447 25.4432 60.4792 25.5473 60.1761 25.7557C59.8769 25.964 59.6477 26.2462 59.4886 26.6023C59.3333 26.9583 59.2538 27.3542 59.25 27.7898C59.2538 28.2481 59.3182 28.6799 59.4432 29.0852C59.572 29.4867 59.7803 29.8125 60.0682 30.0625C60.3598 30.3125 60.7538 30.4375 61.25 30.4375ZM74.3253 23.2727V24.6364H69.5582V23.2727H74.3253ZM70.8366 21.1818H72.5355V29.4375C72.5355 29.767 72.5848 30.0152 72.6832 30.1818C72.7817 30.3447 72.9086 30.4564 73.0639 30.517C73.223 30.5739 73.3954 30.6023 73.581 30.6023C73.7173 30.6023 73.8366 30.5928 73.9389 30.5739C74.0412 30.5549 74.1207 30.5398 74.1776 30.5284L74.4844 31.9318C74.3859 31.9697 74.2457 32.0076 74.0639 32.0455C73.8821 32.0871 73.6548 32.1098 73.3821 32.1136C72.9351 32.1212 72.5185 32.0417 72.1321 31.875C71.7457 31.7083 71.4332 31.4508 71.1946 31.1023C70.956 30.7538 70.8366 30.3163 70.8366 29.7898V21.1818ZM79.8722 32.1761C79.0123 32.1761 78.2718 31.9924 77.6506 31.625C77.0331 31.2538 76.5559 30.733 76.2188 30.0625C75.8854 29.3883 75.7188 28.5985 75.7188 27.6932C75.7188 26.7992 75.8854 26.0114 76.2188 25.3295C76.5559 24.6477 77.0256 24.1155 77.6278 23.733C78.2339 23.3504 78.9422 23.1591 79.7528 23.1591C80.2453 23.1591 80.7225 23.2405 81.1847 23.4034C81.6468 23.5663 82.0616 23.822 82.429 24.1705C82.7964 24.5189 83.0862 24.9716 83.2983 25.5284C83.5104 26.0814 83.6165 26.7538 83.6165 27.5455V28.1477H76.679V26.875H81.9517C81.9517 26.428 81.8608 26.0322 81.679 25.6875C81.4972 25.339 81.2415 25.0644 80.9119 24.8636C80.5862 24.6629 80.2036 24.5625 79.7642 24.5625C79.2869 24.5625 78.8703 24.6799 78.5142 24.9148C78.1619 25.1458 77.8892 25.4489 77.696 25.8239C77.5066 26.1951 77.4119 26.5985 77.4119 27.0341V28.0284C77.4119 28.6117 77.5142 29.108 77.7188 29.517C77.9271 29.9261 78.2169 30.2386 78.5881 30.4545C78.9593 30.6667 79.393 30.7727 79.8892 30.7727C80.2112 30.7727 80.5047 30.7273 80.7699 30.6364C81.035 30.5417 81.2642 30.4015 81.4574 30.2159C81.6506 30.0303 81.7983 29.8011 81.9006 29.5284L83.5085 29.8182C83.3797 30.2917 83.1487 30.7064 82.8153 31.0625C82.4858 31.4148 82.071 31.6894 81.571 31.8864C81.0748 32.0795 80.5085 32.1761 79.8722 32.1761ZM92.0412 25.4034L90.5014 25.6761C90.437 25.4792 90.3348 25.2917 90.1946 25.1136C90.0582 24.9356 89.8726 24.7898 89.6378 24.6761C89.4029 24.5625 89.1094 24.5057 88.7571 24.5057C88.276 24.5057 87.8745 24.6136 87.5526 24.8295C87.2306 25.0417 87.0696 25.3163 87.0696 25.6534C87.0696 25.9451 87.1776 26.1799 87.3935 26.358C87.6094 26.536 87.9579 26.6818 88.4389 26.7955L89.8253 27.1136C90.6283 27.2992 91.2268 27.5852 91.6207 27.9716C92.0147 28.358 92.2116 28.8598 92.2116 29.4773C92.2116 30 92.0601 30.4659 91.7571 30.875C91.4579 31.2803 91.0393 31.5985 90.5014 31.8295C89.9673 32.0606 89.348 32.1761 88.6435 32.1761C87.6662 32.1761 86.8688 31.9678 86.2514 31.5511C85.634 31.1307 85.2552 30.5341 85.1151 29.7614L86.7571 29.5114C86.8594 29.9394 87.0696 30.2633 87.3878 30.483C87.706 30.6989 88.1207 30.8068 88.6321 30.8068C89.1889 30.8068 89.634 30.6913 89.9673 30.4602C90.3007 30.2254 90.4673 29.9394 90.4673 29.6023C90.4673 29.3295 90.3651 29.1004 90.1605 28.9148C89.9598 28.7292 89.651 28.589 89.2344 28.4943L87.7571 28.1705C86.9427 27.9848 86.3404 27.6894 85.9503 27.2841C85.5639 26.8788 85.3707 26.3655 85.3707 25.7443C85.3707 25.2292 85.5147 24.7784 85.8026 24.392C86.0904 24.0057 86.4882 23.7045 86.9957 23.4886C87.5033 23.2689 88.0848 23.1591 88.7401 23.1591C89.6832 23.1591 90.4257 23.3636 90.9673 23.7727C91.509 24.178 91.867 24.7216 92.0412 25.4034ZM98.1534 23.2727V24.6364H93.3864V23.2727H98.1534ZM94.6648 21.1818H96.3636V29.4375C96.3636 29.767 96.4129 30.0152 96.5114 30.1818C96.6098 30.3447 96.7367 30.4564 96.892 30.517C97.0511 30.5739 97.2235 30.6023 97.4091 30.6023C97.5455 30.6023 97.6648 30.5928 97.767 30.5739C97.8693 30.5549 97.9489 30.5398 98.0057 30.5284L98.3125 31.9318C98.214 31.9697 98.0739 32.0076 97.892 32.0455C97.7102 32.0871 97.483 32.1098 97.2102 32.1136C96.7633 32.1212 96.3466 32.0417 95.9602 31.875C95.5739 31.7083 95.2614 31.4508 95.0227 31.1023C94.7841 30.7538 94.6648 30.3163 94.6648 29.7898V21.1818ZM100.033 32V23.2727H101.663V24.6932H101.771C101.953 24.2121 102.25 23.8371 102.663 23.5682C103.076 23.2955 103.571 23.1591 104.146 23.1591C104.73 23.1591 105.218 23.2955 105.612 23.5682C106.01 23.8409 106.304 24.2159 106.493 24.6932H106.584C106.792 24.2273 107.124 23.8561 107.578 23.5795C108.033 23.2992 108.574 23.1591 109.203 23.1591C109.995 23.1591 110.641 23.4072 111.141 23.9034C111.644 24.3996 111.896 25.1477 111.896 26.1477V32H110.197V26.3068C110.197 25.7159 110.036 25.2879 109.714 25.0227C109.393 24.7576 109.008 24.625 108.561 24.625C108.008 24.625 107.578 24.7955 107.271 25.1364C106.964 25.4735 106.811 25.9072 106.811 26.4375V32H105.118V26.1989C105.118 25.7254 104.97 25.3447 104.675 25.0568C104.379 24.7689 103.995 24.625 103.521 24.625C103.199 24.625 102.902 24.7102 102.629 24.8807C102.36 25.0473 102.143 25.2803 101.976 25.5795C101.813 25.8788 101.732 26.2254 101.732 26.6193V32H100.033ZM116.713 32.1932C116.16 32.1932 115.66 32.0909 115.213 31.8864C114.766 31.678 114.412 31.3769 114.151 30.983C113.893 30.589 113.764 30.1061 113.764 29.5341C113.764 29.0417 113.859 28.6364 114.048 28.3182C114.238 28 114.493 27.7481 114.815 27.5625C115.137 27.3769 115.497 27.2367 115.895 27.142C116.293 27.0473 116.698 26.9754 117.111 26.9261C117.634 26.8655 118.058 26.8163 118.384 26.7784C118.709 26.7367 118.946 26.6705 119.094 26.5795C119.241 26.4886 119.315 26.3409 119.315 26.1364V26.0966C119.315 25.6004 119.175 25.2159 118.895 24.9432C118.618 24.6705 118.205 24.5341 117.656 24.5341C117.084 24.5341 116.634 24.661 116.304 24.9148C115.978 25.1648 115.753 25.4432 115.628 25.75L114.031 25.3864C114.221 24.8561 114.497 24.428 114.861 24.1023C115.228 23.7727 115.651 23.5341 116.128 23.3864C116.605 23.2348 117.107 23.1591 117.634 23.1591C117.982 23.1591 118.351 23.2008 118.741 23.2841C119.135 23.3636 119.503 23.5114 119.844 23.7273C120.188 23.9432 120.471 24.2519 120.69 24.6534C120.91 25.0511 121.02 25.5682 121.02 26.2045V32H119.361V30.8068H119.293C119.183 31.0265 119.018 31.2424 118.798 31.4545C118.579 31.6667 118.296 31.8428 117.952 31.983C117.607 32.1231 117.194 32.1932 116.713 32.1932ZM117.082 30.8295C117.552 30.8295 117.954 30.7367 118.287 30.5511C118.624 30.3655 118.88 30.1231 119.054 29.8239C119.232 29.5208 119.321 29.197 119.321 28.8523V27.7273C119.26 27.7879 119.143 27.8447 118.969 27.8977C118.798 27.947 118.603 27.9905 118.384 28.0284C118.164 28.0625 117.95 28.0947 117.741 28.125C117.533 28.1515 117.359 28.1742 117.219 28.1932C116.889 28.2348 116.588 28.3049 116.315 28.4034C116.046 28.5019 115.83 28.6439 115.668 28.8295C115.509 29.0114 115.429 29.2538 115.429 29.5568C115.429 29.9773 115.584 30.2955 115.895 30.5114C116.205 30.7235 116.601 30.8295 117.082 30.8295ZM123.283 32V23.2727H124.982V32H123.283ZM124.141 21.9261C123.845 21.9261 123.591 21.8277 123.379 21.6307C123.171 21.4299 123.067 21.1913 123.067 20.9148C123.067 20.6345 123.171 20.3958 123.379 20.1989C123.591 19.9981 123.845 19.8977 124.141 19.8977C124.436 19.8977 124.688 19.9981 124.896 20.1989C125.108 20.3958 125.214 20.6345 125.214 20.9148C125.214 21.1913 125.108 21.4299 124.896 21.6307C124.688 21.8277 124.436 21.9261 124.141 21.9261ZM128.966 20.3636V32H127.267V20.3636H128.966ZM132.371 32.108C132.06 32.108 131.793 31.9981 131.57 31.7784C131.346 31.5549 131.234 31.286 131.234 30.9716C131.234 30.661 131.346 30.3958 131.57 30.1761C131.793 29.9527 132.06 29.8409 132.371 29.8409C132.681 29.8409 132.948 29.9527 133.172 30.1761C133.395 30.3958 133.507 30.661 133.507 30.9716C133.507 31.1799 133.454 31.3712 133.348 31.5455C133.246 31.7159 133.109 31.8523 132.939 31.9545C132.768 32.0568 132.579 32.108 132.371 32.108ZM139.459 32.1761C138.614 32.1761 137.887 31.9848 137.277 31.6023C136.671 31.2159 136.205 30.6837 135.879 30.0057C135.554 29.3277 135.391 28.5511 135.391 27.6761C135.391 26.7898 135.557 26.0076 135.891 25.3295C136.224 24.6477 136.694 24.1155 137.3 23.733C137.906 23.3504 138.62 23.1591 139.442 23.1591C140.105 23.1591 140.696 23.2822 141.214 23.5284C141.733 23.7708 142.152 24.1117 142.47 24.5511C142.792 24.9905 142.983 25.5038 143.044 26.0909H141.391C141.3 25.6818 141.091 25.3295 140.766 25.0341C140.444 24.7386 140.012 24.5909 139.47 24.5909C138.997 24.5909 138.582 24.7159 138.226 24.9659C137.874 25.2121 137.599 25.5644 137.402 26.0227C137.205 26.4773 137.107 27.0152 137.107 27.6364C137.107 28.2727 137.203 28.822 137.396 29.2841C137.589 29.7462 137.862 30.1042 138.214 30.358C138.571 30.6117 138.989 30.7386 139.47 30.7386C139.792 30.7386 140.084 30.6799 140.345 30.5625C140.61 30.4413 140.832 30.2689 141.01 30.0455C141.192 29.822 141.319 29.553 141.391 29.2386H143.044C142.983 29.803 142.8 30.3068 142.493 30.75C142.186 31.1932 141.775 31.5417 141.26 31.7955C140.749 32.0492 140.148 32.1761 139.459 32.1761ZM148.537 32.1761C147.719 32.1761 147.005 31.9886 146.395 31.6136C145.785 31.2386 145.312 30.714 144.974 30.0398C144.637 29.3655 144.469 28.5777 144.469 27.6761C144.469 26.7708 144.637 25.9792 144.974 25.3011C145.312 24.6231 145.785 24.0966 146.395 23.7216C147.005 23.3466 147.719 23.1591 148.537 23.1591C149.355 23.1591 150.069 23.3466 150.679 23.7216C151.289 24.0966 151.762 24.6231 152.099 25.3011C152.437 25.9792 152.605 26.7708 152.605 27.6761C152.605 28.5777 152.437 29.3655 152.099 30.0398C151.762 30.714 151.289 31.2386 150.679 31.6136C150.069 31.9886 149.355 32.1761 148.537 32.1761ZM148.543 30.75C149.073 30.75 149.512 30.6098 149.861 30.3295C150.209 30.0492 150.467 29.6761 150.634 29.2102C150.804 28.7443 150.889 28.2311 150.889 27.6705C150.889 27.1136 150.804 26.6023 150.634 26.1364C150.467 25.6667 150.209 25.2898 149.861 25.0057C149.512 24.7216 149.073 24.5795 148.543 24.5795C148.009 24.5795 147.565 24.7216 147.213 25.0057C146.865 25.2898 146.605 25.6667 146.435 26.1364C146.268 26.6023 146.185 27.1136 146.185 27.6705C146.185 28.2311 146.268 28.7443 146.435 29.2102C146.605 29.6761 146.865 30.0492 147.213 30.3295C147.565 30.6098 148.009 30.75 148.543 30.75ZM154.501 32V23.2727H156.132V24.6932H156.24C156.422 24.2121 156.719 23.8371 157.132 23.5682C157.545 23.2955 158.039 23.1591 158.615 23.1591C159.198 23.1591 159.687 23.2955 160.081 23.5682C160.479 23.8409 160.772 24.2159 160.962 24.6932H161.053C161.261 24.2273 161.592 23.8561 162.047 23.5795C162.501 23.2992 163.043 23.1591 163.672 23.1591C164.464 23.1591 165.109 23.4072 165.609 23.9034C166.113 24.3996 166.365 25.1477 166.365 26.1477V32H164.666V26.3068C164.666 25.7159 164.505 25.2879 164.183 25.0227C163.861 24.7576 163.477 24.625 163.03 24.625C162.477 24.625 162.047 24.7955 161.74 25.1364C161.433 25.4735 161.28 25.9072 161.28 26.4375V32H159.587V26.1989C159.587 25.7254 159.439 25.3447 159.143 25.0568C158.848 24.7689 158.464 24.625 157.99 24.625C157.668 24.625 157.371 24.7102 157.098 24.8807C156.829 25.0473 156.611 25.2803 156.445 25.5795C156.282 25.8788 156.2 26.2254 156.2 26.6193V32H154.501Z" fill="#7A7A85"/>
</svg>
