<svg width="631" height="170" viewBox="0 0 631 170" fill="none" xmlns="http://www.w3.org/2000/svg">
<rect x="36" y="36" width="170" height="48" rx="8" fill="white"/>
<path d="M60.1477 67.1648C58.9735 67.1648 57.9318 67.0038 57.0227 66.6818C56.1174 66.3636 55.3542 65.8939 54.733 65.2727C54.1117 64.6553 53.6402 63.8977 53.3182 63C52.9962 62.1023 52.8352 61.0777 52.8352 59.9261C52.8352 58.8049 52.9981 57.7973 53.3239 56.9034C53.6496 56.0095 54.1231 55.2481 54.7443 54.6193C55.3693 53.9867 56.1288 53.5038 57.0227 53.1705C57.9167 52.8371 58.9318 52.6705 60.0682 52.6705C61.1553 52.6705 62.1136 52.8409 62.9432 53.1818C63.7727 53.5227 64.4697 53.9905 65.0341 54.5852C65.6023 55.1799 66.0303 55.8617 66.3182 56.6307C66.6061 57.3996 66.75 58.2121 66.75 59.0682C66.75 59.6667 66.7121 60.2519 66.6364 60.8239C66.5606 61.392 66.4205 61.9072 66.2159 62.3693C66.0152 62.8277 65.7235 63.1951 65.3409 63.4716C64.9621 63.7443 64.4697 63.8864 63.8636 63.8977C63.5417 63.9091 63.2292 63.8712 62.9261 63.7841C62.6231 63.697 62.3655 63.5568 62.1534 63.3636C61.9413 63.1667 61.8125 62.9167 61.767 62.6136H61.6989C61.608 62.8371 61.4564 63.0455 61.2443 63.2386C61.0322 63.428 60.7614 63.5795 60.4318 63.6932C60.1061 63.803 59.7273 63.8485 59.2955 63.8295C58.8182 63.8106 58.3883 63.7027 58.0057 63.5057C57.6231 63.3087 57.2955 63.036 57.0227 62.6875C56.7538 62.339 56.5473 61.9261 56.4034 61.4489C56.2595 60.9716 56.1875 60.4413 56.1875 59.858C56.1875 59.2973 56.2689 58.7955 56.4318 58.3523C56.5947 57.9053 56.8163 57.5208 57.0966 57.1989C57.3807 56.8731 57.7064 56.6155 58.0739 56.4261C58.4413 56.2367 58.8295 56.1174 59.2386 56.0682C59.6364 56.0227 60.0019 56.0341 60.3352 56.1023C60.6686 56.1705 60.9451 56.2746 61.1648 56.4148C61.3883 56.5549 61.5284 56.7083 61.5852 56.875H61.6591V56.2386H63.0568V61.5114C63.0568 61.8106 63.1345 62.0644 63.2898 62.2727C63.4489 62.4811 63.6742 62.5852 63.9659 62.5852C64.3106 62.5852 64.5795 62.4583 64.7727 62.2045C64.9697 61.9508 65.108 61.5606 65.1875 61.0341C65.2708 60.5076 65.3125 59.8333 65.3125 59.0114C65.3125 58.4356 65.2348 57.8939 65.0795 57.3864C64.928 56.875 64.7027 56.4129 64.4034 56C64.108 55.5833 63.7443 55.2254 63.3125 54.9261C62.8807 54.6269 62.3883 54.3958 61.8352 54.233C61.286 54.0701 60.678 53.9886 60.0114 53.9886C59.1061 53.9886 58.3011 54.1288 57.5966 54.4091C56.892 54.6856 56.2973 55.0852 55.8125 55.608C55.3314 56.1307 54.9659 56.7576 54.7159 57.4886C54.4697 58.2159 54.3466 59.0322 54.3466 59.9375C54.3466 60.8807 54.4735 61.7178 54.7273 62.4489C54.9811 63.1761 55.3561 63.7898 55.8523 64.2898C56.3485 64.7898 56.9621 65.1686 57.6932 65.4261C58.4242 65.6875 59.267 65.8182 60.2216 65.8182C60.6458 65.8182 61.0625 65.7803 61.4716 65.7045C61.8807 65.6326 62.2443 65.5492 62.5625 65.4545C62.8845 65.3636 63.125 65.2898 63.2841 65.233L63.6818 66.4773C63.447 66.5871 63.1345 66.6951 62.7443 66.8011C62.358 66.9072 61.9375 66.9943 61.483 67.0625C61.0322 67.1307 60.5871 67.1648 60.1477 67.1648ZM59.625 62.4375C60.1174 62.4375 60.5133 62.339 60.8125 62.142C61.1155 61.9451 61.3333 61.6515 61.4659 61.2614C61.6023 60.8674 61.6705 60.375 61.6705 59.7841C61.6667 59.2083 61.5928 58.75 61.4489 58.4091C61.3087 58.0644 61.089 57.8182 60.7898 57.6705C60.4943 57.5189 60.1136 57.4432 59.6477 57.4432C59.2197 57.4432 58.8542 57.5473 58.5511 57.7557C58.2519 57.964 58.0227 58.2462 57.8636 58.6023C57.7083 58.9583 57.6288 59.3542 57.625 59.7898C57.6288 60.2481 57.6932 60.6799 57.8182 61.0852C57.947 61.4867 58.1553 61.8125 58.4432 62.0625C58.7348 62.3125 59.1288 62.4375 59.625 62.4375ZM72.7003 55.2727V56.6364H67.9332V55.2727H72.7003ZM69.2116 53.1818H70.9105V61.4375C70.9105 61.767 70.9598 62.0152 71.0582 62.1818C71.1567 62.3447 71.2836 62.4564 71.4389 62.517C71.598 62.5739 71.7704 62.6023 71.956 62.6023C72.0923 62.6023 72.2116 62.5928 72.3139 62.5739C72.4162 62.5549 72.4957 62.5398 72.5526 62.5284L72.8594 63.9318C72.7609 63.9697 72.6207 64.0076 72.4389 64.0455C72.2571 64.0871 72.0298 64.1098 71.7571 64.1136C71.3101 64.1212 70.8935 64.0417 70.5071 63.875C70.1207 63.7083 69.8082 63.4508 69.5696 63.1023C69.331 62.7538 69.2116 62.3163 69.2116 61.7898V53.1818ZM78.2472 64.1761C77.3873 64.1761 76.6468 63.9924 76.0256 63.625C75.4081 63.2538 74.9309 62.733 74.5938 62.0625C74.2604 61.3883 74.0938 60.5985 74.0938 59.6932C74.0938 58.7992 74.2604 58.0114 74.5938 57.3295C74.9309 56.6477 75.4006 56.1155 76.0028 55.733C76.6089 55.3504 77.3172 55.1591 78.1278 55.1591C78.6203 55.1591 79.0975 55.2405 79.5597 55.4034C80.0218 55.5663 80.4366 55.822 80.804 56.1705C81.1714 56.5189 81.4612 56.9716 81.6733 57.5284C81.8854 58.0814 81.9915 58.7538 81.9915 59.5455V60.1477H75.054V58.875H80.3267C80.3267 58.428 80.2358 58.0322 80.054 57.6875C79.8722 57.339 79.6165 57.0644 79.2869 56.8636C78.9612 56.6629 78.5786 56.5625 78.1392 56.5625C77.6619 56.5625 77.2453 56.6799 76.8892 56.9148C76.5369 57.1458 76.2642 57.4489 76.071 57.8239C75.8816 58.1951 75.7869 58.5985 75.7869 59.0341V60.0284C75.7869 60.6117 75.8892 61.108 76.0938 61.517C76.3021 61.9261 76.5919 62.2386 76.9631 62.4545C77.3343 62.6667 77.768 62.7727 78.2642 62.7727C78.5862 62.7727 78.8797 62.7273 79.1449 62.6364C79.41 62.5417 79.6392 62.4015 79.8324 62.2159C80.0256 62.0303 80.1733 61.8011 80.2756 61.5284L81.8835 61.8182C81.7547 62.2917 81.5237 62.7064 81.1903 63.0625C80.8608 63.4148 80.446 63.6894 79.946 63.8864C79.4498 64.0795 78.8835 64.1761 78.2472 64.1761ZM90.4162 57.4034L88.8764 57.6761C88.812 57.4792 88.7098 57.2917 88.5696 57.1136C88.4332 56.9356 88.2476 56.7898 88.0128 56.6761C87.7779 56.5625 87.4844 56.5057 87.1321 56.5057C86.651 56.5057 86.2495 56.6136 85.9276 56.8295C85.6056 57.0417 85.4446 57.3163 85.4446 57.6534C85.4446 57.9451 85.5526 58.1799 85.7685 58.358C85.9844 58.536 86.3329 58.6818 86.8139 58.7955L88.2003 59.1136C89.0033 59.2992 89.6018 59.5852 89.9957 59.9716C90.3897 60.358 90.5866 60.8598 90.5866 61.4773C90.5866 62 90.4351 62.4659 90.1321 62.875C89.8329 63.2803 89.4143 63.5985 88.8764 63.8295C88.3423 64.0606 87.723 64.1761 87.0185 64.1761C86.0412 64.1761 85.2438 63.9678 84.6264 63.5511C84.009 63.1307 83.6302 62.5341 83.4901 61.7614L85.1321 61.5114C85.2344 61.9394 85.4446 62.2633 85.7628 62.483C86.081 62.6989 86.4957 62.8068 87.0071 62.8068C87.5639 62.8068 88.009 62.6913 88.3423 62.4602C88.6757 62.2254 88.8423 61.9394 88.8423 61.6023C88.8423 61.3295 88.7401 61.1004 88.5355 60.9148C88.3348 60.7292 88.026 60.589 87.6094 60.4943L86.1321 60.1705C85.3177 59.9848 84.7154 59.6894 84.3253 59.2841C83.9389 58.8788 83.7457 58.3655 83.7457 57.7443C83.7457 57.2292 83.8897 56.7784 84.1776 56.392C84.4654 56.0057 84.8632 55.7045 85.3707 55.4886C85.8783 55.2689 86.4598 55.1591 87.1151 55.1591C88.0582 55.1591 88.8007 55.3636 89.3423 55.7727C89.884 56.178 90.242 56.7216 90.4162 57.4034ZM96.5284 55.2727V56.6364H91.7614V55.2727H96.5284ZM93.0398 53.1818H94.7386V61.4375C94.7386 61.767 94.7879 62.0152 94.8864 62.1818C94.9848 62.3447 95.1117 62.4564 95.267 62.517C95.4261 62.5739 95.5985 62.6023 95.7841 62.6023C95.9205 62.6023 96.0398 62.5928 96.142 62.5739C96.2443 62.5549 96.3239 62.5398 96.3807 62.5284L96.6875 63.9318C96.589 63.9697 96.4489 64.0076 96.267 64.0455C96.0852 64.0871 95.858 64.1098 95.5852 64.1136C95.1383 64.1212 94.7216 64.0417 94.3352 63.875C93.9489 63.7083 93.6364 63.4508 93.3977 63.1023C93.1591 62.7538 93.0398 62.3163 93.0398 61.7898V53.1818ZM98.4077 64V55.2727H100.038V56.6932H100.146C100.328 56.2121 100.625 55.8371 101.038 55.5682C101.451 55.2955 101.946 55.1591 102.521 55.1591C103.105 55.1591 103.593 55.2955 103.987 55.5682C104.385 55.8409 104.679 56.2159 104.868 56.6932H104.959C105.167 56.2273 105.499 55.8561 105.953 55.5795C106.408 55.2992 106.949 55.1591 107.578 55.1591C108.37 55.1591 109.016 55.4072 109.516 55.9034C110.019 56.3996 110.271 57.1477 110.271 58.1477V64H108.572V58.3068C108.572 57.7159 108.411 57.2879 108.089 57.0227C107.768 56.7576 107.383 56.625 106.936 56.625C106.383 56.625 105.953 56.7955 105.646 57.1364C105.339 57.4735 105.186 57.9072 105.186 58.4375V64H103.493V58.1989C103.493 57.7254 103.345 57.3447 103.05 57.0568C102.754 56.7689 102.37 56.625 101.896 56.625C101.574 56.625 101.277 56.7102 101.004 56.8807C100.735 57.0473 100.518 57.2803 100.351 57.5795C100.188 57.8788 100.107 58.2254 100.107 58.6193V64H98.4077ZM115.088 64.1932C114.535 64.1932 114.035 64.0909 113.588 63.8864C113.141 63.678 112.787 63.3769 112.526 62.983C112.268 62.589 112.139 62.1061 112.139 61.5341C112.139 61.0417 112.234 60.6364 112.423 60.3182C112.613 60 112.868 59.7481 113.19 59.5625C113.512 59.3769 113.872 59.2367 114.27 59.142C114.668 59.0473 115.073 58.9754 115.486 58.9261C116.009 58.8655 116.433 58.8163 116.759 58.7784C117.084 58.7367 117.321 58.6705 117.469 58.5795C117.616 58.4886 117.69 58.3409 117.69 58.1364V58.0966C117.69 57.6004 117.55 57.2159 117.27 56.9432C116.993 56.6705 116.58 56.5341 116.031 56.5341C115.459 56.5341 115.009 56.661 114.679 56.9148C114.353 57.1648 114.128 57.4432 114.003 57.75L112.406 57.3864C112.596 56.8561 112.872 56.428 113.236 56.1023C113.603 55.7727 114.026 55.5341 114.503 55.3864C114.98 55.2348 115.482 55.1591 116.009 55.1591C116.357 55.1591 116.726 55.2008 117.116 55.2841C117.51 55.3636 117.878 55.5114 118.219 55.7273C118.563 55.9432 118.846 56.2519 119.065 56.6534C119.285 57.0511 119.395 57.5682 119.395 58.2045V64H117.736V62.8068H117.668C117.558 63.0265 117.393 63.2424 117.173 63.4545C116.954 63.6667 116.671 63.8428 116.327 63.983C115.982 64.1231 115.569 64.1932 115.088 64.1932ZM115.457 62.8295C115.927 62.8295 116.329 62.7367 116.662 62.5511C116.999 62.3655 117.255 62.1231 117.429 61.8239C117.607 61.5208 117.696 61.197 117.696 60.8523V59.7273C117.635 59.7879 117.518 59.8447 117.344 59.8977C117.173 59.947 116.978 59.9905 116.759 60.0284C116.539 60.0625 116.325 60.0947 116.116 60.125C115.908 60.1515 115.734 60.1742 115.594 60.1932C115.264 60.2348 114.963 60.3049 114.69 60.4034C114.421 60.5019 114.205 60.6439 114.043 60.8295C113.884 61.0114 113.804 61.2538 113.804 61.5568C113.804 61.9773 113.959 62.2955 114.27 62.5114C114.58 62.7235 114.976 62.8295 115.457 62.8295ZM121.658 64V55.2727H123.357V64H121.658ZM122.516 53.9261C122.22 53.9261 121.966 53.8277 121.754 53.6307C121.546 53.4299 121.442 53.1913 121.442 52.9148C121.442 52.6345 121.546 52.3958 121.754 52.1989C121.966 51.9981 122.22 51.8977 122.516 51.8977C122.811 51.8977 123.063 51.9981 123.271 52.1989C123.483 52.3958 123.589 52.6345 123.589 52.9148C123.589 53.1913 123.483 53.4299 123.271 53.6307C123.063 53.8277 122.811 53.9261 122.516 53.9261ZM127.341 52.3636V64H125.642V52.3636H127.341ZM130.746 64.108C130.435 64.108 130.168 63.9981 129.945 63.7784C129.721 63.5549 129.609 63.286 129.609 62.9716C129.609 62.661 129.721 62.3958 129.945 62.1761C130.168 61.9527 130.435 61.8409 130.746 61.8409C131.056 61.8409 131.323 61.9527 131.547 62.1761C131.77 62.3958 131.882 62.661 131.882 62.9716C131.882 63.1799 131.829 63.3712 131.723 63.5455C131.621 63.7159 131.484 63.8523 131.314 63.9545C131.143 64.0568 130.954 64.108 130.746 64.108ZM137.834 64.1761C136.989 64.1761 136.262 63.9848 135.652 63.6023C135.046 63.2159 134.58 62.6837 134.254 62.0057C133.929 61.3277 133.766 60.5511 133.766 59.6761C133.766 58.7898 133.932 58.0076 134.266 57.3295C134.599 56.6477 135.069 56.1155 135.675 55.733C136.281 55.3504 136.995 55.1591 137.817 55.1591C138.48 55.1591 139.071 55.2822 139.589 55.5284C140.108 55.7708 140.527 56.1117 140.845 56.5511C141.167 56.9905 141.358 57.5038 141.419 58.0909H139.766C139.675 57.6818 139.466 57.3295 139.141 57.0341C138.819 56.7386 138.387 56.5909 137.845 56.5909C137.372 56.5909 136.957 56.7159 136.601 56.9659C136.249 57.2121 135.974 57.5644 135.777 58.0227C135.58 58.4773 135.482 59.0152 135.482 59.6364C135.482 60.2727 135.578 60.822 135.771 61.2841C135.964 61.7462 136.237 62.1042 136.589 62.358C136.946 62.6117 137.364 62.7386 137.845 62.7386C138.167 62.7386 138.459 62.6799 138.72 62.5625C138.985 62.4413 139.207 62.2689 139.385 62.0455C139.567 61.822 139.694 61.553 139.766 61.2386H141.419C141.358 61.803 141.175 62.3068 140.868 62.75C140.561 63.1932 140.15 63.5417 139.635 63.7955C139.124 64.0492 138.523 64.1761 137.834 64.1761ZM146.912 64.1761C146.094 64.1761 145.38 63.9886 144.77 63.6136C144.16 63.2386 143.687 62.714 143.349 62.0398C143.012 61.3655 142.844 60.5777 142.844 59.6761C142.844 58.7708 143.012 57.9792 143.349 57.3011C143.687 56.6231 144.16 56.0966 144.77 55.7216C145.38 55.3466 146.094 55.1591 146.912 55.1591C147.73 55.1591 148.444 55.3466 149.054 55.7216C149.664 56.0966 150.137 56.6231 150.474 57.3011C150.812 57.9792 150.98 58.7708 150.98 59.6761C150.98 60.5777 150.812 61.3655 150.474 62.0398C150.137 62.714 149.664 63.2386 149.054 63.6136C148.444 63.9886 147.73 64.1761 146.912 64.1761ZM146.918 62.75C147.448 62.75 147.887 62.6098 148.236 62.3295C148.584 62.0492 148.842 61.6761 149.009 61.2102C149.179 60.7443 149.264 60.2311 149.264 59.6705C149.264 59.1136 149.179 58.6023 149.009 58.1364C148.842 57.6667 148.584 57.2898 148.236 57.0057C147.887 56.7216 147.448 56.5795 146.918 56.5795C146.384 56.5795 145.94 56.7216 145.588 57.0057C145.24 57.2898 144.98 57.6667 144.81 58.1364C144.643 58.6023 144.56 59.1136 144.56 59.6705C144.56 60.2311 144.643 60.7443 144.81 61.2102C144.98 61.6761 145.24 62.0492 145.588 62.3295C145.94 62.6098 146.384 62.75 146.918 62.75ZM152.876 64V55.2727H154.507V56.6932H154.615C154.797 56.2121 155.094 55.8371 155.507 55.5682C155.92 55.2955 156.414 55.1591 156.99 55.1591C157.573 55.1591 158.062 55.2955 158.456 55.5682C158.854 55.8409 159.147 56.2159 159.337 56.6932H159.428C159.636 56.2273 159.967 55.8561 160.422 55.5795C160.876 55.2992 161.418 55.1591 162.047 55.1591C162.839 55.1591 163.484 55.4072 163.984 55.9034C164.488 56.3996 164.74 57.1477 164.74 58.1477V64H163.041V58.3068C163.041 57.7159 162.88 57.2879 162.558 57.0227C162.236 56.7576 161.852 56.625 161.405 56.625C160.852 56.625 160.422 56.7955 160.115 57.1364C159.808 57.4735 159.655 57.9072 159.655 58.4375V64H157.962V58.1989C157.962 57.7254 157.814 57.3447 157.518 57.0568C157.223 56.7689 156.839 56.625 156.365 56.625C156.043 56.625 155.746 56.7102 155.473 56.8807C155.204 57.0473 154.986 57.2803 154.82 57.5795C154.657 57.8788 154.575 58.2254 154.575 58.6193V64H152.876Z" fill="#7A7A85"/>
<path d="M177.669 57.2567C177.258 56.8872 176.626 56.9205 176.257 57.331C175.887 57.7415 175.921 58.3738 176.331 58.7433L181.331 63.2433C181.711 63.5856 182.289 63.5856 182.669 63.2433L187.669 58.7433C188.079 58.3738 188.113 57.7415 187.743 57.331C187.374 56.9205 186.742 56.8872 186.331 57.2567L182 61.1546L177.669 57.2567Z" fill="#7A7A85"/>
<path d="M60.1477 129.165C58.9735 129.165 57.9318 129.004 57.0227 128.682C56.1174 128.364 55.3542 127.894 54.733 127.273C54.1117 126.655 53.6402 125.898 53.3182 125C52.9962 124.102 52.8352 123.078 52.8352 121.926C52.8352 120.805 52.9981 119.797 53.3239 118.903C53.6496 118.009 54.1231 117.248 54.7443 116.619C55.3693 115.987 56.1288 115.504 57.0227 115.17C57.9167 114.837 58.9318 114.67 60.0682 114.67C61.1553 114.67 62.1136 114.841 62.9432 115.182C63.7727 115.523 64.4697 115.991 65.0341 116.585C65.6023 117.18 66.0303 117.862 66.3182 118.631C66.6061 119.4 66.75 120.212 66.75 121.068C66.75 121.667 66.7121 122.252 66.6364 122.824C66.5606 123.392 66.4205 123.907 66.2159 124.369C66.0152 124.828 65.7235 125.195 65.3409 125.472C64.9621 125.744 64.4697 125.886 63.8636 125.898C63.5417 125.909 63.2292 125.871 62.9261 125.784C62.6231 125.697 62.3655 125.557 62.1534 125.364C61.9413 125.167 61.8125 124.917 61.767 124.614H61.6989C61.608 124.837 61.4564 125.045 61.2443 125.239C61.0322 125.428 60.7614 125.58 60.4318 125.693C60.1061 125.803 59.7273 125.848 59.2955 125.83C58.8182 125.811 58.3883 125.703 58.0057 125.506C57.6231 125.309 57.2955 125.036 57.0227 124.688C56.7538 124.339 56.5473 123.926 56.4034 123.449C56.2595 122.972 56.1875 122.441 56.1875 121.858C56.1875 121.297 56.2689 120.795 56.4318 120.352C56.5947 119.905 56.8163 119.521 57.0966 119.199C57.3807 118.873 57.7064 118.616 58.0739 118.426C58.4413 118.237 58.8295 118.117 59.2386 118.068C59.6364 118.023 60.0019 118.034 60.3352 118.102C60.6686 118.17 60.9451 118.275 61.1648 118.415C61.3883 118.555 61.5284 118.708 61.5852 118.875H61.6591V118.239H63.0568V123.511C63.0568 123.811 63.1345 124.064 63.2898 124.273C63.4489 124.481 63.6742 124.585 63.9659 124.585C64.3106 124.585 64.5795 124.458 64.7727 124.205C64.9697 123.951 65.108 123.561 65.1875 123.034C65.2708 122.508 65.3125 121.833 65.3125 121.011C65.3125 120.436 65.2348 119.894 65.0795 119.386C64.928 118.875 64.7027 118.413 64.4034 118C64.108 117.583 63.7443 117.225 63.3125 116.926C62.8807 116.627 62.3883 116.396 61.8352 116.233C61.286 116.07 60.678 115.989 60.0114 115.989C59.1061 115.989 58.3011 116.129 57.5966 116.409C56.892 116.686 56.2973 117.085 55.8125 117.608C55.3314 118.131 54.9659 118.758 54.7159 119.489C54.4697 120.216 54.3466 121.032 54.3466 121.938C54.3466 122.881 54.4735 123.718 54.7273 124.449C54.9811 125.176 55.3561 125.79 55.8523 126.29C56.3485 126.79 56.9621 127.169 57.6932 127.426C58.4242 127.688 59.267 127.818 60.2216 127.818C60.6458 127.818 61.0625 127.78 61.4716 127.705C61.8807 127.633 62.2443 127.549 62.5625 127.455C62.8845 127.364 63.125 127.29 63.2841 127.233L63.6818 128.477C63.447 128.587 63.1345 128.695 62.7443 128.801C62.358 128.907 61.9375 128.994 61.483 129.062C61.0322 129.131 60.5871 129.165 60.1477 129.165ZM59.625 124.438C60.1174 124.438 60.5133 124.339 60.8125 124.142C61.1155 123.945 61.3333 123.652 61.4659 123.261C61.6023 122.867 61.6705 122.375 61.6705 121.784C61.6667 121.208 61.5928 120.75 61.4489 120.409C61.3087 120.064 61.089 119.818 60.7898 119.67C60.4943 119.519 60.1136 119.443 59.6477 119.443C59.2197 119.443 58.8542 119.547 58.5511 119.756C58.2519 119.964 58.0227 120.246 57.8636 120.602C57.7083 120.958 57.6288 121.354 57.625 121.79C57.6288 122.248 57.6932 122.68 57.8182 123.085C57.947 123.487 58.1553 123.812 58.4432 124.062C58.7348 124.312 59.1288 124.438 59.625 124.438ZM72.7003 117.273V118.636H67.9332V117.273H72.7003ZM69.2116 115.182H70.9105V123.438C70.9105 123.767 70.9598 124.015 71.0582 124.182C71.1567 124.345 71.2836 124.456 71.4389 124.517C71.598 124.574 71.7704 124.602 71.956 124.602C72.0923 124.602 72.2116 124.593 72.3139 124.574C72.4162 124.555 72.4957 124.54 72.5526 124.528L72.8594 125.932C72.7609 125.97 72.6207 126.008 72.4389 126.045C72.2571 126.087 72.0298 126.11 71.7571 126.114C71.3101 126.121 70.8935 126.042 70.5071 125.875C70.1207 125.708 69.8082 125.451 69.5696 125.102C69.331 124.754 69.2116 124.316 69.2116 123.79V115.182ZM78.2472 126.176C77.3873 126.176 76.6468 125.992 76.0256 125.625C75.4081 125.254 74.9309 124.733 74.5938 124.062C74.2604 123.388 74.0938 122.598 74.0938 121.693C74.0938 120.799 74.2604 120.011 74.5938 119.33C74.9309 118.648 75.4006 118.116 76.0028 117.733C76.6089 117.35 77.3172 117.159 78.1278 117.159C78.6203 117.159 79.0975 117.241 79.5597 117.403C80.0218 117.566 80.4366 117.822 80.804 118.17C81.1714 118.519 81.4612 118.972 81.6733 119.528C81.8854 120.081 81.9915 120.754 81.9915 121.545V122.148H75.054V120.875H80.3267C80.3267 120.428 80.2358 120.032 80.054 119.688C79.8722 119.339 79.6165 119.064 79.2869 118.864C78.9612 118.663 78.5786 118.562 78.1392 118.562C77.6619 118.562 77.2453 118.68 76.8892 118.915C76.5369 119.146 76.2642 119.449 76.071 119.824C75.8816 120.195 75.7869 120.598 75.7869 121.034V122.028C75.7869 122.612 75.8892 123.108 76.0938 123.517C76.3021 123.926 76.5919 124.239 76.9631 124.455C77.3343 124.667 77.768 124.773 78.2642 124.773C78.5862 124.773 78.8797 124.727 79.1449 124.636C79.41 124.542 79.6392 124.402 79.8324 124.216C80.0256 124.03 80.1733 123.801 80.2756 123.528L81.8835 123.818C81.7547 124.292 81.5237 124.706 81.1903 125.062C80.8608 125.415 80.446 125.689 79.946 125.886C79.4498 126.08 78.8835 126.176 78.2472 126.176ZM90.4162 119.403L88.8764 119.676C88.812 119.479 88.7098 119.292 88.5696 119.114C88.4332 118.936 88.2476 118.79 88.0128 118.676C87.7779 118.562 87.4844 118.506 87.1321 118.506C86.651 118.506 86.2495 118.614 85.9276 118.83C85.6056 119.042 85.4446 119.316 85.4446 119.653C85.4446 119.945 85.5526 120.18 85.7685 120.358C85.9844 120.536 86.3329 120.682 86.8139 120.795L88.2003 121.114C89.0033 121.299 89.6018 121.585 89.9957 121.972C90.3897 122.358 90.5866 122.86 90.5866 123.477C90.5866 124 90.4351 124.466 90.1321 124.875C89.8329 125.28 89.4143 125.598 88.8764 125.83C88.3423 126.061 87.723 126.176 87.0185 126.176C86.0412 126.176 85.2438 125.968 84.6264 125.551C84.009 125.131 83.6302 124.534 83.4901 123.761L85.1321 123.511C85.2344 123.939 85.4446 124.263 85.7628 124.483C86.081 124.699 86.4957 124.807 87.0071 124.807C87.5639 124.807 88.009 124.691 88.3423 124.46C88.6757 124.225 88.8423 123.939 88.8423 123.602C88.8423 123.33 88.7401 123.1 88.5355 122.915C88.3348 122.729 88.026 122.589 87.6094 122.494L86.1321 122.17C85.3177 121.985 84.7154 121.689 84.3253 121.284C83.9389 120.879 83.7457 120.366 83.7457 119.744C83.7457 119.229 83.8897 118.778 84.1776 118.392C84.4654 118.006 84.8632 117.705 85.3707 117.489C85.8783 117.269 86.4598 117.159 87.1151 117.159C88.0582 117.159 88.8007 117.364 89.3423 117.773C89.884 118.178 90.242 118.722 90.4162 119.403ZM96.5284 117.273V118.636H91.7614V117.273H96.5284ZM93.0398 115.182H94.7386V123.438C94.7386 123.767 94.7879 124.015 94.8864 124.182C94.9848 124.345 95.1117 124.456 95.267 124.517C95.4261 124.574 95.5985 124.602 95.7841 124.602C95.9205 124.602 96.0398 124.593 96.142 124.574C96.2443 124.555 96.3239 124.54 96.3807 124.528L96.6875 125.932C96.589 125.97 96.4489 126.008 96.267 126.045C96.0852 126.087 95.858 126.11 95.5852 126.114C95.1383 126.121 94.7216 126.042 94.3352 125.875C93.9489 125.708 93.6364 125.451 93.3977 125.102C93.1591 124.754 93.0398 124.316 93.0398 123.79V115.182ZM98.4077 126V117.273H100.038V118.693H100.146C100.328 118.212 100.625 117.837 101.038 117.568C101.451 117.295 101.946 117.159 102.521 117.159C103.105 117.159 103.593 117.295 103.987 117.568C104.385 117.841 104.679 118.216 104.868 118.693H104.959C105.167 118.227 105.499 117.856 105.953 117.58C106.408 117.299 106.949 117.159 107.578 117.159C108.37 117.159 109.016 117.407 109.516 117.903C110.019 118.4 110.271 119.148 110.271 120.148V126H108.572V120.307C108.572 119.716 108.411 119.288 108.089 119.023C107.768 118.758 107.383 118.625 106.936 118.625C106.383 118.625 105.953 118.795 105.646 119.136C105.339 119.473 105.186 119.907 105.186 120.438V126H103.493V120.199C103.493 119.725 103.345 119.345 103.05 119.057C102.754 118.769 102.37 118.625 101.896 118.625C101.574 118.625 101.277 118.71 101.004 118.881C100.735 119.047 100.518 119.28 100.351 119.58C100.188 119.879 100.107 120.225 100.107 120.619V126H98.4077ZM115.088 126.193C114.535 126.193 114.035 126.091 113.588 125.886C113.141 125.678 112.787 125.377 112.526 124.983C112.268 124.589 112.139 124.106 112.139 123.534C112.139 123.042 112.234 122.636 112.423 122.318C112.613 122 112.868 121.748 113.19 121.562C113.512 121.377 113.872 121.237 114.27 121.142C114.668 121.047 115.073 120.975 115.486 120.926C116.009 120.866 116.433 120.816 116.759 120.778C117.084 120.737 117.321 120.67 117.469 120.58C117.616 120.489 117.69 120.341 117.69 120.136V120.097C117.69 119.6 117.55 119.216 117.27 118.943C116.993 118.67 116.58 118.534 116.031 118.534C115.459 118.534 115.009 118.661 114.679 118.915C114.353 119.165 114.128 119.443 114.003 119.75L112.406 119.386C112.596 118.856 112.872 118.428 113.236 118.102C113.603 117.773 114.026 117.534 114.503 117.386C114.98 117.235 115.482 117.159 116.009 117.159C116.357 117.159 116.726 117.201 117.116 117.284C117.51 117.364 117.878 117.511 118.219 117.727C118.563 117.943 118.846 118.252 119.065 118.653C119.285 119.051 119.395 119.568 119.395 120.205V126H117.736V124.807H117.668C117.558 125.027 117.393 125.242 117.173 125.455C116.954 125.667 116.671 125.843 116.327 125.983C115.982 126.123 115.569 126.193 115.088 126.193ZM115.457 124.83C115.927 124.83 116.329 124.737 116.662 124.551C116.999 124.366 117.255 124.123 117.429 123.824C117.607 123.521 117.696 123.197 117.696 122.852V121.727C117.635 121.788 117.518 121.845 117.344 121.898C117.173 121.947 116.978 121.991 116.759 122.028C116.539 122.062 116.325 122.095 116.116 122.125C115.908 122.152 115.734 122.174 115.594 122.193C115.264 122.235 114.963 122.305 114.69 122.403C114.421 122.502 114.205 122.644 114.043 122.83C113.884 123.011 113.804 123.254 113.804 123.557C113.804 123.977 113.959 124.295 114.27 124.511C114.58 124.723 114.976 124.83 115.457 124.83ZM121.658 126V117.273H123.357V126H121.658ZM122.516 115.926C122.22 115.926 121.966 115.828 121.754 115.631C121.546 115.43 121.442 115.191 121.442 114.915C121.442 114.634 121.546 114.396 121.754 114.199C121.966 113.998 122.22 113.898 122.516 113.898C122.811 113.898 123.063 113.998 123.271 114.199C123.483 114.396 123.589 114.634 123.589 114.915C123.589 115.191 123.483 115.43 123.271 115.631C123.063 115.828 122.811 115.926 122.516 115.926ZM127.341 114.364V126H125.642V114.364H127.341ZM130.746 126.108C130.435 126.108 130.168 125.998 129.945 125.778C129.721 125.555 129.609 125.286 129.609 124.972C129.609 124.661 129.721 124.396 129.945 124.176C130.168 123.953 130.435 123.841 130.746 123.841C131.056 123.841 131.323 123.953 131.547 124.176C131.77 124.396 131.882 124.661 131.882 124.972C131.882 125.18 131.829 125.371 131.723 125.545C131.621 125.716 131.484 125.852 131.314 125.955C131.143 126.057 130.954 126.108 130.746 126.108ZM137.834 126.176C136.989 126.176 136.262 125.985 135.652 125.602C135.046 125.216 134.58 124.684 134.254 124.006C133.929 123.328 133.766 122.551 133.766 121.676C133.766 120.79 133.932 120.008 134.266 119.33C134.599 118.648 135.069 118.116 135.675 117.733C136.281 117.35 136.995 117.159 137.817 117.159C138.48 117.159 139.071 117.282 139.589 117.528C140.108 117.771 140.527 118.112 140.845 118.551C141.167 118.991 141.358 119.504 141.419 120.091H139.766C139.675 119.682 139.466 119.33 139.141 119.034C138.819 118.739 138.387 118.591 137.845 118.591C137.372 118.591 136.957 118.716 136.601 118.966C136.249 119.212 135.974 119.564 135.777 120.023C135.58 120.477 135.482 121.015 135.482 121.636C135.482 122.273 135.578 122.822 135.771 123.284C135.964 123.746 136.237 124.104 136.589 124.358C136.946 124.612 137.364 124.739 137.845 124.739C138.167 124.739 138.459 124.68 138.72 124.562C138.985 124.441 139.207 124.269 139.385 124.045C139.567 123.822 139.694 123.553 139.766 123.239H141.419C141.358 123.803 141.175 124.307 140.868 124.75C140.561 125.193 140.15 125.542 139.635 125.795C139.124 126.049 138.523 126.176 137.834 126.176ZM146.912 126.176C146.094 126.176 145.38 125.989 144.77 125.614C144.16 125.239 143.687 124.714 143.349 124.04C143.012 123.366 142.844 122.578 142.844 121.676C142.844 120.771 143.012 119.979 143.349 119.301C143.687 118.623 144.16 118.097 144.77 117.722C145.38 117.347 146.094 117.159 146.912 117.159C147.73 117.159 148.444 117.347 149.054 117.722C149.664 118.097 150.137 118.623 150.474 119.301C150.812 119.979 150.98 120.771 150.98 121.676C150.98 122.578 150.812 123.366 150.474 124.04C150.137 124.714 149.664 125.239 149.054 125.614C148.444 125.989 147.73 126.176 146.912 126.176ZM146.918 124.75C147.448 124.75 147.887 124.61 148.236 124.33C148.584 124.049 148.842 123.676 149.009 123.21C149.179 122.744 149.264 122.231 149.264 121.67C149.264 121.114 149.179 120.602 149.009 120.136C148.842 119.667 148.584 119.29 148.236 119.006C147.887 118.722 147.448 118.58 146.918 118.58C146.384 118.58 145.94 118.722 145.588 119.006C145.24 119.29 144.98 119.667 144.81 120.136C144.643 120.602 144.56 121.114 144.56 121.67C144.56 122.231 144.643 122.744 144.81 123.21C144.98 123.676 145.24 124.049 145.588 124.33C145.94 124.61 146.384 124.75 146.918 124.75ZM152.876 126V117.273H154.507V118.693H154.615C154.797 118.212 155.094 117.837 155.507 117.568C155.92 117.295 156.414 117.159 156.99 117.159C157.573 117.159 158.062 117.295 158.456 117.568C158.854 117.841 159.147 118.216 159.337 118.693H159.428C159.636 118.227 159.967 117.856 160.422 117.58C160.876 117.299 161.418 117.159 162.047 117.159C162.839 117.159 163.484 117.407 163.984 117.903C164.488 118.4 164.74 119.148 164.74 120.148V126H163.041V120.307C163.041 119.716 162.88 119.288 162.558 119.023C162.236 118.758 161.852 118.625 161.405 118.625C160.852 118.625 160.422 118.795 160.115 119.136C159.808 119.473 159.655 119.907 159.655 120.438V126H157.962V120.199C157.962 119.725 157.814 119.345 157.518 119.057C157.223 118.769 156.839 118.625 156.365 118.625C156.043 118.625 155.746 118.71 155.473 118.881C155.204 119.047 154.986 119.28 154.82 119.58C154.657 119.879 154.575 120.225 154.575 120.619V126H152.876Z" fill="#7A7A85"/>
<path d="M177.669 119.257C177.258 118.887 176.626 118.921 176.257 119.331C175.887 119.742 175.921 120.374 176.331 120.743L181.331 125.243C181.711 125.586 182.289 125.586 182.669 125.243L187.669 120.743C188.079 120.374 188.113 119.742 187.743 119.331C187.374 118.921 186.742 118.887 186.331 119.257L182 123.155L177.669 119.257Z" fill="#7A7A85"/>
<rect x="220" y="36" width="170" height="48" rx="8" fill="#0055FF" fill-opacity="0.1"/>
<path d="M244.148 67.1648C242.973 67.1648 241.932 67.0038 241.023 66.6818C240.117 66.3636 239.354 65.8939 238.733 65.2727C238.112 64.6553 237.64 63.8977 237.318 63C236.996 62.1023 236.835 61.0777 236.835 59.9261C236.835 58.8049 236.998 57.7973 237.324 56.9034C237.65 56.0095 238.123 55.2481 238.744 54.6193C239.369 53.9867 240.129 53.5038 241.023 53.1705C241.917 52.8371 242.932 52.6705 244.068 52.6705C245.155 52.6705 246.114 52.8409 246.943 53.1818C247.773 53.5227 248.47 53.9905 249.034 54.5852C249.602 55.1799 250.03 55.8617 250.318 56.6307C250.606 57.3996 250.75 58.2121 250.75 59.0682C250.75 59.6667 250.712 60.2519 250.636 60.8239C250.561 61.392 250.42 61.9072 250.216 62.3693C250.015 62.8277 249.723 63.1951 249.341 63.4716C248.962 63.7443 248.47 63.8864 247.864 63.8977C247.542 63.9091 247.229 63.8712 246.926 63.7841C246.623 63.697 246.366 63.5568 246.153 63.3636C245.941 63.1667 245.813 62.9167 245.767 62.6136H245.699C245.608 62.8371 245.456 63.0455 245.244 63.2386C245.032 63.428 244.761 63.5795 244.432 63.6932C244.106 63.803 243.727 63.8485 243.295 63.8295C242.818 63.8106 242.388 63.7027 242.006 63.5057C241.623 63.3087 241.295 63.036 241.023 62.6875C240.754 62.339 240.547 61.9261 240.403 61.4489C240.259 60.9716 240.188 60.4413 240.188 59.858C240.188 59.2973 240.269 58.7955 240.432 58.3523C240.595 57.9053 240.816 57.5208 241.097 57.1989C241.381 56.8731 241.706 56.6155 242.074 56.4261C242.441 56.2367 242.83 56.1174 243.239 56.0682C243.636 56.0227 244.002 56.0341 244.335 56.1023C244.669 56.1705 244.945 56.2746 245.165 56.4148C245.388 56.5549 245.528 56.7083 245.585 56.875H245.659V56.2386H247.057V61.5114C247.057 61.8106 247.134 62.0644 247.29 62.2727C247.449 62.4811 247.674 62.5852 247.966 62.5852C248.311 62.5852 248.58 62.4583 248.773 62.2045C248.97 61.9508 249.108 61.5606 249.188 61.0341C249.271 60.5076 249.312 59.8333 249.312 59.0114C249.312 58.4356 249.235 57.8939 249.08 57.3864C248.928 56.875 248.703 56.4129 248.403 56C248.108 55.5833 247.744 55.2254 247.312 54.9261C246.881 54.6269 246.388 54.3958 245.835 54.233C245.286 54.0701 244.678 53.9886 244.011 53.9886C243.106 53.9886 242.301 54.1288 241.597 54.4091C240.892 54.6856 240.297 55.0852 239.812 55.608C239.331 56.1307 238.966 56.7576 238.716 57.4886C238.47 58.2159 238.347 59.0322 238.347 59.9375C238.347 60.8807 238.473 61.7178 238.727 62.4489C238.981 63.1761 239.356 63.7898 239.852 64.2898C240.348 64.7898 240.962 65.1686 241.693 65.4261C242.424 65.6875 243.267 65.8182 244.222 65.8182C244.646 65.8182 245.063 65.7803 245.472 65.7045C245.881 65.6326 246.244 65.5492 246.562 65.4545C246.884 65.3636 247.125 65.2898 247.284 65.233L247.682 66.4773C247.447 66.5871 247.134 66.6951 246.744 66.8011C246.358 66.9072 245.938 66.9943 245.483 67.0625C245.032 67.1307 244.587 67.1648 244.148 67.1648ZM243.625 62.4375C244.117 62.4375 244.513 62.339 244.812 62.142C245.116 61.9451 245.333 61.6515 245.466 61.2614C245.602 60.8674 245.67 60.375 245.67 59.7841C245.667 59.2083 245.593 58.75 245.449 58.4091C245.309 58.0644 245.089 57.8182 244.79 57.6705C244.494 57.5189 244.114 57.4432 243.648 57.4432C243.22 57.4432 242.854 57.5473 242.551 57.7557C242.252 57.964 242.023 58.2462 241.864 58.6023C241.708 58.9583 241.629 59.3542 241.625 59.7898C241.629 60.2481 241.693 60.6799 241.818 61.0852C241.947 61.4867 242.155 61.8125 242.443 62.0625C242.735 62.3125 243.129 62.4375 243.625 62.4375ZM256.7 55.2727V56.6364H251.933V55.2727H256.7ZM253.212 53.1818H254.911V61.4375C254.911 61.767 254.96 62.0152 255.058 62.1818C255.157 62.3447 255.284 62.4564 255.439 62.517C255.598 62.5739 255.77 62.6023 255.956 62.6023C256.092 62.6023 256.212 62.5928 256.314 62.5739C256.416 62.5549 256.496 62.5398 256.553 62.5284L256.859 63.9318C256.761 63.9697 256.621 64.0076 256.439 64.0455C256.257 64.0871 256.03 64.1098 255.757 64.1136C255.31 64.1212 254.893 64.0417 254.507 63.875C254.121 63.7083 253.808 63.4508 253.57 63.1023C253.331 62.7538 253.212 62.3163 253.212 61.7898V53.1818ZM262.247 64.1761C261.387 64.1761 260.647 63.9924 260.026 63.625C259.408 63.2538 258.931 62.733 258.594 62.0625C258.26 61.3883 258.094 60.5985 258.094 59.6932C258.094 58.7992 258.26 58.0114 258.594 57.3295C258.931 56.6477 259.401 56.1155 260.003 55.733C260.609 55.3504 261.317 55.1591 262.128 55.1591C262.62 55.1591 263.098 55.2405 263.56 55.4034C264.022 55.5663 264.437 55.822 264.804 56.1705C265.171 56.5189 265.461 56.9716 265.673 57.5284C265.885 58.0814 265.991 58.7538 265.991 59.5455V60.1477H259.054V58.875H264.327C264.327 58.428 264.236 58.0322 264.054 57.6875C263.872 57.339 263.616 57.0644 263.287 56.8636C262.961 56.6629 262.579 56.5625 262.139 56.5625C261.662 56.5625 261.245 56.6799 260.889 56.9148C260.537 57.1458 260.264 57.4489 260.071 57.8239C259.882 58.1951 259.787 58.5985 259.787 59.0341V60.0284C259.787 60.6117 259.889 61.108 260.094 61.517C260.302 61.9261 260.592 62.2386 260.963 62.4545C261.334 62.6667 261.768 62.7727 262.264 62.7727C262.586 62.7727 262.88 62.7273 263.145 62.6364C263.41 62.5417 263.639 62.4015 263.832 62.2159C264.026 62.0303 264.173 61.8011 264.276 61.5284L265.884 61.8182C265.755 62.2917 265.524 62.7064 265.19 63.0625C264.861 63.4148 264.446 63.6894 263.946 63.8864C263.45 64.0795 262.884 64.1761 262.247 64.1761ZM274.416 57.4034L272.876 57.6761C272.812 57.4792 272.71 57.2917 272.57 57.1136C272.433 56.9356 272.248 56.7898 272.013 56.6761C271.778 56.5625 271.484 56.5057 271.132 56.5057C270.651 56.5057 270.25 56.6136 269.928 56.8295C269.606 57.0417 269.445 57.3163 269.445 57.6534C269.445 57.9451 269.553 58.1799 269.768 58.358C269.984 58.536 270.333 58.6818 270.814 58.7955L272.2 59.1136C273.003 59.2992 273.602 59.5852 273.996 59.9716C274.39 60.358 274.587 60.8598 274.587 61.4773C274.587 62 274.435 62.4659 274.132 62.875C273.833 63.2803 273.414 63.5985 272.876 63.8295C272.342 64.0606 271.723 64.1761 271.018 64.1761C270.041 64.1761 269.244 63.9678 268.626 63.5511C268.009 63.1307 267.63 62.5341 267.49 61.7614L269.132 61.5114C269.234 61.9394 269.445 62.2633 269.763 62.483C270.081 62.6989 270.496 62.8068 271.007 62.8068C271.564 62.8068 272.009 62.6913 272.342 62.4602C272.676 62.2254 272.842 61.9394 272.842 61.6023C272.842 61.3295 272.74 61.1004 272.536 60.9148C272.335 60.7292 272.026 60.589 271.609 60.4943L270.132 60.1705C269.318 59.9848 268.715 59.6894 268.325 59.2841C267.939 58.8788 267.746 58.3655 267.746 57.7443C267.746 57.2292 267.89 56.7784 268.178 56.392C268.465 56.0057 268.863 55.7045 269.371 55.4886C269.878 55.2689 270.46 55.1591 271.115 55.1591C272.058 55.1591 272.801 55.3636 273.342 55.7727C273.884 56.178 274.242 56.7216 274.416 57.4034ZM280.528 55.2727V56.6364H275.761V55.2727H280.528ZM277.04 53.1818H278.739V61.4375C278.739 61.767 278.788 62.0152 278.886 62.1818C278.985 62.3447 279.112 62.4564 279.267 62.517C279.426 62.5739 279.598 62.6023 279.784 62.6023C279.92 62.6023 280.04 62.5928 280.142 62.5739C280.244 62.5549 280.324 62.5398 280.381 62.5284L280.688 63.9318C280.589 63.9697 280.449 64.0076 280.267 64.0455C280.085 64.0871 279.858 64.1098 279.585 64.1136C279.138 64.1212 278.722 64.0417 278.335 63.875C277.949 63.7083 277.636 63.4508 277.398 63.1023C277.159 62.7538 277.04 62.3163 277.04 61.7898V53.1818ZM282.408 64V55.2727H284.038V56.6932H284.146C284.328 56.2121 284.625 55.8371 285.038 55.5682C285.451 55.2955 285.946 55.1591 286.521 55.1591C287.105 55.1591 287.593 55.2955 287.987 55.5682C288.385 55.8409 288.679 56.2159 288.868 56.6932H288.959C289.167 56.2273 289.499 55.8561 289.953 55.5795C290.408 55.2992 290.949 55.1591 291.578 55.1591C292.37 55.1591 293.016 55.4072 293.516 55.9034C294.019 56.3996 294.271 57.1477 294.271 58.1477V64H292.572V58.3068C292.572 57.7159 292.411 57.2879 292.089 57.0227C291.768 56.7576 291.383 56.625 290.936 56.625C290.383 56.625 289.953 56.7955 289.646 57.1364C289.339 57.4735 289.186 57.9072 289.186 58.4375V64H287.493V58.1989C287.493 57.7254 287.345 57.3447 287.05 57.0568C286.754 56.7689 286.37 56.625 285.896 56.625C285.574 56.625 285.277 56.7102 285.004 56.8807C284.735 57.0473 284.518 57.2803 284.351 57.5795C284.188 57.8788 284.107 58.2254 284.107 58.6193V64H282.408ZM299.088 64.1932C298.535 64.1932 298.035 64.0909 297.588 63.8864C297.141 63.678 296.787 63.3769 296.526 62.983C296.268 62.589 296.139 62.1061 296.139 61.5341C296.139 61.0417 296.234 60.6364 296.423 60.3182C296.613 60 296.868 59.7481 297.19 59.5625C297.512 59.3769 297.872 59.2367 298.27 59.142C298.668 59.0473 299.073 58.9754 299.486 58.9261C300.009 58.8655 300.433 58.8163 300.759 58.7784C301.084 58.7367 301.321 58.6705 301.469 58.5795C301.616 58.4886 301.69 58.3409 301.69 58.1364V58.0966C301.69 57.6004 301.55 57.2159 301.27 56.9432C300.993 56.6705 300.58 56.5341 300.031 56.5341C299.459 56.5341 299.009 56.661 298.679 56.9148C298.353 57.1648 298.128 57.4432 298.003 57.75L296.406 57.3864C296.596 56.8561 296.872 56.428 297.236 56.1023C297.603 55.7727 298.026 55.5341 298.503 55.3864C298.98 55.2348 299.482 55.1591 300.009 55.1591C300.357 55.1591 300.726 55.2008 301.116 55.2841C301.51 55.3636 301.878 55.5114 302.219 55.7273C302.563 55.9432 302.846 56.2519 303.065 56.6534C303.285 57.0511 303.395 57.5682 303.395 58.2045V64H301.736V62.8068H301.668C301.558 63.0265 301.393 63.2424 301.173 63.4545C300.954 63.6667 300.671 63.8428 300.327 63.983C299.982 64.1231 299.569 64.1932 299.088 64.1932ZM299.457 62.8295C299.927 62.8295 300.329 62.7367 300.662 62.5511C300.999 62.3655 301.255 62.1231 301.429 61.8239C301.607 61.5208 301.696 61.197 301.696 60.8523V59.7273C301.635 59.7879 301.518 59.8447 301.344 59.8977C301.173 59.947 300.978 59.9905 300.759 60.0284C300.539 60.0625 300.325 60.0947 300.116 60.125C299.908 60.1515 299.734 60.1742 299.594 60.1932C299.264 60.2348 298.963 60.3049 298.69 60.4034C298.421 60.5019 298.205 60.6439 298.043 60.8295C297.884 61.0114 297.804 61.2538 297.804 61.5568C297.804 61.9773 297.959 62.2955 298.27 62.5114C298.58 62.7235 298.976 62.8295 299.457 62.8295ZM305.658 64V55.2727H307.357V64H305.658ZM306.516 53.9261C306.22 53.9261 305.966 53.8277 305.754 53.6307C305.546 53.4299 305.442 53.1913 305.442 52.9148C305.442 52.6345 305.546 52.3958 305.754 52.1989C305.966 51.9981 306.22 51.8977 306.516 51.8977C306.811 51.8977 307.063 51.9981 307.271 52.1989C307.483 52.3958 307.589 52.6345 307.589 52.9148C307.589 53.1913 307.483 53.4299 307.271 53.6307C307.063 53.8277 306.811 53.9261 306.516 53.9261ZM311.341 52.3636V64H309.642V52.3636H311.341ZM314.746 64.108C314.435 64.108 314.168 63.9981 313.945 63.7784C313.721 63.5549 313.609 63.286 313.609 62.9716C313.609 62.661 313.721 62.3958 313.945 62.1761C314.168 61.9527 314.435 61.8409 314.746 61.8409C315.056 61.8409 315.323 61.9527 315.547 62.1761C315.77 62.3958 315.882 62.661 315.882 62.9716C315.882 63.1799 315.829 63.3712 315.723 63.5455C315.621 63.7159 315.484 63.8523 315.314 63.9545C315.143 64.0568 314.954 64.108 314.746 64.108ZM321.834 64.1761C320.989 64.1761 320.262 63.9848 319.652 63.6023C319.046 63.2159 318.58 62.6837 318.254 62.0057C317.929 61.3277 317.766 60.5511 317.766 59.6761C317.766 58.7898 317.932 58.0076 318.266 57.3295C318.599 56.6477 319.069 56.1155 319.675 55.733C320.281 55.3504 320.995 55.1591 321.817 55.1591C322.48 55.1591 323.071 55.2822 323.589 55.5284C324.108 55.7708 324.527 56.1117 324.845 56.5511C325.167 56.9905 325.358 57.5038 325.419 58.0909H323.766C323.675 57.6818 323.466 57.3295 323.141 57.0341C322.819 56.7386 322.387 56.5909 321.845 56.5909C321.372 56.5909 320.957 56.7159 320.601 56.9659C320.249 57.2121 319.974 57.5644 319.777 58.0227C319.58 58.4773 319.482 59.0152 319.482 59.6364C319.482 60.2727 319.578 60.822 319.771 61.2841C319.964 61.7462 320.237 62.1042 320.589 62.358C320.946 62.6117 321.364 62.7386 321.845 62.7386C322.167 62.7386 322.459 62.6799 322.72 62.5625C322.985 62.4413 323.207 62.2689 323.385 62.0455C323.567 61.822 323.694 61.553 323.766 61.2386H325.419C325.358 61.803 325.175 62.3068 324.868 62.75C324.561 63.1932 324.15 63.5417 323.635 63.7955C323.124 64.0492 322.523 64.1761 321.834 64.1761ZM330.912 64.1761C330.094 64.1761 329.38 63.9886 328.77 63.6136C328.16 63.2386 327.687 62.714 327.349 62.0398C327.012 61.3655 326.844 60.5777 326.844 59.6761C326.844 58.7708 327.012 57.9792 327.349 57.3011C327.687 56.6231 328.16 56.0966 328.77 55.7216C329.38 55.3466 330.094 55.1591 330.912 55.1591C331.73 55.1591 332.444 55.3466 333.054 55.7216C333.664 56.0966 334.137 56.6231 334.474 57.3011C334.812 57.9792 334.98 58.7708 334.98 59.6761C334.98 60.5777 334.812 61.3655 334.474 62.0398C334.137 62.714 333.664 63.2386 333.054 63.6136C332.444 63.9886 331.73 64.1761 330.912 64.1761ZM330.918 62.75C331.448 62.75 331.887 62.6098 332.236 62.3295C332.584 62.0492 332.842 61.6761 333.009 61.2102C333.179 60.7443 333.264 60.2311 333.264 59.6705C333.264 59.1136 333.179 58.6023 333.009 58.1364C332.842 57.6667 332.584 57.2898 332.236 57.0057C331.887 56.7216 331.448 56.5795 330.918 56.5795C330.384 56.5795 329.94 56.7216 329.588 57.0057C329.24 57.2898 328.98 57.6667 328.81 58.1364C328.643 58.6023 328.56 59.1136 328.56 59.6705C328.56 60.2311 328.643 60.7443 328.81 61.2102C328.98 61.6761 329.24 62.0492 329.588 62.3295C329.94 62.6098 330.384 62.75 330.918 62.75ZM336.876 64V55.2727H338.507V56.6932H338.615C338.797 56.2121 339.094 55.8371 339.507 55.5682C339.92 55.2955 340.414 55.1591 340.99 55.1591C341.573 55.1591 342.062 55.2955 342.456 55.5682C342.854 55.8409 343.147 56.2159 343.337 56.6932H343.428C343.636 56.2273 343.967 55.8561 344.422 55.5795C344.876 55.2992 345.418 55.1591 346.047 55.1591C346.839 55.1591 347.484 55.4072 347.984 55.9034C348.488 56.3996 348.74 57.1477 348.74 58.1477V64H347.041V58.3068C347.041 57.7159 346.88 57.2879 346.558 57.0227C346.236 56.7576 345.852 56.625 345.405 56.625C344.852 56.625 344.422 56.7955 344.115 57.1364C343.808 57.4735 343.655 57.9072 343.655 58.4375V64H341.962V58.1989C341.962 57.7254 341.814 57.3447 341.518 57.0568C341.223 56.7689 340.839 56.625 340.365 56.625C340.043 56.625 339.746 56.7102 339.473 56.8807C339.204 57.0473 338.986 57.2803 338.82 57.5795C338.657 57.8788 338.575 58.2254 338.575 58.6193V64H336.876Z" fill="#0646C6"/>
<path d="M361.669 57.2567C361.258 56.8872 360.626 56.9205 360.257 57.331C359.887 57.7415 359.921 58.3738 360.331 58.7433L365.331 63.2433C365.711 63.5856 366.289 63.5856 366.669 63.2433L371.669 58.7433C372.079 58.3738 372.113 57.7415 371.743 57.331C371.374 56.9205 370.742 56.8872 370.331 57.2567L366 61.1546L361.669 57.2567Z" fill="#0646C6"/>
<rect x="414" y="36" width="170" height="48" rx="8" fill="#0055FF" fill-opacity="0.2"/>
<path d="M438.148 67.1648C436.973 67.1648 435.932 67.0038 435.023 66.6818C434.117 66.3636 433.354 65.8939 432.733 65.2727C432.112 64.6553 431.64 63.8977 431.318 63C430.996 62.1023 430.835 61.0777 430.835 59.9261C430.835 58.8049 430.998 57.7973 431.324 56.9034C431.65 56.0095 432.123 55.2481 432.744 54.6193C433.369 53.9867 434.129 53.5038 435.023 53.1705C435.917 52.8371 436.932 52.6705 438.068 52.6705C439.155 52.6705 440.114 52.8409 440.943 53.1818C441.773 53.5227 442.47 53.9905 443.034 54.5852C443.602 55.1799 444.03 55.8617 444.318 56.6307C444.606 57.3996 444.75 58.2121 444.75 59.0682C444.75 59.6667 444.712 60.2519 444.636 60.8239C444.561 61.392 444.42 61.9072 444.216 62.3693C444.015 62.8277 443.723 63.1951 443.341 63.4716C442.962 63.7443 442.47 63.8864 441.864 63.8977C441.542 63.9091 441.229 63.8712 440.926 63.7841C440.623 63.697 440.366 63.5568 440.153 63.3636C439.941 63.1667 439.813 62.9167 439.767 62.6136H439.699C439.608 62.8371 439.456 63.0455 439.244 63.2386C439.032 63.428 438.761 63.5795 438.432 63.6932C438.106 63.803 437.727 63.8485 437.295 63.8295C436.818 63.8106 436.388 63.7027 436.006 63.5057C435.623 63.3087 435.295 63.036 435.023 62.6875C434.754 62.339 434.547 61.9261 434.403 61.4489C434.259 60.9716 434.188 60.4413 434.188 59.858C434.188 59.2973 434.269 58.7955 434.432 58.3523C434.595 57.9053 434.816 57.5208 435.097 57.1989C435.381 56.8731 435.706 56.6155 436.074 56.4261C436.441 56.2367 436.83 56.1174 437.239 56.0682C437.636 56.0227 438.002 56.0341 438.335 56.1023C438.669 56.1705 438.945 56.2746 439.165 56.4148C439.388 56.5549 439.528 56.7083 439.585 56.875H439.659V56.2386H441.057V61.5114C441.057 61.8106 441.134 62.0644 441.29 62.2727C441.449 62.4811 441.674 62.5852 441.966 62.5852C442.311 62.5852 442.58 62.4583 442.773 62.2045C442.97 61.9508 443.108 61.5606 443.188 61.0341C443.271 60.5076 443.312 59.8333 443.312 59.0114C443.312 58.4356 443.235 57.8939 443.08 57.3864C442.928 56.875 442.703 56.4129 442.403 56C442.108 55.5833 441.744 55.2254 441.312 54.9261C440.881 54.6269 440.388 54.3958 439.835 54.233C439.286 54.0701 438.678 53.9886 438.011 53.9886C437.106 53.9886 436.301 54.1288 435.597 54.4091C434.892 54.6856 434.297 55.0852 433.812 55.608C433.331 56.1307 432.966 56.7576 432.716 57.4886C432.47 58.2159 432.347 59.0322 432.347 59.9375C432.347 60.8807 432.473 61.7178 432.727 62.4489C432.981 63.1761 433.356 63.7898 433.852 64.2898C434.348 64.7898 434.962 65.1686 435.693 65.4261C436.424 65.6875 437.267 65.8182 438.222 65.8182C438.646 65.8182 439.063 65.7803 439.472 65.7045C439.881 65.6326 440.244 65.5492 440.562 65.4545C440.884 65.3636 441.125 65.2898 441.284 65.233L441.682 66.4773C441.447 66.5871 441.134 66.6951 440.744 66.8011C440.358 66.9072 439.938 66.9943 439.483 67.0625C439.032 67.1307 438.587 67.1648 438.148 67.1648ZM437.625 62.4375C438.117 62.4375 438.513 62.339 438.812 62.142C439.116 61.9451 439.333 61.6515 439.466 61.2614C439.602 60.8674 439.67 60.375 439.67 59.7841C439.667 59.2083 439.593 58.75 439.449 58.4091C439.309 58.0644 439.089 57.8182 438.79 57.6705C438.494 57.5189 438.114 57.4432 437.648 57.4432C437.22 57.4432 436.854 57.5473 436.551 57.7557C436.252 57.964 436.023 58.2462 435.864 58.6023C435.708 58.9583 435.629 59.3542 435.625 59.7898C435.629 60.2481 435.693 60.6799 435.818 61.0852C435.947 61.4867 436.155 61.8125 436.443 62.0625C436.735 62.3125 437.129 62.4375 437.625 62.4375ZM450.7 55.2727V56.6364H445.933V55.2727H450.7ZM447.212 53.1818H448.911V61.4375C448.911 61.767 448.96 62.0152 449.058 62.1818C449.157 62.3447 449.284 62.4564 449.439 62.517C449.598 62.5739 449.77 62.6023 449.956 62.6023C450.092 62.6023 450.212 62.5928 450.314 62.5739C450.416 62.5549 450.496 62.5398 450.553 62.5284L450.859 63.9318C450.761 63.9697 450.621 64.0076 450.439 64.0455C450.257 64.0871 450.03 64.1098 449.757 64.1136C449.31 64.1212 448.893 64.0417 448.507 63.875C448.121 63.7083 447.808 63.4508 447.57 63.1023C447.331 62.7538 447.212 62.3163 447.212 61.7898V53.1818ZM456.247 64.1761C455.387 64.1761 454.647 63.9924 454.026 63.625C453.408 63.2538 452.931 62.733 452.594 62.0625C452.26 61.3883 452.094 60.5985 452.094 59.6932C452.094 58.7992 452.26 58.0114 452.594 57.3295C452.931 56.6477 453.401 56.1155 454.003 55.733C454.609 55.3504 455.317 55.1591 456.128 55.1591C456.62 55.1591 457.098 55.2405 457.56 55.4034C458.022 55.5663 458.437 55.822 458.804 56.1705C459.171 56.5189 459.461 56.9716 459.673 57.5284C459.885 58.0814 459.991 58.7538 459.991 59.5455V60.1477H453.054V58.875H458.327C458.327 58.428 458.236 58.0322 458.054 57.6875C457.872 57.339 457.616 57.0644 457.287 56.8636C456.961 56.6629 456.579 56.5625 456.139 56.5625C455.662 56.5625 455.245 56.6799 454.889 56.9148C454.537 57.1458 454.264 57.4489 454.071 57.8239C453.882 58.1951 453.787 58.5985 453.787 59.0341V60.0284C453.787 60.6117 453.889 61.108 454.094 61.517C454.302 61.9261 454.592 62.2386 454.963 62.4545C455.334 62.6667 455.768 62.7727 456.264 62.7727C456.586 62.7727 456.88 62.7273 457.145 62.6364C457.41 62.5417 457.639 62.4015 457.832 62.2159C458.026 62.0303 458.173 61.8011 458.276 61.5284L459.884 61.8182C459.755 62.2917 459.524 62.7064 459.19 63.0625C458.861 63.4148 458.446 63.6894 457.946 63.8864C457.45 64.0795 456.884 64.1761 456.247 64.1761ZM468.416 57.4034L466.876 57.6761C466.812 57.4792 466.71 57.2917 466.57 57.1136C466.433 56.9356 466.248 56.7898 466.013 56.6761C465.778 56.5625 465.484 56.5057 465.132 56.5057C464.651 56.5057 464.25 56.6136 463.928 56.8295C463.606 57.0417 463.445 57.3163 463.445 57.6534C463.445 57.9451 463.553 58.1799 463.768 58.358C463.984 58.536 464.333 58.6818 464.814 58.7955L466.2 59.1136C467.003 59.2992 467.602 59.5852 467.996 59.9716C468.39 60.358 468.587 60.8598 468.587 61.4773C468.587 62 468.435 62.4659 468.132 62.875C467.833 63.2803 467.414 63.5985 466.876 63.8295C466.342 64.0606 465.723 64.1761 465.018 64.1761C464.041 64.1761 463.244 63.9678 462.626 63.5511C462.009 63.1307 461.63 62.5341 461.49 61.7614L463.132 61.5114C463.234 61.9394 463.445 62.2633 463.763 62.483C464.081 62.6989 464.496 62.8068 465.007 62.8068C465.564 62.8068 466.009 62.6913 466.342 62.4602C466.676 62.2254 466.842 61.9394 466.842 61.6023C466.842 61.3295 466.74 61.1004 466.536 60.9148C466.335 60.7292 466.026 60.589 465.609 60.4943L464.132 60.1705C463.318 59.9848 462.715 59.6894 462.325 59.2841C461.939 58.8788 461.746 58.3655 461.746 57.7443C461.746 57.2292 461.89 56.7784 462.178 56.392C462.465 56.0057 462.863 55.7045 463.371 55.4886C463.878 55.2689 464.46 55.1591 465.115 55.1591C466.058 55.1591 466.801 55.3636 467.342 55.7727C467.884 56.178 468.242 56.7216 468.416 57.4034ZM474.528 55.2727V56.6364H469.761V55.2727H474.528ZM471.04 53.1818H472.739V61.4375C472.739 61.767 472.788 62.0152 472.886 62.1818C472.985 62.3447 473.112 62.4564 473.267 62.517C473.426 62.5739 473.598 62.6023 473.784 62.6023C473.92 62.6023 474.04 62.5928 474.142 62.5739C474.244 62.5549 474.324 62.5398 474.381 62.5284L474.688 63.9318C474.589 63.9697 474.449 64.0076 474.267 64.0455C474.085 64.0871 473.858 64.1098 473.585 64.1136C473.138 64.1212 472.722 64.0417 472.335 63.875C471.949 63.7083 471.636 63.4508 471.398 63.1023C471.159 62.7538 471.04 62.3163 471.04 61.7898V53.1818ZM476.408 64V55.2727H478.038V56.6932H478.146C478.328 56.2121 478.625 55.8371 479.038 55.5682C479.451 55.2955 479.946 55.1591 480.521 55.1591C481.105 55.1591 481.593 55.2955 481.987 55.5682C482.385 55.8409 482.679 56.2159 482.868 56.6932H482.959C483.167 56.2273 483.499 55.8561 483.953 55.5795C484.408 55.2992 484.949 55.1591 485.578 55.1591C486.37 55.1591 487.016 55.4072 487.516 55.9034C488.019 56.3996 488.271 57.1477 488.271 58.1477V64H486.572V58.3068C486.572 57.7159 486.411 57.2879 486.089 57.0227C485.768 56.7576 485.383 56.625 484.936 56.625C484.383 56.625 483.953 56.7955 483.646 57.1364C483.339 57.4735 483.186 57.9072 483.186 58.4375V64H481.493V58.1989C481.493 57.7254 481.345 57.3447 481.05 57.0568C480.754 56.7689 480.37 56.625 479.896 56.625C479.574 56.625 479.277 56.7102 479.004 56.8807C478.735 57.0473 478.518 57.2803 478.351 57.5795C478.188 57.8788 478.107 58.2254 478.107 58.6193V64H476.408ZM493.088 64.1932C492.535 64.1932 492.035 64.0909 491.588 63.8864C491.141 63.678 490.787 63.3769 490.526 62.983C490.268 62.589 490.139 62.1061 490.139 61.5341C490.139 61.0417 490.234 60.6364 490.423 60.3182C490.613 60 490.868 59.7481 491.19 59.5625C491.512 59.3769 491.872 59.2367 492.27 59.142C492.668 59.0473 493.073 58.9754 493.486 58.9261C494.009 58.8655 494.433 58.8163 494.759 58.7784C495.084 58.7367 495.321 58.6705 495.469 58.5795C495.616 58.4886 495.69 58.3409 495.69 58.1364V58.0966C495.69 57.6004 495.55 57.2159 495.27 56.9432C494.993 56.6705 494.58 56.5341 494.031 56.5341C493.459 56.5341 493.009 56.661 492.679 56.9148C492.353 57.1648 492.128 57.4432 492.003 57.75L490.406 57.3864C490.596 56.8561 490.872 56.428 491.236 56.1023C491.603 55.7727 492.026 55.5341 492.503 55.3864C492.98 55.2348 493.482 55.1591 494.009 55.1591C494.357 55.1591 494.726 55.2008 495.116 55.2841C495.51 55.3636 495.878 55.5114 496.219 55.7273C496.563 55.9432 496.846 56.2519 497.065 56.6534C497.285 57.0511 497.395 57.5682 497.395 58.2045V64H495.736V62.8068H495.668C495.558 63.0265 495.393 63.2424 495.173 63.4545C494.954 63.6667 494.671 63.8428 494.327 63.983C493.982 64.1231 493.569 64.1932 493.088 64.1932ZM493.457 62.8295C493.927 62.8295 494.329 62.7367 494.662 62.5511C494.999 62.3655 495.255 62.1231 495.429 61.8239C495.607 61.5208 495.696 61.197 495.696 60.8523V59.7273C495.635 59.7879 495.518 59.8447 495.344 59.8977C495.173 59.947 494.978 59.9905 494.759 60.0284C494.539 60.0625 494.325 60.0947 494.116 60.125C493.908 60.1515 493.734 60.1742 493.594 60.1932C493.264 60.2348 492.963 60.3049 492.69 60.4034C492.421 60.5019 492.205 60.6439 492.043 60.8295C491.884 61.0114 491.804 61.2538 491.804 61.5568C491.804 61.9773 491.959 62.2955 492.27 62.5114C492.58 62.7235 492.976 62.8295 493.457 62.8295ZM499.658 64V55.2727H501.357V64H499.658ZM500.516 53.9261C500.22 53.9261 499.966 53.8277 499.754 53.6307C499.546 53.4299 499.442 53.1913 499.442 52.9148C499.442 52.6345 499.546 52.3958 499.754 52.1989C499.966 51.9981 500.22 51.8977 500.516 51.8977C500.811 51.8977 501.063 51.9981 501.271 52.1989C501.483 52.3958 501.589 52.6345 501.589 52.9148C501.589 53.1913 501.483 53.4299 501.271 53.6307C501.063 53.8277 500.811 53.9261 500.516 53.9261ZM505.341 52.3636V64H503.642V52.3636H505.341ZM508.746 64.108C508.435 64.108 508.168 63.9981 507.945 63.7784C507.721 63.5549 507.609 63.286 507.609 62.9716C507.609 62.661 507.721 62.3958 507.945 62.1761C508.168 61.9527 508.435 61.8409 508.746 61.8409C509.056 61.8409 509.323 61.9527 509.547 62.1761C509.77 62.3958 509.882 62.661 509.882 62.9716C509.882 63.1799 509.829 63.3712 509.723 63.5455C509.621 63.7159 509.484 63.8523 509.314 63.9545C509.143 64.0568 508.954 64.108 508.746 64.108ZM515.834 64.1761C514.989 64.1761 514.262 63.9848 513.652 63.6023C513.046 63.2159 512.58 62.6837 512.254 62.0057C511.929 61.3277 511.766 60.5511 511.766 59.6761C511.766 58.7898 511.932 58.0076 512.266 57.3295C512.599 56.6477 513.069 56.1155 513.675 55.733C514.281 55.3504 514.995 55.1591 515.817 55.1591C516.48 55.1591 517.071 55.2822 517.589 55.5284C518.108 55.7708 518.527 56.1117 518.845 56.5511C519.167 56.9905 519.358 57.5038 519.419 58.0909H517.766C517.675 57.6818 517.466 57.3295 517.141 57.0341C516.819 56.7386 516.387 56.5909 515.845 56.5909C515.372 56.5909 514.957 56.7159 514.601 56.9659C514.249 57.2121 513.974 57.5644 513.777 58.0227C513.58 58.4773 513.482 59.0152 513.482 59.6364C513.482 60.2727 513.578 60.822 513.771 61.2841C513.964 61.7462 514.237 62.1042 514.589 62.358C514.946 62.6117 515.364 62.7386 515.845 62.7386C516.167 62.7386 516.459 62.6799 516.72 62.5625C516.985 62.4413 517.207 62.2689 517.385 62.0455C517.567 61.822 517.694 61.553 517.766 61.2386H519.419C519.358 61.803 519.175 62.3068 518.868 62.75C518.561 63.1932 518.15 63.5417 517.635 63.7955C517.124 64.0492 516.523 64.1761 515.834 64.1761ZM524.912 64.1761C524.094 64.1761 523.38 63.9886 522.77 63.6136C522.16 63.2386 521.687 62.714 521.349 62.0398C521.012 61.3655 520.844 60.5777 520.844 59.6761C520.844 58.7708 521.012 57.9792 521.349 57.3011C521.687 56.6231 522.16 56.0966 522.77 55.7216C523.38 55.3466 524.094 55.1591 524.912 55.1591C525.73 55.1591 526.444 55.3466 527.054 55.7216C527.664 56.0966 528.137 56.6231 528.474 57.3011C528.812 57.9792 528.98 58.7708 528.98 59.6761C528.98 60.5777 528.812 61.3655 528.474 62.0398C528.137 62.714 527.664 63.2386 527.054 63.6136C526.444 63.9886 525.73 64.1761 524.912 64.1761ZM524.918 62.75C525.448 62.75 525.887 62.6098 526.236 62.3295C526.584 62.0492 526.842 61.6761 527.009 61.2102C527.179 60.7443 527.264 60.2311 527.264 59.6705C527.264 59.1136 527.179 58.6023 527.009 58.1364C526.842 57.6667 526.584 57.2898 526.236 57.0057C525.887 56.7216 525.448 56.5795 524.918 56.5795C524.384 56.5795 523.94 56.7216 523.588 57.0057C523.24 57.2898 522.98 57.6667 522.81 58.1364C522.643 58.6023 522.56 59.1136 522.56 59.6705C522.56 60.2311 522.643 60.7443 522.81 61.2102C522.98 61.6761 523.24 62.0492 523.588 62.3295C523.94 62.6098 524.384 62.75 524.918 62.75ZM530.876 64V55.2727H532.507V56.6932H532.615C532.797 56.2121 533.094 55.8371 533.507 55.5682C533.92 55.2955 534.414 55.1591 534.99 55.1591C535.573 55.1591 536.062 55.2955 536.456 55.5682C536.854 55.8409 537.147 56.2159 537.337 56.6932H537.428C537.636 56.2273 537.967 55.8561 538.422 55.5795C538.876 55.2992 539.418 55.1591 540.047 55.1591C540.839 55.1591 541.484 55.4072 541.984 55.9034C542.488 56.3996 542.74 57.1477 542.74 58.1477V64H541.041V58.3068C541.041 57.7159 540.88 57.2879 540.558 57.0227C540.236 56.7576 539.852 56.625 539.405 56.625C538.852 56.625 538.422 56.7955 538.115 57.1364C537.808 57.4735 537.655 57.9072 537.655 58.4375V64H535.962V58.1989C535.962 57.7254 535.814 57.3447 535.518 57.0568C535.223 56.7689 534.839 56.625 534.365 56.625C534.043 56.625 533.746 56.7102 533.473 56.8807C533.204 57.0473 532.986 57.2803 532.82 57.5795C532.657 57.8788 532.575 58.2254 532.575 58.6193V64H530.876Z" fill="#0858F7"/>
<path d="M555.669 57.2567C555.258 56.8872 554.626 56.9205 554.257 57.331C553.887 57.7415 553.921 58.3738 554.331 58.7433L559.331 63.2433C559.711 63.5856 560.289 63.5856 560.669 63.2433L565.669 58.7433C566.079 58.3738 566.113 57.7415 565.743 57.331C565.374 56.9205 564.742 56.8872 564.331 57.2567L560 61.1546L555.669 57.2567Z" fill="#0858F7"/>
<rect x="220" y="98" width="170" height="48" rx="8" fill="#0055FF" fill-opacity="0.1"/>
<path d="M244.148 129.165C242.973 129.165 241.932 129.004 241.023 128.682C240.117 128.364 239.354 127.894 238.733 127.273C238.112 126.655 237.64 125.898 237.318 125C236.996 124.102 236.835 123.078 236.835 121.926C236.835 120.805 236.998 119.797 237.324 118.903C237.65 118.009 238.123 117.248 238.744 116.619C239.369 115.987 240.129 115.504 241.023 115.17C241.917 114.837 242.932 114.67 244.068 114.67C245.155 114.67 246.114 114.841 246.943 115.182C247.773 115.523 248.47 115.991 249.034 116.585C249.602 117.18 250.03 117.862 250.318 118.631C250.606 119.4 250.75 120.212 250.75 121.068C250.75 121.667 250.712 122.252 250.636 122.824C250.561 123.392 250.42 123.907 250.216 124.369C250.015 124.828 249.723 125.195 249.341 125.472C248.962 125.744 248.47 125.886 247.864 125.898C247.542 125.909 247.229 125.871 246.926 125.784C246.623 125.697 246.366 125.557 246.153 125.364C245.941 125.167 245.813 124.917 245.767 124.614H245.699C245.608 124.837 245.456 125.045 245.244 125.239C245.032 125.428 244.761 125.58 244.432 125.693C244.106 125.803 243.727 125.848 243.295 125.83C242.818 125.811 242.388 125.703 242.006 125.506C241.623 125.309 241.295 125.036 241.023 124.688C240.754 124.339 240.547 123.926 240.403 123.449C240.259 122.972 240.188 122.441 240.188 121.858C240.188 121.297 240.269 120.795 240.432 120.352C240.595 119.905 240.816 119.521 241.097 119.199C241.381 118.873 241.706 118.616 242.074 118.426C242.441 118.237 242.83 118.117 243.239 118.068C243.636 118.023 244.002 118.034 244.335 118.102C244.669 118.17 244.945 118.275 245.165 118.415C245.388 118.555 245.528 118.708 245.585 118.875H245.659V118.239H247.057V123.511C247.057 123.811 247.134 124.064 247.29 124.273C247.449 124.481 247.674 124.585 247.966 124.585C248.311 124.585 248.58 124.458 248.773 124.205C248.97 123.951 249.108 123.561 249.188 123.034C249.271 122.508 249.312 121.833 249.312 121.011C249.312 120.436 249.235 119.894 249.08 119.386C248.928 118.875 248.703 118.413 248.403 118C248.108 117.583 247.744 117.225 247.312 116.926C246.881 116.627 246.388 116.396 245.835 116.233C245.286 116.07 244.678 115.989 244.011 115.989C243.106 115.989 242.301 116.129 241.597 116.409C240.892 116.686 240.297 117.085 239.812 117.608C239.331 118.131 238.966 118.758 238.716 119.489C238.47 120.216 238.347 121.032 238.347 121.938C238.347 122.881 238.473 123.718 238.727 124.449C238.981 125.176 239.356 125.79 239.852 126.29C240.348 126.79 240.962 127.169 241.693 127.426C242.424 127.688 243.267 127.818 244.222 127.818C244.646 127.818 245.063 127.78 245.472 127.705C245.881 127.633 246.244 127.549 246.562 127.455C246.884 127.364 247.125 127.29 247.284 127.233L247.682 128.477C247.447 128.587 247.134 128.695 246.744 128.801C246.358 128.907 245.938 128.994 245.483 129.062C245.032 129.131 244.587 129.165 244.148 129.165ZM243.625 124.438C244.117 124.438 244.513 124.339 244.812 124.142C245.116 123.945 245.333 123.652 245.466 123.261C245.602 122.867 245.67 122.375 245.67 121.784C245.667 121.208 245.593 120.75 245.449 120.409C245.309 120.064 245.089 119.818 244.79 119.67C244.494 119.519 244.114 119.443 243.648 119.443C243.22 119.443 242.854 119.547 242.551 119.756C242.252 119.964 242.023 120.246 241.864 120.602C241.708 120.958 241.629 121.354 241.625 121.79C241.629 122.248 241.693 122.68 241.818 123.085C241.947 123.487 242.155 123.812 242.443 124.062C242.735 124.312 243.129 124.438 243.625 124.438ZM256.7 117.273V118.636H251.933V117.273H256.7ZM253.212 115.182H254.911V123.438C254.911 123.767 254.96 124.015 255.058 124.182C255.157 124.345 255.284 124.456 255.439 124.517C255.598 124.574 255.77 124.602 255.956 124.602C256.092 124.602 256.212 124.593 256.314 124.574C256.416 124.555 256.496 124.54 256.553 124.528L256.859 125.932C256.761 125.97 256.621 126.008 256.439 126.045C256.257 126.087 256.03 126.11 255.757 126.114C255.31 126.121 254.893 126.042 254.507 125.875C254.121 125.708 253.808 125.451 253.57 125.102C253.331 124.754 253.212 124.316 253.212 123.79V115.182ZM262.247 126.176C261.387 126.176 260.647 125.992 260.026 125.625C259.408 125.254 258.931 124.733 258.594 124.062C258.26 123.388 258.094 122.598 258.094 121.693C258.094 120.799 258.26 120.011 258.594 119.33C258.931 118.648 259.401 118.116 260.003 117.733C260.609 117.35 261.317 117.159 262.128 117.159C262.62 117.159 263.098 117.241 263.56 117.403C264.022 117.566 264.437 117.822 264.804 118.17C265.171 118.519 265.461 118.972 265.673 119.528C265.885 120.081 265.991 120.754 265.991 121.545V122.148H259.054V120.875H264.327C264.327 120.428 264.236 120.032 264.054 119.688C263.872 119.339 263.616 119.064 263.287 118.864C262.961 118.663 262.579 118.562 262.139 118.562C261.662 118.562 261.245 118.68 260.889 118.915C260.537 119.146 260.264 119.449 260.071 119.824C259.882 120.195 259.787 120.598 259.787 121.034V122.028C259.787 122.612 259.889 123.108 260.094 123.517C260.302 123.926 260.592 124.239 260.963 124.455C261.334 124.667 261.768 124.773 262.264 124.773C262.586 124.773 262.88 124.727 263.145 124.636C263.41 124.542 263.639 124.402 263.832 124.216C264.026 124.03 264.173 123.801 264.276 123.528L265.884 123.818C265.755 124.292 265.524 124.706 265.19 125.062C264.861 125.415 264.446 125.689 263.946 125.886C263.45 126.08 262.884 126.176 262.247 126.176ZM274.416 119.403L272.876 119.676C272.812 119.479 272.71 119.292 272.57 119.114C272.433 118.936 272.248 118.79 272.013 118.676C271.778 118.562 271.484 118.506 271.132 118.506C270.651 118.506 270.25 118.614 269.928 118.83C269.606 119.042 269.445 119.316 269.445 119.653C269.445 119.945 269.553 120.18 269.768 120.358C269.984 120.536 270.333 120.682 270.814 120.795L272.2 121.114C273.003 121.299 273.602 121.585 273.996 121.972C274.39 122.358 274.587 122.86 274.587 123.477C274.587 124 274.435 124.466 274.132 124.875C273.833 125.28 273.414 125.598 272.876 125.83C272.342 126.061 271.723 126.176 271.018 126.176C270.041 126.176 269.244 125.968 268.626 125.551C268.009 125.131 267.63 124.534 267.49 123.761L269.132 123.511C269.234 123.939 269.445 124.263 269.763 124.483C270.081 124.699 270.496 124.807 271.007 124.807C271.564 124.807 272.009 124.691 272.342 124.46C272.676 124.225 272.842 123.939 272.842 123.602C272.842 123.33 272.74 123.1 272.536 122.915C272.335 122.729 272.026 122.589 271.609 122.494L270.132 122.17C269.318 121.985 268.715 121.689 268.325 121.284C267.939 120.879 267.746 120.366 267.746 119.744C267.746 119.229 267.89 118.778 268.178 118.392C268.465 118.006 268.863 117.705 269.371 117.489C269.878 117.269 270.46 117.159 271.115 117.159C272.058 117.159 272.801 117.364 273.342 117.773C273.884 118.178 274.242 118.722 274.416 119.403ZM280.528 117.273V118.636H275.761V117.273H280.528ZM277.04 115.182H278.739V123.438C278.739 123.767 278.788 124.015 278.886 124.182C278.985 124.345 279.112 124.456 279.267 124.517C279.426 124.574 279.598 124.602 279.784 124.602C279.92 124.602 280.04 124.593 280.142 124.574C280.244 124.555 280.324 124.54 280.381 124.528L280.688 125.932C280.589 125.97 280.449 126.008 280.267 126.045C280.085 126.087 279.858 126.11 279.585 126.114C279.138 126.121 278.722 126.042 278.335 125.875C277.949 125.708 277.636 125.451 277.398 125.102C277.159 124.754 277.04 124.316 277.04 123.79V115.182ZM282.408 126V117.273H284.038V118.693H284.146C284.328 118.212 284.625 117.837 285.038 117.568C285.451 117.295 285.946 117.159 286.521 117.159C287.105 117.159 287.593 117.295 287.987 117.568C288.385 117.841 288.679 118.216 288.868 118.693H288.959C289.167 118.227 289.499 117.856 289.953 117.58C290.408 117.299 290.949 117.159 291.578 117.159C292.37 117.159 293.016 117.407 293.516 117.903C294.019 118.4 294.271 119.148 294.271 120.148V126H292.572V120.307C292.572 119.716 292.411 119.288 292.089 119.023C291.768 118.758 291.383 118.625 290.936 118.625C290.383 118.625 289.953 118.795 289.646 119.136C289.339 119.473 289.186 119.907 289.186 120.438V126H287.493V120.199C287.493 119.725 287.345 119.345 287.05 119.057C286.754 118.769 286.37 118.625 285.896 118.625C285.574 118.625 285.277 118.71 285.004 118.881C284.735 119.047 284.518 119.28 284.351 119.58C284.188 119.879 284.107 120.225 284.107 120.619V126H282.408ZM299.088 126.193C298.535 126.193 298.035 126.091 297.588 125.886C297.141 125.678 296.787 125.377 296.526 124.983C296.268 124.589 296.139 124.106 296.139 123.534C296.139 123.042 296.234 122.636 296.423 122.318C296.613 122 296.868 121.748 297.19 121.562C297.512 121.377 297.872 121.237 298.27 121.142C298.668 121.047 299.073 120.975 299.486 120.926C300.009 120.866 300.433 120.816 300.759 120.778C301.084 120.737 301.321 120.67 301.469 120.58C301.616 120.489 301.69 120.341 301.69 120.136V120.097C301.69 119.6 301.55 119.216 301.27 118.943C300.993 118.67 300.58 118.534 300.031 118.534C299.459 118.534 299.009 118.661 298.679 118.915C298.353 119.165 298.128 119.443 298.003 119.75L296.406 119.386C296.596 118.856 296.872 118.428 297.236 118.102C297.603 117.773 298.026 117.534 298.503 117.386C298.98 117.235 299.482 117.159 300.009 117.159C300.357 117.159 300.726 117.201 301.116 117.284C301.51 117.364 301.878 117.511 302.219 117.727C302.563 117.943 302.846 118.252 303.065 118.653C303.285 119.051 303.395 119.568 303.395 120.205V126H301.736V124.807H301.668C301.558 125.027 301.393 125.242 301.173 125.455C300.954 125.667 300.671 125.843 300.327 125.983C299.982 126.123 299.569 126.193 299.088 126.193ZM299.457 124.83C299.927 124.83 300.329 124.737 300.662 124.551C300.999 124.366 301.255 124.123 301.429 123.824C301.607 123.521 301.696 123.197 301.696 122.852V121.727C301.635 121.788 301.518 121.845 301.344 121.898C301.173 121.947 300.978 121.991 300.759 122.028C300.539 122.062 300.325 122.095 300.116 122.125C299.908 122.152 299.734 122.174 299.594 122.193C299.264 122.235 298.963 122.305 298.69 122.403C298.421 122.502 298.205 122.644 298.043 122.83C297.884 123.011 297.804 123.254 297.804 123.557C297.804 123.977 297.959 124.295 298.27 124.511C298.58 124.723 298.976 124.83 299.457 124.83ZM305.658 126V117.273H307.357V126H305.658ZM306.516 115.926C306.22 115.926 305.966 115.828 305.754 115.631C305.546 115.43 305.442 115.191 305.442 114.915C305.442 114.634 305.546 114.396 305.754 114.199C305.966 113.998 306.22 113.898 306.516 113.898C306.811 113.898 307.063 113.998 307.271 114.199C307.483 114.396 307.589 114.634 307.589 114.915C307.589 115.191 307.483 115.43 307.271 115.631C307.063 115.828 306.811 115.926 306.516 115.926ZM311.341 114.364V126H309.642V114.364H311.341ZM314.746 126.108C314.435 126.108 314.168 125.998 313.945 125.778C313.721 125.555 313.609 125.286 313.609 124.972C313.609 124.661 313.721 124.396 313.945 124.176C314.168 123.953 314.435 123.841 314.746 123.841C315.056 123.841 315.323 123.953 315.547 124.176C315.77 124.396 315.882 124.661 315.882 124.972C315.882 125.18 315.829 125.371 315.723 125.545C315.621 125.716 315.484 125.852 315.314 125.955C315.143 126.057 314.954 126.108 314.746 126.108ZM321.834 126.176C320.989 126.176 320.262 125.985 319.652 125.602C319.046 125.216 318.58 124.684 318.254 124.006C317.929 123.328 317.766 122.551 317.766 121.676C317.766 120.79 317.932 120.008 318.266 119.33C318.599 118.648 319.069 118.116 319.675 117.733C320.281 117.35 320.995 117.159 321.817 117.159C322.48 117.159 323.071 117.282 323.589 117.528C324.108 117.771 324.527 118.112 324.845 118.551C325.167 118.991 325.358 119.504 325.419 120.091H323.766C323.675 119.682 323.466 119.33 323.141 119.034C322.819 118.739 322.387 118.591 321.845 118.591C321.372 118.591 320.957 118.716 320.601 118.966C320.249 119.212 319.974 119.564 319.777 120.023C319.58 120.477 319.482 121.015 319.482 121.636C319.482 122.273 319.578 122.822 319.771 123.284C319.964 123.746 320.237 124.104 320.589 124.358C320.946 124.612 321.364 124.739 321.845 124.739C322.167 124.739 322.459 124.68 322.72 124.562C322.985 124.441 323.207 124.269 323.385 124.045C323.567 123.822 323.694 123.553 323.766 123.239H325.419C325.358 123.803 325.175 124.307 324.868 124.75C324.561 125.193 324.15 125.542 323.635 125.795C323.124 126.049 322.523 126.176 321.834 126.176ZM330.912 126.176C330.094 126.176 329.38 125.989 328.77 125.614C328.16 125.239 327.687 124.714 327.349 124.04C327.012 123.366 326.844 122.578 326.844 121.676C326.844 120.771 327.012 119.979 327.349 119.301C327.687 118.623 328.16 118.097 328.77 117.722C329.38 117.347 330.094 117.159 330.912 117.159C331.73 117.159 332.444 117.347 333.054 117.722C333.664 118.097 334.137 118.623 334.474 119.301C334.812 119.979 334.98 120.771 334.98 121.676C334.98 122.578 334.812 123.366 334.474 124.04C334.137 124.714 333.664 125.239 333.054 125.614C332.444 125.989 331.73 126.176 330.912 126.176ZM330.918 124.75C331.448 124.75 331.887 124.61 332.236 124.33C332.584 124.049 332.842 123.676 333.009 123.21C333.179 122.744 333.264 122.231 333.264 121.67C333.264 121.114 333.179 120.602 333.009 120.136C332.842 119.667 332.584 119.29 332.236 119.006C331.887 118.722 331.448 118.58 330.918 118.58C330.384 118.58 329.94 118.722 329.588 119.006C329.24 119.29 328.98 119.667 328.81 120.136C328.643 120.602 328.56 121.114 328.56 121.67C328.56 122.231 328.643 122.744 328.81 123.21C328.98 123.676 329.24 124.049 329.588 124.33C329.94 124.61 330.384 124.75 330.918 124.75ZM336.876 126V117.273H338.507V118.693H338.615C338.797 118.212 339.094 117.837 339.507 117.568C339.92 117.295 340.414 117.159 340.99 117.159C341.573 117.159 342.062 117.295 342.456 117.568C342.854 117.841 343.147 118.216 343.337 118.693H343.428C343.636 118.227 343.967 117.856 344.422 117.58C344.876 117.299 345.418 117.159 346.047 117.159C346.839 117.159 347.484 117.407 347.984 117.903C348.488 118.4 348.74 119.148 348.74 120.148V126H347.041V120.307C347.041 119.716 346.88 119.288 346.558 119.023C346.236 118.758 345.852 118.625 345.405 118.625C344.852 118.625 344.422 118.795 344.115 119.136C343.808 119.473 343.655 119.907 343.655 120.438V126H341.962V120.199C341.962 119.725 341.814 119.345 341.518 119.057C341.223 118.769 340.839 118.625 340.365 118.625C340.043 118.625 339.746 118.71 339.473 118.881C339.204 119.047 338.986 119.28 338.82 119.58C338.657 119.879 338.575 120.225 338.575 120.619V126H336.876Z" fill="#0646C6"/>
<path d="M361.669 119.257C361.258 118.887 360.626 118.921 360.257 119.331C359.887 119.742 359.921 120.374 360.331 120.743L365.331 125.243C365.711 125.586 366.289 125.586 366.669 125.243L371.669 120.743C372.079 120.374 372.113 119.742 371.743 119.331C371.374 118.921 370.742 118.887 370.331 119.257L366 123.155L361.669 119.257Z" fill="#0646C6"/>
<rect x="414" y="98" width="170" height="48" rx="8" fill="#0055FF" fill-opacity="0.2"/>
<path d="M438.148 129.165C436.973 129.165 435.932 129.004 435.023 128.682C434.117 128.364 433.354 127.894 432.733 127.273C432.112 126.655 431.64 125.898 431.318 125C430.996 124.102 430.835 123.078 430.835 121.926C430.835 120.805 430.998 119.797 431.324 118.903C431.65 118.009 432.123 117.248 432.744 116.619C433.369 115.987 434.129 115.504 435.023 115.17C435.917 114.837 436.932 114.67 438.068 114.67C439.155 114.67 440.114 114.841 440.943 115.182C441.773 115.523 442.47 115.991 443.034 116.585C443.602 117.18 444.03 117.862 444.318 118.631C444.606 119.4 444.75 120.212 444.75 121.068C444.75 121.667 444.712 122.252 444.636 122.824C444.561 123.392 444.42 123.907 444.216 124.369C444.015 124.828 443.723 125.195 443.341 125.472C442.962 125.744 442.47 125.886 441.864 125.898C441.542 125.909 441.229 125.871 440.926 125.784C440.623 125.697 440.366 125.557 440.153 125.364C439.941 125.167 439.813 124.917 439.767 124.614H439.699C439.608 124.837 439.456 125.045 439.244 125.239C439.032 125.428 438.761 125.58 438.432 125.693C438.106 125.803 437.727 125.848 437.295 125.83C436.818 125.811 436.388 125.703 436.006 125.506C435.623 125.309 435.295 125.036 435.023 124.688C434.754 124.339 434.547 123.926 434.403 123.449C434.259 122.972 434.188 122.441 434.188 121.858C434.188 121.297 434.269 120.795 434.432 120.352C434.595 119.905 434.816 119.521 435.097 119.199C435.381 118.873 435.706 118.616 436.074 118.426C436.441 118.237 436.83 118.117 437.239 118.068C437.636 118.023 438.002 118.034 438.335 118.102C438.669 118.17 438.945 118.275 439.165 118.415C439.388 118.555 439.528 118.708 439.585 118.875H439.659V118.239H441.057V123.511C441.057 123.811 441.134 124.064 441.29 124.273C441.449 124.481 441.674 124.585 441.966 124.585C442.311 124.585 442.58 124.458 442.773 124.205C442.97 123.951 443.108 123.561 443.188 123.034C443.271 122.508 443.312 121.833 443.312 121.011C443.312 120.436 443.235 119.894 443.08 119.386C442.928 118.875 442.703 118.413 442.403 118C442.108 117.583 441.744 117.225 441.312 116.926C440.881 116.627 440.388 116.396 439.835 116.233C439.286 116.07 438.678 115.989 438.011 115.989C437.106 115.989 436.301 116.129 435.597 116.409C434.892 116.686 434.297 117.085 433.812 117.608C433.331 118.131 432.966 118.758 432.716 119.489C432.47 120.216 432.347 121.032 432.347 121.938C432.347 122.881 432.473 123.718 432.727 124.449C432.981 125.176 433.356 125.79 433.852 126.29C434.348 126.79 434.962 127.169 435.693 127.426C436.424 127.688 437.267 127.818 438.222 127.818C438.646 127.818 439.063 127.78 439.472 127.705C439.881 127.633 440.244 127.549 440.562 127.455C440.884 127.364 441.125 127.29 441.284 127.233L441.682 128.477C441.447 128.587 441.134 128.695 440.744 128.801C440.358 128.907 439.938 128.994 439.483 129.062C439.032 129.131 438.587 129.165 438.148 129.165ZM437.625 124.438C438.117 124.438 438.513 124.339 438.812 124.142C439.116 123.945 439.333 123.652 439.466 123.261C439.602 122.867 439.67 122.375 439.67 121.784C439.667 121.208 439.593 120.75 439.449 120.409C439.309 120.064 439.089 119.818 438.79 119.67C438.494 119.519 438.114 119.443 437.648 119.443C437.22 119.443 436.854 119.547 436.551 119.756C436.252 119.964 436.023 120.246 435.864 120.602C435.708 120.958 435.629 121.354 435.625 121.79C435.629 122.248 435.693 122.68 435.818 123.085C435.947 123.487 436.155 123.812 436.443 124.062C436.735 124.312 437.129 124.438 437.625 124.438ZM450.7 117.273V118.636H445.933V117.273H450.7ZM447.212 115.182H448.911V123.438C448.911 123.767 448.96 124.015 449.058 124.182C449.157 124.345 449.284 124.456 449.439 124.517C449.598 124.574 449.77 124.602 449.956 124.602C450.092 124.602 450.212 124.593 450.314 124.574C450.416 124.555 450.496 124.54 450.553 124.528L450.859 125.932C450.761 125.97 450.621 126.008 450.439 126.045C450.257 126.087 450.03 126.11 449.757 126.114C449.31 126.121 448.893 126.042 448.507 125.875C448.121 125.708 447.808 125.451 447.57 125.102C447.331 124.754 447.212 124.316 447.212 123.79V115.182ZM456.247 126.176C455.387 126.176 454.647 125.992 454.026 125.625C453.408 125.254 452.931 124.733 452.594 124.062C452.26 123.388 452.094 122.598 452.094 121.693C452.094 120.799 452.26 120.011 452.594 119.33C452.931 118.648 453.401 118.116 454.003 117.733C454.609 117.35 455.317 117.159 456.128 117.159C456.62 117.159 457.098 117.241 457.56 117.403C458.022 117.566 458.437 117.822 458.804 118.17C459.171 118.519 459.461 118.972 459.673 119.528C459.885 120.081 459.991 120.754 459.991 121.545V122.148H453.054V120.875H458.327C458.327 120.428 458.236 120.032 458.054 119.688C457.872 119.339 457.616 119.064 457.287 118.864C456.961 118.663 456.579 118.562 456.139 118.562C455.662 118.562 455.245 118.68 454.889 118.915C454.537 119.146 454.264 119.449 454.071 119.824C453.882 120.195 453.787 120.598 453.787 121.034V122.028C453.787 122.612 453.889 123.108 454.094 123.517C454.302 123.926 454.592 124.239 454.963 124.455C455.334 124.667 455.768 124.773 456.264 124.773C456.586 124.773 456.88 124.727 457.145 124.636C457.41 124.542 457.639 124.402 457.832 124.216C458.026 124.03 458.173 123.801 458.276 123.528L459.884 123.818C459.755 124.292 459.524 124.706 459.19 125.062C458.861 125.415 458.446 125.689 457.946 125.886C457.45 126.08 456.884 126.176 456.247 126.176ZM468.416 119.403L466.876 119.676C466.812 119.479 466.71 119.292 466.57 119.114C466.433 118.936 466.248 118.79 466.013 118.676C465.778 118.562 465.484 118.506 465.132 118.506C464.651 118.506 464.25 118.614 463.928 118.83C463.606 119.042 463.445 119.316 463.445 119.653C463.445 119.945 463.553 120.18 463.768 120.358C463.984 120.536 464.333 120.682 464.814 120.795L466.2 121.114C467.003 121.299 467.602 121.585 467.996 121.972C468.39 122.358 468.587 122.86 468.587 123.477C468.587 124 468.435 124.466 468.132 124.875C467.833 125.28 467.414 125.598 466.876 125.83C466.342 126.061 465.723 126.176 465.018 126.176C464.041 126.176 463.244 125.968 462.626 125.551C462.009 125.131 461.63 124.534 461.49 123.761L463.132 123.511C463.234 123.939 463.445 124.263 463.763 124.483C464.081 124.699 464.496 124.807 465.007 124.807C465.564 124.807 466.009 124.691 466.342 124.46C466.676 124.225 466.842 123.939 466.842 123.602C466.842 123.33 466.74 123.1 466.536 122.915C466.335 122.729 466.026 122.589 465.609 122.494L464.132 122.17C463.318 121.985 462.715 121.689 462.325 121.284C461.939 120.879 461.746 120.366 461.746 119.744C461.746 119.229 461.89 118.778 462.178 118.392C462.465 118.006 462.863 117.705 463.371 117.489C463.878 117.269 464.46 117.159 465.115 117.159C466.058 117.159 466.801 117.364 467.342 117.773C467.884 118.178 468.242 118.722 468.416 119.403ZM474.528 117.273V118.636H469.761V117.273H474.528ZM471.04 115.182H472.739V123.438C472.739 123.767 472.788 124.015 472.886 124.182C472.985 124.345 473.112 124.456 473.267 124.517C473.426 124.574 473.598 124.602 473.784 124.602C473.92 124.602 474.04 124.593 474.142 124.574C474.244 124.555 474.324 124.54 474.381 124.528L474.688 125.932C474.589 125.97 474.449 126.008 474.267 126.045C474.085 126.087 473.858 126.11 473.585 126.114C473.138 126.121 472.722 126.042 472.335 125.875C471.949 125.708 471.636 125.451 471.398 125.102C471.159 124.754 471.04 124.316 471.04 123.79V115.182ZM476.408 126V117.273H478.038V118.693H478.146C478.328 118.212 478.625 117.837 479.038 117.568C479.451 117.295 479.946 117.159 480.521 117.159C481.105 117.159 481.593 117.295 481.987 117.568C482.385 117.841 482.679 118.216 482.868 118.693H482.959C483.167 118.227 483.499 117.856 483.953 117.58C484.408 117.299 484.949 117.159 485.578 117.159C486.37 117.159 487.016 117.407 487.516 117.903C488.019 118.4 488.271 119.148 488.271 120.148V126H486.572V120.307C486.572 119.716 486.411 119.288 486.089 119.023C485.768 118.758 485.383 118.625 484.936 118.625C484.383 118.625 483.953 118.795 483.646 119.136C483.339 119.473 483.186 119.907 483.186 120.438V126H481.493V120.199C481.493 119.725 481.345 119.345 481.05 119.057C480.754 118.769 480.37 118.625 479.896 118.625C479.574 118.625 479.277 118.71 479.004 118.881C478.735 119.047 478.518 119.28 478.351 119.58C478.188 119.879 478.107 120.225 478.107 120.619V126H476.408ZM493.088 126.193C492.535 126.193 492.035 126.091 491.588 125.886C491.141 125.678 490.787 125.377 490.526 124.983C490.268 124.589 490.139 124.106 490.139 123.534C490.139 123.042 490.234 122.636 490.423 122.318C490.613 122 490.868 121.748 491.19 121.562C491.512 121.377 491.872 121.237 492.27 121.142C492.668 121.047 493.073 120.975 493.486 120.926C494.009 120.866 494.433 120.816 494.759 120.778C495.084 120.737 495.321 120.67 495.469 120.58C495.616 120.489 495.69 120.341 495.69 120.136V120.097C495.69 119.6 495.55 119.216 495.27 118.943C494.993 118.67 494.58 118.534 494.031 118.534C493.459 118.534 493.009 118.661 492.679 118.915C492.353 119.165 492.128 119.443 492.003 119.75L490.406 119.386C490.596 118.856 490.872 118.428 491.236 118.102C491.603 117.773 492.026 117.534 492.503 117.386C492.98 117.235 493.482 117.159 494.009 117.159C494.357 117.159 494.726 117.201 495.116 117.284C495.51 117.364 495.878 117.511 496.219 117.727C496.563 117.943 496.846 118.252 497.065 118.653C497.285 119.051 497.395 119.568 497.395 120.205V126H495.736V124.807H495.668C495.558 125.027 495.393 125.242 495.173 125.455C494.954 125.667 494.671 125.843 494.327 125.983C493.982 126.123 493.569 126.193 493.088 126.193ZM493.457 124.83C493.927 124.83 494.329 124.737 494.662 124.551C494.999 124.366 495.255 124.123 495.429 123.824C495.607 123.521 495.696 123.197 495.696 122.852V121.727C495.635 121.788 495.518 121.845 495.344 121.898C495.173 121.947 494.978 121.991 494.759 122.028C494.539 122.062 494.325 122.095 494.116 122.125C493.908 122.152 493.734 122.174 493.594 122.193C493.264 122.235 492.963 122.305 492.69 122.403C492.421 122.502 492.205 122.644 492.043 122.83C491.884 123.011 491.804 123.254 491.804 123.557C491.804 123.977 491.959 124.295 492.27 124.511C492.58 124.723 492.976 124.83 493.457 124.83ZM499.658 126V117.273H501.357V126H499.658ZM500.516 115.926C500.22 115.926 499.966 115.828 499.754 115.631C499.546 115.43 499.442 115.191 499.442 114.915C499.442 114.634 499.546 114.396 499.754 114.199C499.966 113.998 500.22 113.898 500.516 113.898C500.811 113.898 501.063 113.998 501.271 114.199C501.483 114.396 501.589 114.634 501.589 114.915C501.589 115.191 501.483 115.43 501.271 115.631C501.063 115.828 500.811 115.926 500.516 115.926ZM505.341 114.364V126H503.642V114.364H505.341ZM508.746 126.108C508.435 126.108 508.168 125.998 507.945 125.778C507.721 125.555 507.609 125.286 507.609 124.972C507.609 124.661 507.721 124.396 507.945 124.176C508.168 123.953 508.435 123.841 508.746 123.841C509.056 123.841 509.323 123.953 509.547 124.176C509.77 124.396 509.882 124.661 509.882 124.972C509.882 125.18 509.829 125.371 509.723 125.545C509.621 125.716 509.484 125.852 509.314 125.955C509.143 126.057 508.954 126.108 508.746 126.108ZM515.834 126.176C514.989 126.176 514.262 125.985 513.652 125.602C513.046 125.216 512.58 124.684 512.254 124.006C511.929 123.328 511.766 122.551 511.766 121.676C511.766 120.79 511.932 120.008 512.266 119.33C512.599 118.648 513.069 118.116 513.675 117.733C514.281 117.35 514.995 117.159 515.817 117.159C516.48 117.159 517.071 117.282 517.589 117.528C518.108 117.771 518.527 118.112 518.845 118.551C519.167 118.991 519.358 119.504 519.419 120.091H517.766C517.675 119.682 517.466 119.33 517.141 119.034C516.819 118.739 516.387 118.591 515.845 118.591C515.372 118.591 514.957 118.716 514.601 118.966C514.249 119.212 513.974 119.564 513.777 120.023C513.58 120.477 513.482 121.015 513.482 121.636C513.482 122.273 513.578 122.822 513.771 123.284C513.964 123.746 514.237 124.104 514.589 124.358C514.946 124.612 515.364 124.739 515.845 124.739C516.167 124.739 516.459 124.68 516.72 124.562C516.985 124.441 517.207 124.269 517.385 124.045C517.567 123.822 517.694 123.553 517.766 123.239H519.419C519.358 123.803 519.175 124.307 518.868 124.75C518.561 125.193 518.15 125.542 517.635 125.795C517.124 126.049 516.523 126.176 515.834 126.176ZM524.912 126.176C524.094 126.176 523.38 125.989 522.77 125.614C522.16 125.239 521.687 124.714 521.349 124.04C521.012 123.366 520.844 122.578 520.844 121.676C520.844 120.771 521.012 119.979 521.349 119.301C521.687 118.623 522.16 118.097 522.77 117.722C523.38 117.347 524.094 117.159 524.912 117.159C525.73 117.159 526.444 117.347 527.054 117.722C527.664 118.097 528.137 118.623 528.474 119.301C528.812 119.979 528.98 120.771 528.98 121.676C528.98 122.578 528.812 123.366 528.474 124.04C528.137 124.714 527.664 125.239 527.054 125.614C526.444 125.989 525.73 126.176 524.912 126.176ZM524.918 124.75C525.448 124.75 525.887 124.61 526.236 124.33C526.584 124.049 526.842 123.676 527.009 123.21C527.179 122.744 527.264 122.231 527.264 121.67C527.264 121.114 527.179 120.602 527.009 120.136C526.842 119.667 526.584 119.29 526.236 119.006C525.887 118.722 525.448 118.58 524.918 118.58C524.384 118.58 523.94 118.722 523.588 119.006C523.24 119.29 522.98 119.667 522.81 120.136C522.643 120.602 522.56 121.114 522.56 121.67C522.56 122.231 522.643 122.744 522.81 123.21C522.98 123.676 523.24 124.049 523.588 124.33C523.94 124.61 524.384 124.75 524.918 124.75ZM530.876 126V117.273H532.507V118.693H532.615C532.797 118.212 533.094 117.837 533.507 117.568C533.92 117.295 534.414 117.159 534.99 117.159C535.573 117.159 536.062 117.295 536.456 117.568C536.854 117.841 537.147 118.216 537.337 118.693H537.428C537.636 118.227 537.967 117.856 538.422 117.58C538.876 117.299 539.418 117.159 540.047 117.159C540.839 117.159 541.484 117.407 541.984 117.903C542.488 118.4 542.74 119.148 542.74 120.148V126H541.041V120.307C541.041 119.716 540.88 119.288 540.558 119.023C540.236 118.758 539.852 118.625 539.405 118.625C538.852 118.625 538.422 118.795 538.115 119.136C537.808 119.473 537.655 119.907 537.655 120.438V126H535.962V120.199C535.962 119.725 535.814 119.345 535.518 119.057C535.223 118.769 534.839 118.625 534.365 118.625C534.043 118.625 533.746 118.71 533.473 118.881C533.204 119.047 532.986 119.28 532.82 119.58C532.657 119.879 532.575 120.225 532.575 120.619V126H530.876Z" fill="#0858F7"/>
<path d="M555.669 119.257C555.258 118.887 554.626 118.921 554.257 119.331C553.887 119.742 553.921 120.374 554.331 120.743L559.331 125.243C559.711 125.586 560.289 125.586 560.669 125.243L565.669 120.743C566.079 120.374 566.113 119.742 565.743 119.331C565.374 118.921 564.742 118.887 564.331 119.257L560 123.155L555.669 119.257Z" fill="#0858F7"/>
<rect x="0.5" y="0.5" width="630" height="169" rx="4.5" stroke="#9747FF" stroke-dasharray="10 5"/>
</svg>
