<svg width="54" height="80" viewBox="0 0 54 80" fill="none" xmlns="http://www.w3.org/2000/svg">
<g clip-path="url(#clip0_21_535)">
<path d="M22.0057 16.3636V28H19.5455V18.6989H19.4773L16.8125 20.3693V18.1875L19.6932 16.3636H22.0057ZM29.3338 28.2557C28.3565 28.2519 27.5156 28.0114 26.8111 27.5341C26.1103 27.0568 25.5705 26.3655 25.1918 25.4602C24.8168 24.5549 24.6312 23.4659 24.6349 22.1932C24.6349 20.9242 24.8224 19.8428 25.1974 18.9489C25.5762 18.0549 26.116 17.375 26.8168 16.9091C27.5213 16.4394 28.3603 16.2045 29.3338 16.2045C30.3073 16.2045 31.1444 16.4394 31.8452 16.9091C32.5497 17.3788 33.0914 18.0606 33.4702 18.9545C33.849 19.8447 34.0365 20.9242 34.0327 22.1932C34.0327 23.4697 33.8433 24.5606 33.4645 25.4659C33.0895 26.3712 32.5516 27.0625 31.8509 27.5398C31.1501 28.017 30.3111 28.2557 29.3338 28.2557ZM29.3338 26.2159C30.0005 26.2159 30.5327 25.8807 30.9304 25.2102C31.3281 24.5398 31.5251 23.5341 31.5213 22.1932C31.5213 21.3106 31.4304 20.5758 31.2486 19.9886C31.0705 19.4015 30.8168 18.9602 30.4872 18.6648C30.1615 18.3693 29.777 18.2216 29.3338 18.2216C28.6709 18.2216 28.1406 18.553 27.7429 19.2159C27.3452 19.8788 27.1444 20.8712 27.1406 22.1932C27.1406 23.0871 27.2296 23.8333 27.4077 24.4318C27.5895 25.0265 27.8452 25.4735 28.1747 25.7727C28.5043 26.0682 28.8906 26.2159 29.3338 26.2159ZM21.5057 52.2557C20.5284 52.2519 19.6875 52.0114 18.983 51.5341C18.2822 51.0568 17.7424 50.3655 17.3636 49.4602C16.9886 48.5549 16.803 47.4659 16.8068 46.1932C16.8068 44.9242 16.9943 43.8428 17.3693 42.9489C17.7481 42.0549 18.2879 41.375 18.9886 40.9091C19.6932 40.4394 20.5322 40.2045 21.5057 40.2045C22.4792 40.2045 23.3163 40.4394 24.017 40.9091C24.7216 41.3788 25.2633 42.0606 25.642 42.9545C26.0208 43.8447 26.2083 44.9242 26.2045 46.1932C26.2045 47.4697 26.0152 48.5606 25.6364 49.4659C25.2614 50.3712 24.7235 51.0625 24.0227 51.5398C23.322 52.017 22.483 52.2557 21.5057 52.2557ZM21.5057 50.2159C22.1723 50.2159 22.7045 49.8807 23.1023 49.2102C23.5 48.5398 23.697 47.5341 23.6932 46.1932C23.6932 45.3106 23.6023 44.5758 23.4205 43.9886C23.2424 43.4015 22.9886 42.9602 22.6591 42.6648C22.3333 42.3693 21.9489 42.2216 21.5057 42.2216C20.8428 42.2216 20.3125 42.553 19.9148 43.2159C19.517 43.8788 19.3163 44.8712 19.3125 46.1932C19.3125 47.0871 19.4015 47.8333 19.5795 48.4318C19.7614 49.0265 20.017 49.4735 20.3466 49.7727C20.6761 50.0682 21.0625 50.2159 21.5057 50.2159ZM32.169 40.2045C32.7675 40.2045 33.3433 40.3049 33.8963 40.5057C34.4531 40.7064 34.9493 41.0265 35.3849 41.4659C35.8243 41.9053 36.1709 42.4886 36.4247 43.2159C36.6823 43.9394 36.813 44.8277 36.8168 45.8807C36.8168 46.8693 36.705 47.7519 36.4815 48.5284C36.2618 49.3011 35.9455 49.9583 35.5327 50.5C35.1198 51.0417 34.6217 51.4545 34.0384 51.7386C33.455 52.0189 32.8035 52.1591 32.0838 52.1591C31.3073 52.1591 30.6217 52.0095 30.027 51.7102C29.4323 51.4072 28.9531 50.9962 28.5895 50.4773C28.2296 49.9545 28.0118 49.3674 27.9361 48.7159H30.3622C30.4569 49.1402 30.6558 49.4697 30.9588 49.7045C31.2618 49.9356 31.6368 50.0511 32.0838 50.0511C32.8414 50.0511 33.4171 49.7216 33.8111 49.0625C34.205 48.3996 34.4039 47.4924 34.4077 46.3409H34.3281C34.1539 46.6818 33.919 46.9754 33.6236 47.2216C33.3281 47.464 32.9891 47.6515 32.6065 47.7841C32.2277 47.9167 31.8243 47.983 31.3963 47.983C30.7107 47.983 30.099 47.822 29.5611 47.5C29.0232 47.178 28.599 46.7348 28.2884 46.1705C27.9777 45.6061 27.8224 44.9621 27.8224 44.2386C27.8187 43.4583 27.9986 42.7633 28.3622 42.1534C28.7259 41.5436 29.2334 41.0663 29.8849 40.7216C30.5402 40.3731 31.3016 40.2008 32.169 40.2045ZM32.1861 42.1364C31.8035 42.1364 31.4626 42.2273 31.1634 42.4091C30.8679 42.5909 30.633 42.8352 30.4588 43.142C30.2884 43.4489 30.205 43.7917 30.2088 44.1705C30.2088 44.553 30.2921 44.8977 30.4588 45.2045C30.6293 45.5076 30.8603 45.75 31.152 45.9318C31.4474 46.1098 31.7846 46.1989 32.1634 46.1989C32.4474 46.1989 32.7107 46.1458 32.9531 46.0398C33.1955 45.9337 33.4058 45.7879 33.5838 45.6023C33.7656 45.4129 33.9077 45.1951 34.0099 44.9489C34.1122 44.7027 34.1634 44.4413 34.1634 44.1648C34.1596 43.7973 34.0724 43.4602 33.902 43.1534C33.7315 42.8466 33.4967 42.6004 33.1974 42.4148C32.8982 42.2292 32.5611 42.1364 32.1861 42.1364ZM21.5057 76.2557C20.5284 76.2519 19.6875 76.0114 18.983 75.5341C18.2822 75.0568 17.7424 74.3655 17.3636 73.4602C16.9886 72.5549 16.803 71.4659 16.8068 70.1932C16.8068 68.9242 16.9943 67.8428 17.3693 66.9489C17.7481 66.0549 18.2879 65.375 18.9886 64.9091C19.6932 64.4394 20.5322 64.2045 21.5057 64.2045C22.4792 64.2045 23.3163 64.4394 24.017 64.9091C24.7216 65.3788 25.2633 66.0606 25.642 66.9545C26.0208 67.8447 26.2083 68.9242 26.2045 70.1932C26.2045 71.4697 26.0152 72.5606 25.6364 73.4659C25.2614 74.3712 24.7235 75.0625 24.0227 75.5398C23.322 76.017 22.483 76.2557 21.5057 76.2557ZM21.5057 74.2159C22.1723 74.2159 22.7045 73.8807 23.1023 73.2102C23.5 72.5398 23.697 71.5341 23.6932 70.1932C23.6932 69.3106 23.6023 68.5758 23.4205 67.9886C23.2424 67.4015 22.9886 66.9602 22.6591 66.6648C22.3333 66.3693 21.9489 66.2216 21.5057 66.2216C20.8428 66.2216 20.3125 66.553 19.9148 67.2159C19.517 67.8788 19.3163 68.8712 19.3125 70.1932C19.3125 71.0871 19.4015 71.8333 19.5795 72.4318C19.7614 73.0265 20.017 73.4735 20.3466 73.7727C20.6761 74.0682 21.0625 74.2159 21.5057 74.2159ZM32.2997 76.1591C31.4247 76.1591 30.6463 76.017 29.9645 75.733C29.2865 75.4451 28.7543 75.053 28.3679 74.5568C27.9815 74.0606 27.7884 73.4981 27.7884 72.8693C27.7884 72.3845 27.8982 71.9394 28.1179 71.5341C28.3414 71.125 28.6444 70.786 29.027 70.517C29.4096 70.2443 29.8376 70.0701 30.3111 69.9943V69.9148C29.6899 69.7898 29.1861 69.4886 28.7997 69.0114C28.4134 68.5303 28.2202 67.9716 28.2202 67.3352C28.2202 66.733 28.3963 66.197 28.7486 65.7273C29.1009 65.2538 29.5838 64.8826 30.1974 64.6136C30.8149 64.3409 31.5156 64.2045 32.2997 64.2045C33.0838 64.2045 33.7827 64.3409 34.3963 64.6136C35.0137 64.8864 35.4986 65.2595 35.8509 65.733C36.2031 66.2027 36.3812 66.7367 36.3849 67.3352C36.3812 67.9754 36.1842 68.5341 35.794 69.0114C35.4039 69.4886 34.9039 69.7898 34.294 69.9148V69.9943C34.7599 70.0701 35.1823 70.2443 35.5611 70.517C35.9437 70.786 36.2467 71.125 36.4702 71.5341C36.6974 71.9394 36.813 72.3845 36.8168 72.8693C36.813 73.4981 36.6179 74.0606 36.2315 74.5568C35.8452 75.053 35.3111 75.4451 34.6293 75.733C33.9512 76.017 33.1747 76.1591 32.2997 76.1591ZM32.2997 74.3523C32.6899 74.3523 33.0308 74.2822 33.3224 74.142C33.6141 73.9981 33.8414 73.8011 34.0043 73.5511C34.1709 73.2973 34.2543 73.0057 34.2543 72.6761C34.2543 72.339 34.169 72.0417 33.9986 71.7841C33.8281 71.5227 33.5971 71.3182 33.3054 71.1705C33.0137 71.0189 32.6785 70.9432 32.2997 70.9432C31.9247 70.9432 31.5895 71.0189 31.294 71.1705C30.9986 71.3182 30.7656 71.5227 30.5952 71.7841C30.4285 72.0417 30.3452 72.339 30.3452 72.6761C30.3452 73.0057 30.4266 73.2973 30.5895 73.5511C30.7524 73.8011 30.9815 73.9981 31.277 74.142C31.5724 74.2822 31.9134 74.3523 32.2997 74.3523ZM32.2997 69.1534C32.6255 69.1534 32.9152 69.0871 33.169 68.9545C33.4228 68.822 33.6217 68.6383 33.7656 68.4034C33.9096 68.1686 33.9815 67.8977 33.9815 67.5909C33.9815 67.2879 33.9096 67.0227 33.7656 66.7955C33.6217 66.5644 33.4247 66.3845 33.1747 66.2557C32.9247 66.1231 32.633 66.0568 32.2997 66.0568C31.9702 66.0568 31.6785 66.1231 31.4247 66.2557C31.1709 66.3845 30.9721 66.5644 30.8281 66.7955C30.688 67.0227 30.6179 67.2879 30.6179 67.5909C30.6179 67.8977 30.6899 68.1686 30.8338 68.4034C30.9777 68.6383 31.1766 68.822 31.4304 68.9545C31.6842 69.0871 31.974 69.1534 32.2997 69.1534ZM21.5057 100.256C20.5284 100.252 19.6875 100.011 18.983 99.5341C18.2822 99.0568 17.7424 98.3655 17.3636 97.4602C16.9886 96.5549 16.803 95.4659 16.8068 94.1932C16.8068 92.9242 16.9943 91.8428 17.3693 90.9489C17.7481 90.0549 18.2879 89.375 18.9886 88.9091C19.6932 88.4394 20.5322 88.2045 21.5057 88.2045C22.4792 88.2045 23.3163 88.4394 24.017 88.9091C24.7216 89.3788 25.2633 90.0606 25.642 90.9545C26.0208 91.8447 26.2083 92.9242 26.2045 94.1932C26.2045 95.4697 26.0152 96.5606 25.6364 97.4659C25.2614 98.3712 24.7235 99.0625 24.0227 99.5398C23.322 100.017 22.483 100.256 21.5057 100.256ZM21.5057 98.2159C22.1723 98.2159 22.7045 97.8807 23.1023 97.2102C23.5 96.5398 23.697 95.5341 23.6932 94.1932C23.6932 93.3106 23.6023 92.5758 23.4205 91.9886C23.2424 91.4015 22.9886 90.9602 22.6591 90.6648C22.3333 90.3693 21.9489 90.2216 21.5057 90.2216C20.8428 90.2216 20.3125 90.553 19.9148 91.2159C19.517 91.8788 19.3163 92.8712 19.3125 94.1932C19.3125 95.0871 19.4015 95.8333 19.5795 96.4318C19.7614 97.0265 20.017 97.4735 20.3466 97.7727C20.6761 98.0682 21.0625 98.2159 21.5057 98.2159ZM28.1065 100L32.9304 90.4545V90.375H27.3111V88.3636H35.4759V90.4034L30.6463 100H28.1065ZM21.5057 124.256C20.5284 124.252 19.6875 124.011 18.983 123.534C18.2822 123.057 17.7424 122.366 17.3636 121.46C16.9886 120.555 16.803 119.466 16.8068 118.193C16.8068 116.924 16.9943 115.843 17.3693 114.949C17.7481 114.055 18.2879 113.375 18.9886 112.909C19.6932 112.439 20.5322 112.205 21.5057 112.205C22.4792 112.205 23.3163 112.439 24.017 112.909C24.7216 113.379 25.2633 114.061 25.642 114.955C26.0208 115.845 26.2083 116.924 26.2045 118.193C26.2045 119.47 26.0152 120.561 25.6364 121.466C25.2614 122.371 24.7235 123.062 24.0227 123.54C23.322 124.017 22.483 124.256 21.5057 124.256ZM21.5057 122.216C22.1723 122.216 22.7045 121.881 23.1023 121.21C23.5 120.54 23.697 119.534 23.6932 118.193C23.6932 117.311 23.6023 116.576 23.4205 115.989C23.2424 115.402 22.9886 114.96 22.6591 114.665C22.3333 114.369 21.9489 114.222 21.5057 114.222C20.8428 114.222 20.3125 114.553 19.9148 115.216C19.517 115.879 19.3163 116.871 19.3125 118.193C19.3125 119.087 19.4015 119.833 19.5795 120.432C19.7614 121.027 20.017 121.473 20.3466 121.773C20.6761 122.068 21.0625 122.216 21.5057 122.216ZM32.4247 124.159C31.8262 124.155 31.2486 124.055 30.6918 123.858C30.1387 123.661 29.6425 123.341 29.2031 122.898C28.7637 122.455 28.4152 121.867 28.1577 121.136C27.9039 120.405 27.777 119.508 27.777 118.443C27.7808 117.466 27.8925 116.593 28.1122 115.824C28.3357 115.051 28.6539 114.396 29.0668 113.858C29.4834 113.32 29.9815 112.911 30.5611 112.631C31.1406 112.347 31.7902 112.205 32.5099 112.205C33.2865 112.205 33.9721 112.356 34.5668 112.659C35.1615 112.958 35.6387 113.366 35.9986 113.881C36.3622 114.396 36.5819 114.973 36.6577 115.614H34.2315C34.1368 115.208 33.938 114.89 33.6349 114.659C33.3319 114.428 32.9569 114.312 32.5099 114.312C31.7524 114.312 31.1766 114.642 30.7827 115.301C30.3925 115.96 30.1937 116.856 30.1861 117.989H30.2656C30.4399 117.644 30.6747 117.35 30.9702 117.108C31.2694 116.862 31.6084 116.674 31.9872 116.545C32.3698 116.413 32.7732 116.347 33.1974 116.347C33.8868 116.347 34.5005 116.509 35.0384 116.835C35.5762 117.157 36.0005 117.6 36.3111 118.165C36.6217 118.729 36.777 119.375 36.777 120.102C36.777 120.89 36.5933 121.591 36.2259 122.205C35.8622 122.818 35.3527 123.299 34.6974 123.648C34.0459 123.992 33.2884 124.163 32.4247 124.159ZM32.4134 122.227C32.7921 122.227 33.1312 122.136 33.4304 121.955C33.7296 121.773 33.9645 121.527 34.1349 121.216C34.3054 120.905 34.3906 120.557 34.3906 120.17C34.3906 119.784 34.3054 119.437 34.1349 119.131C33.9683 118.824 33.7372 118.58 33.4418 118.398C33.1463 118.216 32.8092 118.125 32.4304 118.125C32.1463 118.125 31.883 118.178 31.6406 118.284C31.402 118.39 31.1918 118.538 31.0099 118.727C30.8319 118.917 30.6918 119.136 30.5895 119.386C30.4872 119.633 30.4361 119.896 30.4361 120.176C30.4361 120.551 30.5213 120.894 30.6918 121.205C30.866 121.515 31.1009 121.763 31.3963 121.949C31.6955 122.134 32.0346 122.227 32.4134 122.227ZM21.5057 148.256C20.5284 148.252 19.6875 148.011 18.983 147.534C18.2822 147.057 17.7424 146.366 17.3636 145.46C16.9886 144.555 16.803 143.466 16.8068 142.193C16.8068 140.924 16.9943 139.843 17.3693 138.949C17.7481 138.055 18.2879 137.375 18.9886 136.909C19.6932 136.439 20.5322 136.205 21.5057 136.205C22.4792 136.205 23.3163 136.439 24.017 136.909C24.7216 137.379 25.2633 138.061 25.642 138.955C26.0208 139.845 26.2083 140.924 26.2045 142.193C26.2045 143.47 26.0152 144.561 25.6364 145.466C25.2614 146.371 24.7235 147.062 24.0227 147.54C23.322 148.017 22.483 148.256 21.5057 148.256ZM21.5057 146.216C22.1723 146.216 22.7045 145.881 23.1023 145.21C23.5 144.54 23.697 143.534 23.6932 142.193C23.6932 141.311 23.6023 140.576 23.4205 139.989C23.2424 139.402 22.9886 138.96 22.6591 138.665C22.3333 138.369 21.9489 138.222 21.5057 138.222C20.8428 138.222 20.3125 138.553 19.9148 139.216C19.517 139.879 19.3163 140.871 19.3125 142.193C19.3125 143.087 19.4015 143.833 19.5795 144.432C19.7614 145.027 20.017 145.473 20.3466 145.773C20.6761 146.068 21.0625 146.216 21.5057 146.216ZM32.2088 148.159C31.4058 148.159 30.6899 148.011 30.0611 147.716C29.4361 147.42 28.9399 147.013 28.5724 146.494C28.205 145.975 28.0137 145.381 27.9986 144.71H30.3849C30.4115 145.161 30.6009 145.527 30.9531 145.807C31.3054 146.087 31.724 146.227 32.2088 146.227C32.5952 146.227 32.9361 146.142 33.2315 145.972C33.5308 145.797 33.7637 145.557 33.9304 145.25C34.1009 144.939 34.1861 144.583 34.1861 144.182C34.1861 143.773 34.099 143.413 33.9247 143.102C33.7543 142.792 33.5175 142.549 33.2145 142.375C32.9115 142.201 32.5649 142.112 32.1747 142.108C31.8338 142.108 31.5024 142.178 31.1804 142.318C30.8622 142.458 30.6141 142.65 30.4361 142.892L28.2486 142.5L28.7997 136.364H35.9134V138.375H30.8281L30.527 141.29H30.5952C30.7997 141.002 31.1084 140.763 31.5213 140.574C31.9342 140.384 32.3963 140.29 32.9077 140.29C33.6084 140.29 34.2334 140.455 34.7827 140.784C35.3319 141.114 35.7656 141.566 36.0838 142.142C36.402 142.714 36.5592 143.373 36.5554 144.119C36.5592 144.903 36.3774 145.6 36.0099 146.21C35.6463 146.816 35.1368 147.294 34.4815 147.642C33.83 147.987 33.0724 148.159 32.2088 148.159ZM21.5057 172.256C20.5284 172.252 19.6875 172.011 18.983 171.534C18.2822 171.057 17.7424 170.366 17.3636 169.46C16.9886 168.555 16.803 167.466 16.8068 166.193C16.8068 164.924 16.9943 163.843 17.3693 162.949C17.7481 162.055 18.2879 161.375 18.9886 160.909C19.6932 160.439 20.5322 160.205 21.5057 160.205C22.4792 160.205 23.3163 160.439 24.017 160.909C24.7216 161.379 25.2633 162.061 25.642 162.955C26.0208 163.845 26.2083 164.924 26.2045 166.193C26.2045 167.47 26.0152 168.561 25.6364 169.466C25.2614 170.371 24.7235 171.062 24.0227 171.54C23.322 172.017 22.483 172.256 21.5057 172.256ZM21.5057 170.216C22.1723 170.216 22.7045 169.881 23.1023 169.21C23.5 168.54 23.697 167.534 23.6932 166.193C23.6932 165.311 23.6023 164.576 23.4205 163.989C23.2424 163.402 22.9886 162.96 22.6591 162.665C22.3333 162.369 21.9489 162.222 21.5057 162.222C20.8428 162.222 20.3125 162.553 19.9148 163.216C19.517 163.879 19.3163 164.871 19.3125 166.193C19.3125 167.087 19.4015 167.833 19.5795 168.432C19.7614 169.027 20.017 169.473 20.3466 169.773C20.6761 170.068 21.0625 170.216 21.5057 170.216ZM27.7827 169.955V168.017L32.6406 160.364H34.3111V163.045H33.3224L30.2599 167.892V167.983H37.1634V169.955H27.7827ZM33.3679 172V169.364L33.4134 168.506V160.364H35.7202V172H33.3679ZM21.5057 196.256C20.5284 196.252 19.6875 196.011 18.983 195.534C18.2822 195.057 17.7424 194.366 17.3636 193.46C16.9886 192.555 16.803 191.466 16.8068 190.193C16.8068 188.924 16.9943 187.843 17.3693 186.949C17.7481 186.055 18.2879 185.375 18.9886 184.909C19.6932 184.439 20.5322 184.205 21.5057 184.205C22.4792 184.205 23.3163 184.439 24.017 184.909C24.7216 185.379 25.2633 186.061 25.642 186.955C26.0208 187.845 26.2083 188.924 26.2045 190.193C26.2045 191.47 26.0152 192.561 25.6364 193.466C25.2614 194.371 24.7235 195.062 24.0227 195.54C23.322 196.017 22.483 196.256 21.5057 196.256ZM21.5057 194.216C22.1723 194.216 22.7045 193.881 23.1023 193.21C23.5 192.54 23.697 191.534 23.6932 190.193C23.6932 189.311 23.6023 188.576 23.4205 187.989C23.2424 187.402 22.9886 186.96 22.6591 186.665C22.3333 186.369 21.9489 186.222 21.5057 186.222C20.8428 186.222 20.3125 186.553 19.9148 187.216C19.517 187.879 19.3163 188.871 19.3125 190.193C19.3125 191.087 19.4015 191.833 19.5795 192.432C19.7614 193.027 20.017 193.473 20.3466 193.773C20.6761 194.068 21.0625 194.216 21.5057 194.216ZM32.2599 196.159C31.4115 196.159 30.6558 196.013 29.9929 195.722C29.3338 195.426 28.813 195.021 28.4304 194.506C28.0516 193.987 27.8565 193.388 27.8452 192.71H30.3224C30.3376 192.994 30.4304 193.244 30.6009 193.46C30.7751 193.672 31.0062 193.837 31.294 193.955C31.5819 194.072 31.9058 194.131 32.2656 194.131C32.6406 194.131 32.9721 194.064 33.2599 193.932C33.5478 193.799 33.7732 193.616 33.9361 193.381C34.099 193.146 34.1804 192.875 34.1804 192.568C34.1804 192.258 34.0933 191.983 33.919 191.744C33.7486 191.502 33.5024 191.312 33.1804 191.176C32.8622 191.04 32.4834 190.972 32.044 190.972H30.9588V189.165H32.044C32.4152 189.165 32.7429 189.1 33.027 188.972C33.3149 188.843 33.5384 188.665 33.6974 188.438C33.8565 188.206 33.9361 187.938 33.9361 187.631C33.9361 187.339 33.866 187.083 33.7259 186.864C33.5895 186.64 33.3963 186.466 33.1463 186.341C32.9001 186.216 32.6122 186.153 32.2827 186.153C31.9493 186.153 31.6444 186.214 31.3679 186.335C31.0914 186.453 30.8698 186.621 30.7031 186.841C30.5365 187.061 30.4474 187.318 30.4361 187.614H28.0781C28.0895 186.943 28.2808 186.352 28.652 185.841C29.0232 185.33 29.5232 184.93 30.152 184.642C30.7846 184.35 31.4986 184.205 32.294 184.205C33.0971 184.205 33.7997 184.35 34.402 184.642C35.0043 184.934 35.4721 185.328 35.8054 185.824C36.1425 186.316 36.3092 186.869 36.3054 187.483C36.3092 188.134 36.1065 188.678 35.6974 189.114C35.2921 189.549 34.7637 189.826 34.1122 189.943V190.034C34.9683 190.144 35.6198 190.441 36.0668 190.926C36.5175 191.407 36.741 192.009 36.7372 192.733C36.741 193.396 36.5497 193.985 36.1634 194.5C35.7808 195.015 35.2524 195.42 34.5781 195.716C33.9039 196.011 33.1312 196.159 32.2599 196.159ZM21.5057 220.256C20.5284 220.252 19.6875 220.011 18.983 219.534C18.2822 219.057 17.7424 218.366 17.3636 217.46C16.9886 216.555 16.803 215.466 16.8068 214.193C16.8068 212.924 16.9943 211.843 17.3693 210.949C17.7481 210.055 18.2879 209.375 18.9886 208.909C19.6932 208.439 20.5322 208.205 21.5057 208.205C22.4792 208.205 23.3163 208.439 24.017 208.909C24.7216 209.379 25.2633 210.061 25.642 210.955C26.0208 211.845 26.2083 212.924 26.2045 214.193C26.2045 215.47 26.0152 216.561 25.6364 217.466C25.2614 218.371 24.7235 219.062 24.0227 219.54C23.322 220.017 22.483 220.256 21.5057 220.256ZM21.5057 218.216C22.1723 218.216 22.7045 217.881 23.1023 217.21C23.5 216.54 23.697 215.534 23.6932 214.193C23.6932 213.311 23.6023 212.576 23.4205 211.989C23.2424 211.402 22.9886 210.96 22.6591 210.665C22.3333 210.369 21.9489 210.222 21.5057 210.222C20.8428 210.222 20.3125 210.553 19.9148 211.216C19.517 211.879 19.3163 212.871 19.3125 214.193C19.3125 215.087 19.4015 215.833 19.5795 216.432C19.7614 217.027 20.017 217.473 20.3466 217.773C20.6761 218.068 21.0625 218.216 21.5057 218.216ZM27.9588 220V218.227L32.1009 214.392C32.4531 214.051 32.7486 213.744 32.9872 213.472C33.2296 213.199 33.4134 212.932 33.5384 212.67C33.6634 212.405 33.7259 212.119 33.7259 211.812C33.7259 211.472 33.6482 211.178 33.4929 210.932C33.3376 210.682 33.1255 210.491 32.8565 210.358C32.5876 210.222 32.2827 210.153 31.9418 210.153C31.5857 210.153 31.2751 210.225 31.0099 210.369C30.7448 210.513 30.5402 210.72 30.3963 210.989C30.2524 211.258 30.1804 211.578 30.1804 211.949H27.8452C27.8452 211.187 28.0175 210.527 28.3622 209.966C28.7069 209.405 29.1899 208.972 29.8111 208.665C30.4323 208.358 31.1482 208.205 31.9588 208.205C32.7921 208.205 33.5175 208.352 34.1349 208.648C34.7562 208.939 35.2391 209.345 35.5838 209.864C35.9285 210.383 36.1009 210.977 36.1009 211.648C36.1009 212.087 36.0137 212.521 35.8395 212.949C35.669 213.377 35.3641 213.852 34.9247 214.375C34.4853 214.894 33.866 215.517 33.0668 216.244L31.3679 217.909V217.989H36.2543V220H27.9588ZM21.5057 244.256C20.5284 244.252 19.6875 244.011 18.983 243.534C18.2822 243.057 17.7424 242.366 17.3636 241.46C16.9886 240.555 16.803 239.466 16.8068 238.193C16.8068 236.924 16.9943 235.843 17.3693 234.949C17.7481 234.055 18.2879 233.375 18.9886 232.909C19.6932 232.439 20.5322 232.205 21.5057 232.205C22.4792 232.205 23.3163 232.439 24.017 232.909C24.7216 233.379 25.2633 234.061 25.642 234.955C26.0208 235.845 26.2083 236.924 26.2045 238.193C26.2045 239.47 26.0152 240.561 25.6364 241.466C25.2614 242.371 24.7235 243.062 24.0227 243.54C23.322 244.017 22.483 244.256 21.5057 244.256ZM21.5057 242.216C22.1723 242.216 22.7045 241.881 23.1023 241.21C23.5 240.54 23.697 239.534 23.6932 238.193C23.6932 237.311 23.6023 236.576 23.4205 235.989C23.2424 235.402 22.9886 234.96 22.6591 234.665C22.3333 234.369 21.9489 234.222 21.5057 234.222C20.8428 234.222 20.3125 234.553 19.9148 235.216C19.517 235.879 19.3163 236.871 19.3125 238.193C19.3125 239.087 19.4015 239.833 19.5795 240.432C19.7614 241.027 20.017 241.473 20.3466 241.773C20.6761 242.068 21.0625 242.216 21.5057 242.216ZM33.0213 232.364V244H30.5611V234.699H30.4929L27.8281 236.369V234.188L30.7088 232.364H33.0213ZM21.5057 268.256C20.5284 268.252 19.6875 268.011 18.983 267.534C18.2822 267.057 17.7424 266.366 17.3636 265.46C16.9886 264.555 16.803 263.466 16.8068 262.193C16.8068 260.924 16.9943 259.843 17.3693 258.949C17.7481 258.055 18.2879 257.375 18.9886 256.909C19.6932 256.439 20.5322 256.205 21.5057 256.205C22.4792 256.205 23.3163 256.439 24.017 256.909C24.7216 257.379 25.2633 258.061 25.642 258.955C26.0208 259.845 26.2083 260.924 26.2045 262.193C26.2045 263.47 26.0152 264.561 25.6364 265.466C25.2614 266.371 24.7235 267.062 24.0227 267.54C23.322 268.017 22.483 268.256 21.5057 268.256ZM21.5057 266.216C22.1723 266.216 22.7045 265.881 23.1023 265.21C23.5 264.54 23.697 263.534 23.6932 262.193C23.6932 261.311 23.6023 260.576 23.4205 259.989C23.2424 259.402 22.9886 258.96 22.6591 258.665C22.3333 258.369 21.9489 258.222 21.5057 258.222C20.8428 258.222 20.3125 258.553 19.9148 259.216C19.517 259.879 19.3163 260.871 19.3125 262.193C19.3125 263.087 19.4015 263.833 19.5795 264.432C19.7614 265.027 20.017 265.473 20.3466 265.773C20.6761 266.068 21.0625 266.216 21.5057 266.216ZM21.5057 292.256C20.5284 292.252 19.6875 292.011 18.983 291.534C18.2822 291.057 17.7424 290.366 17.3636 289.46C16.9886 288.555 16.803 287.466 16.8068 286.193C16.8068 284.924 16.9943 283.843 17.3693 282.949C17.7481 282.055 18.2879 281.375 18.9886 280.909C19.6932 280.439 20.5322 280.205 21.5057 280.205C22.4792 280.205 23.3163 280.439 24.017 280.909C24.7216 281.379 25.2633 282.061 25.642 282.955C26.0208 283.845 26.2083 284.924 26.2045 286.193C26.2045 287.47 26.0152 288.561 25.6364 289.466C25.2614 290.371 24.7235 291.062 24.0227 291.54C23.322 292.017 22.483 292.256 21.5057 292.256ZM21.5057 290.216C22.1723 290.216 22.7045 289.881 23.1023 289.21C23.5 288.54 23.697 287.534 23.6932 286.193C23.6932 285.311 23.6023 284.576 23.4205 283.989C23.2424 283.402 22.9886 282.96 22.6591 282.665C22.3333 282.369 21.9489 282.222 21.5057 282.222C20.8428 282.222 20.3125 282.553 19.9148 283.216C19.517 283.879 19.3163 284.871 19.3125 286.193C19.3125 287.087 19.4015 287.833 19.5795 288.432C19.7614 289.027 20.017 289.473 20.3466 289.773C20.6761 290.068 21.0625 290.216 21.5057 290.216Z" fill="#CACACE"/>
</g>
<g clip-path="url(#clip1_21_535)">
<path d="M22.0057 -191.636V-180H19.5455V-189.301H19.4773L16.8125 -187.631V-189.812L19.6932 -191.636H22.0057ZM29.3338 -179.744C28.3565 -179.748 27.5156 -179.989 26.8111 -180.466C26.1103 -180.943 25.5705 -181.634 25.1918 -182.54C24.8168 -183.445 24.6312 -184.534 24.6349 -185.807C24.6349 -187.076 24.8224 -188.157 25.1974 -189.051C25.5762 -189.945 26.116 -190.625 26.8168 -191.091C27.5213 -191.561 28.3603 -191.795 29.3338 -191.795C30.3073 -191.795 31.1444 -191.561 31.8452 -191.091C32.5497 -190.621 33.0914 -189.939 33.4702 -189.045C33.849 -188.155 34.0365 -187.076 34.0327 -185.807C34.0327 -184.53 33.8433 -183.439 33.4645 -182.534C33.0895 -181.629 32.5516 -180.938 31.8509 -180.46C31.1501 -179.983 30.3111 -179.744 29.3338 -179.744ZM29.3338 -181.784C30.0005 -181.784 30.5327 -182.119 30.9304 -182.79C31.3281 -183.46 31.5251 -184.466 31.5213 -185.807C31.5213 -186.689 31.4304 -187.424 31.2486 -188.011C31.0705 -188.598 30.8168 -189.04 30.4872 -189.335C30.1615 -189.631 29.777 -189.778 29.3338 -189.778C28.6709 -189.778 28.1406 -189.447 27.7429 -188.784C27.3452 -188.121 27.1444 -187.129 27.1406 -185.807C27.1406 -184.913 27.2296 -184.167 27.4077 -183.568C27.5895 -182.973 27.8452 -182.527 28.1747 -182.227C28.5043 -181.932 28.8906 -181.784 29.3338 -181.784ZM21.5057 -155.744C20.5284 -155.748 19.6875 -155.989 18.983 -156.466C18.2822 -156.943 17.7424 -157.634 17.3636 -158.54C16.9886 -159.445 16.803 -160.534 16.8068 -161.807C16.8068 -163.076 16.9943 -164.157 17.3693 -165.051C17.7481 -165.945 18.2879 -166.625 18.9886 -167.091C19.6932 -167.561 20.5322 -167.795 21.5057 -167.795C22.4792 -167.795 23.3163 -167.561 24.017 -167.091C24.7216 -166.621 25.2633 -165.939 25.642 -165.045C26.0208 -164.155 26.2083 -163.076 26.2045 -161.807C26.2045 -160.53 26.0152 -159.439 25.6364 -158.534C25.2614 -157.629 24.7235 -156.938 24.0227 -156.46C23.322 -155.983 22.483 -155.744 21.5057 -155.744ZM21.5057 -157.784C22.1723 -157.784 22.7045 -158.119 23.1023 -158.79C23.5 -159.46 23.697 -160.466 23.6932 -161.807C23.6932 -162.689 23.6023 -163.424 23.4205 -164.011C23.2424 -164.598 22.9886 -165.04 22.6591 -165.335C22.3333 -165.631 21.9489 -165.778 21.5057 -165.778C20.8428 -165.778 20.3125 -165.447 19.9148 -164.784C19.517 -164.121 19.3163 -163.129 19.3125 -161.807C19.3125 -160.913 19.4015 -160.167 19.5795 -159.568C19.7614 -158.973 20.017 -158.527 20.3466 -158.227C20.6761 -157.932 21.0625 -157.784 21.5057 -157.784ZM32.169 -167.795C32.7675 -167.795 33.3433 -167.695 33.8963 -167.494C34.4531 -167.294 34.9493 -166.973 35.3849 -166.534C35.8243 -166.095 36.1709 -165.511 36.4247 -164.784C36.6823 -164.061 36.813 -163.172 36.8168 -162.119C36.8168 -161.131 36.705 -160.248 36.4815 -159.472C36.2618 -158.699 35.9455 -158.042 35.5327 -157.5C35.1198 -156.958 34.6217 -156.545 34.0384 -156.261C33.455 -155.981 32.8035 -155.841 32.0838 -155.841C31.3073 -155.841 30.6217 -155.991 30.027 -156.29C29.4323 -156.593 28.9531 -157.004 28.5895 -157.523C28.2296 -158.045 28.0118 -158.633 27.9361 -159.284H30.3622C30.4569 -158.86 30.6558 -158.53 30.9588 -158.295C31.2618 -158.064 31.6368 -157.949 32.0838 -157.949C32.8414 -157.949 33.4171 -158.278 33.8111 -158.938C34.205 -159.6 34.4039 -160.508 34.4077 -161.659H34.3281C34.1539 -161.318 33.919 -161.025 33.6236 -160.778C33.3281 -160.536 32.9891 -160.348 32.6065 -160.216C32.2277 -160.083 31.8243 -160.017 31.3963 -160.017C30.7107 -160.017 30.099 -160.178 29.5611 -160.5C29.0232 -160.822 28.599 -161.265 28.2884 -161.83C27.9777 -162.394 27.8224 -163.038 27.8224 -163.761C27.8187 -164.542 27.9986 -165.237 28.3622 -165.847C28.7259 -166.456 29.2334 -166.934 29.8849 -167.278C30.5402 -167.627 31.3016 -167.799 32.169 -167.795ZM32.1861 -165.864C31.8035 -165.864 31.4626 -165.773 31.1634 -165.591C30.8679 -165.409 30.633 -165.165 30.4588 -164.858C30.2884 -164.551 30.205 -164.208 30.2088 -163.83C30.2088 -163.447 30.2921 -163.102 30.4588 -162.795C30.6293 -162.492 30.8603 -162.25 31.152 -162.068C31.4474 -161.89 31.7846 -161.801 32.1634 -161.801C32.4474 -161.801 32.7107 -161.854 32.9531 -161.96C33.1955 -162.066 33.4058 -162.212 33.5838 -162.398C33.7656 -162.587 33.9077 -162.805 34.0099 -163.051C34.1122 -163.297 34.1634 -163.559 34.1634 -163.835C34.1596 -164.203 34.0724 -164.54 33.902 -164.847C33.7315 -165.153 33.4967 -165.4 33.1974 -165.585C32.8982 -165.771 32.5611 -165.864 32.1861 -165.864ZM21.5057 -131.744C20.5284 -131.748 19.6875 -131.989 18.983 -132.466C18.2822 -132.943 17.7424 -133.634 17.3636 -134.54C16.9886 -135.445 16.803 -136.534 16.8068 -137.807C16.8068 -139.076 16.9943 -140.157 17.3693 -141.051C17.7481 -141.945 18.2879 -142.625 18.9886 -143.091C19.6932 -143.561 20.5322 -143.795 21.5057 -143.795C22.4792 -143.795 23.3163 -143.561 24.017 -143.091C24.7216 -142.621 25.2633 -141.939 25.642 -141.045C26.0208 -140.155 26.2083 -139.076 26.2045 -137.807C26.2045 -136.53 26.0152 -135.439 25.6364 -134.534C25.2614 -133.629 24.7235 -132.938 24.0227 -132.46C23.322 -131.983 22.483 -131.744 21.5057 -131.744ZM21.5057 -133.784C22.1723 -133.784 22.7045 -134.119 23.1023 -134.79C23.5 -135.46 23.697 -136.466 23.6932 -137.807C23.6932 -138.689 23.6023 -139.424 23.4205 -140.011C23.2424 -140.598 22.9886 -141.04 22.6591 -141.335C22.3333 -141.631 21.9489 -141.778 21.5057 -141.778C20.8428 -141.778 20.3125 -141.447 19.9148 -140.784C19.517 -140.121 19.3163 -139.129 19.3125 -137.807C19.3125 -136.913 19.4015 -136.167 19.5795 -135.568C19.7614 -134.973 20.017 -134.527 20.3466 -134.227C20.6761 -133.932 21.0625 -133.784 21.5057 -133.784ZM32.2997 -131.841C31.4247 -131.841 30.6463 -131.983 29.9645 -132.267C29.2865 -132.555 28.7543 -132.947 28.3679 -133.443C27.9815 -133.939 27.7884 -134.502 27.7884 -135.131C27.7884 -135.616 27.8982 -136.061 28.1179 -136.466C28.3414 -136.875 28.6444 -137.214 29.027 -137.483C29.4096 -137.756 29.8376 -137.93 30.3111 -138.006V-138.085C29.6899 -138.21 29.1861 -138.511 28.7997 -138.989C28.4134 -139.47 28.2202 -140.028 28.2202 -140.665C28.2202 -141.267 28.3963 -141.803 28.7486 -142.273C29.1009 -142.746 29.5838 -143.117 30.1974 -143.386C30.8149 -143.659 31.5156 -143.795 32.2997 -143.795C33.0838 -143.795 33.7827 -143.659 34.3963 -143.386C35.0137 -143.114 35.4986 -142.741 35.8509 -142.267C36.2031 -141.797 36.3812 -141.263 36.3849 -140.665C36.3812 -140.025 36.1842 -139.466 35.794 -138.989C35.4039 -138.511 34.9039 -138.21 34.294 -138.085V-138.006C34.7599 -137.93 35.1823 -137.756 35.5611 -137.483C35.9437 -137.214 36.2467 -136.875 36.4702 -136.466C36.6974 -136.061 36.813 -135.616 36.8168 -135.131C36.813 -134.502 36.6179 -133.939 36.2315 -133.443C35.8452 -132.947 35.3111 -132.555 34.6293 -132.267C33.9512 -131.983 33.1747 -131.841 32.2997 -131.841ZM32.2997 -133.648C32.6899 -133.648 33.0308 -133.718 33.3224 -133.858C33.6141 -134.002 33.8414 -134.199 34.0043 -134.449C34.1709 -134.703 34.2543 -134.994 34.2543 -135.324C34.2543 -135.661 34.169 -135.958 33.9986 -136.216C33.8281 -136.477 33.5971 -136.682 33.3054 -136.83C33.0137 -136.981 32.6785 -137.057 32.2997 -137.057C31.9247 -137.057 31.5895 -136.981 31.294 -136.83C30.9986 -136.682 30.7656 -136.477 30.5952 -136.216C30.4285 -135.958 30.3452 -135.661 30.3452 -135.324C30.3452 -134.994 30.4266 -134.703 30.5895 -134.449C30.7524 -134.199 30.9815 -134.002 31.277 -133.858C31.5724 -133.718 31.9134 -133.648 32.2997 -133.648ZM32.2997 -138.847C32.6255 -138.847 32.9152 -138.913 33.169 -139.045C33.4228 -139.178 33.6217 -139.362 33.7656 -139.597C33.9096 -139.831 33.9815 -140.102 33.9815 -140.409C33.9815 -140.712 33.9096 -140.977 33.7656 -141.205C33.6217 -141.436 33.4247 -141.616 33.1747 -141.744C32.9247 -141.877 32.633 -141.943 32.2997 -141.943C31.9702 -141.943 31.6785 -141.877 31.4247 -141.744C31.1709 -141.616 30.9721 -141.436 30.8281 -141.205C30.688 -140.977 30.6179 -140.712 30.6179 -140.409C30.6179 -140.102 30.6899 -139.831 30.8338 -139.597C30.9777 -139.362 31.1766 -139.178 31.4304 -139.045C31.6842 -138.913 31.974 -138.847 32.2997 -138.847ZM21.5057 -107.744C20.5284 -107.748 19.6875 -107.989 18.983 -108.466C18.2822 -108.943 17.7424 -109.634 17.3636 -110.54C16.9886 -111.445 16.803 -112.534 16.8068 -113.807C16.8068 -115.076 16.9943 -116.157 17.3693 -117.051C17.7481 -117.945 18.2879 -118.625 18.9886 -119.091C19.6932 -119.561 20.5322 -119.795 21.5057 -119.795C22.4792 -119.795 23.3163 -119.561 24.017 -119.091C24.7216 -118.621 25.2633 -117.939 25.642 -117.045C26.0208 -116.155 26.2083 -115.076 26.2045 -113.807C26.2045 -112.53 26.0152 -111.439 25.6364 -110.534C25.2614 -109.629 24.7235 -108.938 24.0227 -108.46C23.322 -107.983 22.483 -107.744 21.5057 -107.744ZM21.5057 -109.784C22.1723 -109.784 22.7045 -110.119 23.1023 -110.79C23.5 -111.46 23.697 -112.466 23.6932 -113.807C23.6932 -114.689 23.6023 -115.424 23.4205 -116.011C23.2424 -116.598 22.9886 -117.04 22.6591 -117.335C22.3333 -117.631 21.9489 -117.778 21.5057 -117.778C20.8428 -117.778 20.3125 -117.447 19.9148 -116.784C19.517 -116.121 19.3163 -115.129 19.3125 -113.807C19.3125 -112.913 19.4015 -112.167 19.5795 -111.568C19.7614 -110.973 20.017 -110.527 20.3466 -110.227C20.6761 -109.932 21.0625 -109.784 21.5057 -109.784ZM28.1065 -108L32.9304 -117.545V-117.625H27.3111V-119.636H35.4759V-117.597L30.6463 -108H28.1065ZM21.5057 -83.7443C20.5284 -83.7481 19.6875 -83.9886 18.983 -84.4659C18.2822 -84.9432 17.7424 -85.6345 17.3636 -86.5398C16.9886 -87.4451 16.803 -88.5341 16.8068 -89.8068C16.8068 -91.0758 16.9943 -92.1572 17.3693 -93.0511C17.7481 -93.9451 18.2879 -94.625 18.9886 -95.0909C19.6932 -95.5606 20.5322 -95.7955 21.5057 -95.7955C22.4792 -95.7955 23.3163 -95.5606 24.017 -95.0909C24.7216 -94.6212 25.2633 -93.9394 25.642 -93.0455C26.0208 -92.1553 26.2083 -91.0758 26.2045 -89.8068C26.2045 -88.5303 26.0152 -87.4394 25.6364 -86.5341C25.2614 -85.6288 24.7235 -84.9375 24.0227 -84.4602C23.322 -83.983 22.483 -83.7443 21.5057 -83.7443ZM21.5057 -85.7841C22.1723 -85.7841 22.7045 -86.1193 23.1023 -86.7898C23.5 -87.4602 23.697 -88.4659 23.6932 -89.8068C23.6932 -90.6894 23.6023 -91.4242 23.4205 -92.0114C23.2424 -92.5985 22.9886 -93.0398 22.6591 -93.3352C22.3333 -93.6307 21.9489 -93.7784 21.5057 -93.7784C20.8428 -93.7784 20.3125 -93.447 19.9148 -92.7841C19.517 -92.1212 19.3163 -91.1288 19.3125 -89.8068C19.3125 -88.9129 19.4015 -88.1667 19.5795 -87.5682C19.7614 -86.9735 20.017 -86.5265 20.3466 -86.2273C20.6761 -85.9318 21.0625 -85.7841 21.5057 -85.7841ZM32.4247 -83.8409C31.8262 -83.8447 31.2486 -83.9451 30.6918 -84.142C30.1387 -84.339 29.6425 -84.6591 29.2031 -85.1023C28.7637 -85.5455 28.4152 -86.1326 28.1577 -86.8636C27.9039 -87.5947 27.777 -88.4924 27.777 -89.5568C27.7808 -90.5341 27.8925 -91.4072 28.1122 -92.1761C28.3357 -92.9489 28.6539 -93.6042 29.0668 -94.142C29.4834 -94.6799 29.9815 -95.089 30.5611 -95.3693C31.1406 -95.6534 31.7902 -95.7955 32.5099 -95.7955C33.2865 -95.7955 33.9721 -95.6439 34.5668 -95.3409C35.1615 -95.0417 35.6387 -94.6345 35.9986 -94.1193C36.3622 -93.6042 36.5819 -93.0265 36.6577 -92.3864H34.2315C34.1368 -92.7917 33.938 -93.1098 33.6349 -93.3409C33.3319 -93.572 32.9569 -93.6875 32.5099 -93.6875C31.7524 -93.6875 31.1766 -93.358 30.7827 -92.6989C30.3925 -92.0398 30.1937 -91.1439 30.1861 -90.0114H30.2656C30.4399 -90.3561 30.6747 -90.6496 30.9702 -90.892C31.2694 -91.1383 31.6084 -91.3258 31.9872 -91.4545C32.3698 -91.5871 32.7732 -91.6534 33.1974 -91.6534C33.8868 -91.6534 34.5005 -91.4905 35.0384 -91.1648C35.5762 -90.8428 36.0005 -90.3996 36.3111 -89.8352C36.6217 -89.2708 36.777 -88.625 36.777 -87.8977C36.777 -87.1098 36.5933 -86.4091 36.2259 -85.7955C35.8622 -85.1818 35.3527 -84.7008 34.6974 -84.3523C34.0459 -84.0076 33.2884 -83.8371 32.4247 -83.8409ZM32.4134 -85.7727C32.7921 -85.7727 33.1312 -85.8636 33.4304 -86.0455C33.7296 -86.2273 33.9645 -86.4735 34.1349 -86.7841C34.3054 -87.0947 34.3906 -87.4432 34.3906 -87.8295C34.3906 -88.2159 34.3054 -88.5625 34.1349 -88.8693C33.9683 -89.1761 33.7372 -89.4205 33.4418 -89.6023C33.1463 -89.7841 32.8092 -89.875 32.4304 -89.875C32.1463 -89.875 31.883 -89.822 31.6406 -89.7159C31.402 -89.6098 31.1918 -89.4621 31.0099 -89.2727C30.8319 -89.0833 30.6918 -88.8636 30.5895 -88.6136C30.4872 -88.3674 30.4361 -88.1042 30.4361 -87.8239C30.4361 -87.4489 30.5213 -87.1061 30.6918 -86.7955C30.866 -86.4848 31.1009 -86.2367 31.3963 -86.0511C31.6955 -85.8655 32.0346 -85.7727 32.4134 -85.7727ZM21.5057 -59.7443C20.5284 -59.7481 19.6875 -59.9886 18.983 -60.4659C18.2822 -60.9432 17.7424 -61.6345 17.3636 -62.5398C16.9886 -63.4451 16.803 -64.5341 16.8068 -65.8068C16.8068 -67.0758 16.9943 -68.1572 17.3693 -69.0511C17.7481 -69.9451 18.2879 -70.625 18.9886 -71.0909C19.6932 -71.5606 20.5322 -71.7955 21.5057 -71.7955C22.4792 -71.7955 23.3163 -71.5606 24.017 -71.0909C24.7216 -70.6212 25.2633 -69.9394 25.642 -69.0455C26.0208 -68.1553 26.2083 -67.0758 26.2045 -65.8068C26.2045 -64.5303 26.0152 -63.4394 25.6364 -62.5341C25.2614 -61.6288 24.7235 -60.9375 24.0227 -60.4602C23.322 -59.983 22.483 -59.7443 21.5057 -59.7443ZM21.5057 -61.7841C22.1723 -61.7841 22.7045 -62.1193 23.1023 -62.7898C23.5 -63.4602 23.697 -64.4659 23.6932 -65.8068C23.6932 -66.6894 23.6023 -67.4242 23.4205 -68.0114C23.2424 -68.5985 22.9886 -69.0398 22.6591 -69.3352C22.3333 -69.6307 21.9489 -69.7784 21.5057 -69.7784C20.8428 -69.7784 20.3125 -69.447 19.9148 -68.7841C19.517 -68.1212 19.3163 -67.1288 19.3125 -65.8068C19.3125 -64.9129 19.4015 -64.1667 19.5795 -63.5682C19.7614 -62.9735 20.017 -62.5265 20.3466 -62.2273C20.6761 -61.9318 21.0625 -61.7841 21.5057 -61.7841ZM32.2088 -59.8409C31.4058 -59.8409 30.6899 -59.9886 30.0611 -60.2841C29.4361 -60.5795 28.9399 -60.9867 28.5724 -61.5057C28.205 -62.0246 28.0137 -62.6193 27.9986 -63.2898H30.3849C30.4115 -62.839 30.6009 -62.4735 30.9531 -62.1932C31.3054 -61.9129 31.724 -61.7727 32.2088 -61.7727C32.5952 -61.7727 32.9361 -61.858 33.2315 -62.0284C33.5308 -62.2027 33.7637 -62.4432 33.9304 -62.75C34.1009 -63.0606 34.1861 -63.4167 34.1861 -63.8182C34.1861 -64.2273 34.099 -64.5871 33.9247 -64.8977C33.7543 -65.2083 33.5175 -65.4508 33.2145 -65.625C32.9115 -65.7992 32.5649 -65.8883 32.1747 -65.892C31.8338 -65.892 31.5024 -65.822 31.1804 -65.6818C30.8622 -65.5417 30.6141 -65.3504 30.4361 -65.108L28.2486 -65.5L28.7997 -71.6364H35.9134V-69.625H30.8281L30.527 -66.7102H30.5952C30.7997 -66.9981 31.1084 -67.2367 31.5213 -67.4261C31.9342 -67.6155 32.3963 -67.7102 32.9077 -67.7102C33.6084 -67.7102 34.2334 -67.5455 34.7827 -67.2159C35.3319 -66.8864 35.7656 -66.4337 36.0838 -65.858C36.402 -65.286 36.5592 -64.6269 36.5554 -63.8807C36.5592 -63.0966 36.3774 -62.3996 36.0099 -61.7898C35.6463 -61.1837 35.1368 -60.7064 34.4815 -60.358C33.83 -60.0133 33.0724 -59.8409 32.2088 -59.8409ZM21.5057 -35.7443C20.5284 -35.7481 19.6875 -35.9886 18.983 -36.4659C18.2822 -36.9432 17.7424 -37.6345 17.3636 -38.5398C16.9886 -39.4451 16.803 -40.5341 16.8068 -41.8068C16.8068 -43.0758 16.9943 -44.1572 17.3693 -45.0511C17.7481 -45.9451 18.2879 -46.625 18.9886 -47.0909C19.6932 -47.5606 20.5322 -47.7955 21.5057 -47.7955C22.4792 -47.7955 23.3163 -47.5606 24.017 -47.0909C24.7216 -46.6212 25.2633 -45.9394 25.642 -45.0455C26.0208 -44.1553 26.2083 -43.0758 26.2045 -41.8068C26.2045 -40.5303 26.0152 -39.4394 25.6364 -38.5341C25.2614 -37.6288 24.7235 -36.9375 24.0227 -36.4602C23.322 -35.983 22.483 -35.7443 21.5057 -35.7443ZM21.5057 -37.7841C22.1723 -37.7841 22.7045 -38.1193 23.1023 -38.7898C23.5 -39.4602 23.697 -40.4659 23.6932 -41.8068C23.6932 -42.6894 23.6023 -43.4242 23.4205 -44.0114C23.2424 -44.5985 22.9886 -45.0398 22.6591 -45.3352C22.3333 -45.6307 21.9489 -45.7784 21.5057 -45.7784C20.8428 -45.7784 20.3125 -45.447 19.9148 -44.7841C19.517 -44.1212 19.3163 -43.1288 19.3125 -41.8068C19.3125 -40.9129 19.4015 -40.1667 19.5795 -39.5682C19.7614 -38.9735 20.017 -38.5265 20.3466 -38.2273C20.6761 -37.9318 21.0625 -37.7841 21.5057 -37.7841ZM27.7827 -38.0455V-39.983L32.6406 -47.6364H34.3111V-44.9545H33.3224L30.2599 -40.108V-40.017H37.1634V-38.0455H27.7827ZM33.3679 -36V-38.6364L33.4134 -39.4943V-47.6364H35.7202V-36H33.3679ZM21.5057 -11.7443C20.5284 -11.7481 19.6875 -11.9886 18.983 -12.4659C18.2822 -12.9432 17.7424 -13.6345 17.3636 -14.5398C16.9886 -15.4451 16.803 -16.5341 16.8068 -17.8068C16.8068 -19.0758 16.9943 -20.1572 17.3693 -21.0511C17.7481 -21.9451 18.2879 -22.625 18.9886 -23.0909C19.6932 -23.5606 20.5322 -23.7955 21.5057 -23.7955C22.4792 -23.7955 23.3163 -23.5606 24.017 -23.0909C24.7216 -22.6212 25.2633 -21.9394 25.642 -21.0455C26.0208 -20.1553 26.2083 -19.0758 26.2045 -17.8068C26.2045 -16.5303 26.0152 -15.4394 25.6364 -14.5341C25.2614 -13.6288 24.7235 -12.9375 24.0227 -12.4602C23.322 -11.983 22.483 -11.7443 21.5057 -11.7443ZM21.5057 -13.7841C22.1723 -13.7841 22.7045 -14.1193 23.1023 -14.7898C23.5 -15.4602 23.697 -16.4659 23.6932 -17.8068C23.6932 -18.6894 23.6023 -19.4242 23.4205 -20.0114C23.2424 -20.5985 22.9886 -21.0398 22.6591 -21.3352C22.3333 -21.6307 21.9489 -21.7784 21.5057 -21.7784C20.8428 -21.7784 20.3125 -21.447 19.9148 -20.7841C19.517 -20.1212 19.3163 -19.1288 19.3125 -17.8068C19.3125 -16.9129 19.4015 -16.1667 19.5795 -15.5682C19.7614 -14.9735 20.017 -14.5265 20.3466 -14.2273C20.6761 -13.9318 21.0625 -13.7841 21.5057 -13.7841ZM32.2599 -11.8409C31.4115 -11.8409 30.6558 -11.9867 29.9929 -12.2784C29.3338 -12.5739 28.813 -12.9792 28.4304 -13.4943C28.0516 -14.0133 27.8565 -14.6117 27.8452 -15.2898H30.3224C30.3376 -15.0057 30.4304 -14.7557 30.6009 -14.5398C30.7751 -14.3277 31.0062 -14.1629 31.294 -14.0455C31.5819 -13.928 31.9058 -13.8693 32.2656 -13.8693C32.6406 -13.8693 32.9721 -13.9356 33.2599 -14.0682C33.5478 -14.2008 33.7732 -14.3845 33.9361 -14.6193C34.099 -14.8542 34.1804 -15.125 34.1804 -15.4318C34.1804 -15.7424 34.0933 -16.017 33.919 -16.2557C33.7486 -16.4981 33.5024 -16.6875 33.1804 -16.8239C32.8622 -16.9602 32.4834 -17.0284 32.044 -17.0284H30.9588V-18.8352H32.044C32.4152 -18.8352 32.7429 -18.8996 33.027 -19.0284C33.3149 -19.1572 33.5384 -19.3352 33.6974 -19.5625C33.8565 -19.7936 33.9361 -20.0625 33.9361 -20.3693C33.9361 -20.661 33.866 -20.9167 33.7259 -21.1364C33.5895 -21.3598 33.3963 -21.5341 33.1463 -21.6591C32.9001 -21.7841 32.6122 -21.8466 32.2827 -21.8466C31.9493 -21.8466 31.6444 -21.786 31.3679 -21.6648C31.0914 -21.5473 30.8698 -21.3788 30.7031 -21.1591C30.5365 -20.9394 30.4474 -20.6818 30.4361 -20.3864H28.0781C28.0895 -21.0568 28.2808 -21.6477 28.652 -22.1591C29.0232 -22.6705 29.5232 -23.0701 30.152 -23.358C30.7846 -23.6496 31.4986 -23.7955 32.294 -23.7955C33.0971 -23.7955 33.7997 -23.6496 34.402 -23.358C35.0043 -23.0663 35.4721 -22.6723 35.8054 -22.1761C36.1425 -21.6837 36.3092 -21.1307 36.3054 -20.517C36.3092 -19.8655 36.1065 -19.322 35.6974 -18.8864C35.2921 -18.4508 34.7637 -18.1742 34.1122 -18.0568V-17.9659C34.9683 -17.8561 35.6198 -17.5587 36.0668 -17.0739C36.5175 -16.5928 36.741 -15.9905 36.7372 -15.267C36.741 -14.6042 36.5497 -14.0152 36.1634 -13.5C35.7808 -12.9848 35.2524 -12.5795 34.5781 -12.2841C33.9039 -11.9886 33.1312 -11.8409 32.2599 -11.8409ZM21.5057 12.2557C20.5284 12.2519 19.6875 12.0114 18.983 11.5341C18.2822 11.0568 17.7424 10.3655 17.3636 9.46023C16.9886 8.55492 16.803 7.46591 16.8068 6.19318C16.8068 4.92424 16.9943 3.8428 17.3693 2.94886C17.7481 2.05492 18.2879 1.375 18.9886 0.909091C19.6932 0.439394 20.5322 0.204545 21.5057 0.204545C22.4792 0.204545 23.3163 0.439394 24.017 0.909091C24.7216 1.37879 25.2633 2.06061 25.642 2.95455C26.0208 3.8447 26.2083 4.92424 26.2045 6.19318C26.2045 7.4697 26.0152 8.56061 25.6364 9.46591C25.2614 10.3712 24.7235 11.0625 24.0227 11.5398C23.322 12.017 22.483 12.2557 21.5057 12.2557ZM21.5057 10.2159C22.1723 10.2159 22.7045 9.88068 23.1023 9.21023C23.5 8.53977 23.697 7.53409 23.6932 6.19318C23.6932 5.31061 23.6023 4.57576 23.4205 3.98864C23.2424 3.40151 22.9886 2.96023 22.6591 2.66477C22.3333 2.36932 21.9489 2.22159 21.5057 2.22159C20.8428 2.22159 20.3125 2.55303 19.9148 3.21591C19.517 3.87879 19.3163 4.87121 19.3125 6.19318C19.3125 7.08712 19.4015 7.83333 19.5795 8.43182C19.7614 9.02652 20.017 9.47348 20.3466 9.77273C20.6761 10.0682 21.0625 10.2159 21.5057 10.2159ZM27.9588 12V10.2273L32.1009 6.39205C32.4531 6.05114 32.7486 5.74432 32.9872 5.47159C33.2296 5.19886 33.4134 4.93182 33.5384 4.67045C33.6634 4.4053 33.7259 4.11932 33.7259 3.8125C33.7259 3.47159 33.6482 3.17803 33.4929 2.93182C33.3376 2.68182 33.1255 2.49053 32.8565 2.35795C32.5876 2.22159 32.2827 2.15341 31.9418 2.15341C31.5857 2.15341 31.2751 2.22538 31.0099 2.36932C30.7448 2.51326 30.5402 2.7197 30.3963 2.98864C30.2524 3.25758 30.1804 3.57765 30.1804 3.94886H27.8452C27.8452 3.1875 28.0175 2.52652 28.3622 1.96591C28.7069 1.4053 29.1899 0.971591 29.8111 0.664772C30.4323 0.357954 31.1482 0.204545 31.9588 0.204545C32.7921 0.204545 33.5175 0.352272 34.1349 0.647727C34.7562 0.939394 35.2391 1.3447 35.5838 1.86364C35.9285 2.38258 36.1009 2.97727 36.1009 3.64773C36.1009 4.08712 36.0137 4.52083 35.8395 4.94886C35.669 5.37689 35.3641 5.85227 34.9247 6.375C34.4853 6.89394 33.866 7.51705 33.0668 8.24432L31.3679 9.90909V9.98864H36.2543V12H27.9588ZM21.5057 36.2557C20.5284 36.2519 19.6875 36.0114 18.983 35.5341C18.2822 35.0568 17.7424 34.3655 17.3636 33.4602C16.9886 32.5549 16.803 31.4659 16.8068 30.1932C16.8068 28.9242 16.9943 27.8428 17.3693 26.9489C17.7481 26.0549 18.2879 25.375 18.9886 24.9091C19.6932 24.4394 20.5322 24.2045 21.5057 24.2045C22.4792 24.2045 23.3163 24.4394 24.017 24.9091C24.7216 25.3788 25.2633 26.0606 25.642 26.9545C26.0208 27.8447 26.2083 28.9242 26.2045 30.1932C26.2045 31.4697 26.0152 32.5606 25.6364 33.4659C25.2614 34.3712 24.7235 35.0625 24.0227 35.5398C23.322 36.017 22.483 36.2557 21.5057 36.2557ZM21.5057 34.2159C22.1723 34.2159 22.7045 33.8807 23.1023 33.2102C23.5 32.5398 23.697 31.5341 23.6932 30.1932C23.6932 29.3106 23.6023 28.5758 23.4205 27.9886C23.2424 27.4015 22.9886 26.9602 22.6591 26.6648C22.3333 26.3693 21.9489 26.2216 21.5057 26.2216C20.8428 26.2216 20.3125 26.553 19.9148 27.2159C19.517 27.8788 19.3163 28.8712 19.3125 30.1932C19.3125 31.0871 19.4015 31.8333 19.5795 32.4318C19.7614 33.0265 20.017 33.4735 20.3466 33.7727C20.6761 34.0682 21.0625 34.2159 21.5057 34.2159ZM33.0213 24.3636V36H30.5611V26.6989H30.4929L27.8281 28.3693V26.1875L30.7088 24.3636H33.0213ZM21.5057 60.2557C20.5284 60.2519 19.6875 60.0114 18.983 59.5341C18.2822 59.0568 17.7424 58.3655 17.3636 57.4602C16.9886 56.5549 16.803 55.4659 16.8068 54.1932C16.8068 52.9242 16.9943 51.8428 17.3693 50.9489C17.7481 50.0549 18.2879 49.375 18.9886 48.9091C19.6932 48.4394 20.5322 48.2045 21.5057 48.2045C22.4792 48.2045 23.3163 48.4394 24.017 48.9091C24.7216 49.3788 25.2633 50.0606 25.642 50.9545C26.0208 51.8447 26.2083 52.9242 26.2045 54.1932C26.2045 55.4697 26.0152 56.5606 25.6364 57.4659C25.2614 58.3712 24.7235 59.0625 24.0227 59.5398C23.322 60.017 22.483 60.2557 21.5057 60.2557ZM21.5057 58.2159C22.1723 58.2159 22.7045 57.8807 23.1023 57.2102C23.5 56.5398 23.697 55.5341 23.6932 54.1932C23.6932 53.3106 23.6023 52.5758 23.4205 51.9886C23.2424 51.4015 22.9886 50.9602 22.6591 50.6648C22.3333 50.3693 21.9489 50.2216 21.5057 50.2216C20.8428 50.2216 20.3125 50.553 19.9148 51.2159C19.517 51.8788 19.3163 52.8712 19.3125 54.1932C19.3125 55.0871 19.4015 55.8333 19.5795 56.4318C19.7614 57.0265 20.017 57.4735 20.3466 57.7727C20.6761 58.0682 21.0625 58.2159 21.5057 58.2159ZM32.5213 60.2557C31.544 60.2519 30.7031 60.0114 29.9986 59.5341C29.2978 59.0568 28.758 58.3655 28.3793 57.4602C28.0043 56.5549 27.8187 55.4659 27.8224 54.1932C27.8224 52.9242 28.0099 51.8428 28.3849 50.9489C28.7637 50.0549 29.3035 49.375 30.0043 48.9091C30.7088 48.4394 31.5478 48.2045 32.5213 48.2045C33.4948 48.2045 34.3319 48.4394 35.0327 48.9091C35.7372 49.3788 36.2789 50.0606 36.6577 50.9545C37.0365 51.8447 37.224 52.9242 37.2202 54.1932C37.2202 55.4697 37.0308 56.5606 36.652 57.4659C36.277 58.3712 35.7391 59.0625 35.0384 59.5398C34.3376 60.017 33.4986 60.2557 32.5213 60.2557ZM32.5213 58.2159C33.188 58.2159 33.7202 57.8807 34.1179 57.2102C34.5156 56.5398 34.7126 55.5341 34.7088 54.1932C34.7088 53.3106 34.6179 52.5758 34.4361 51.9886C34.258 51.4015 34.0043 50.9602 33.6747 50.6648C33.349 50.3693 32.9645 50.2216 32.5213 50.2216C31.8584 50.2216 31.3281 50.553 30.9304 51.2159C30.5327 51.8788 30.3319 52.8712 30.3281 54.1932C30.3281 55.0871 30.4171 55.8333 30.5952 56.4318C30.777 57.0265 31.0327 57.4735 31.3622 57.7727C31.6918 58.0682 32.0781 58.2159 32.5213 58.2159Z" fill="#CACACE"/>
</g>
<rect x="0.5" y="0.5" width="53" height="79" rx="4.5" stroke="#9747FF" stroke-dasharray="10 5"/>
<defs>
<clipPath id="clip0_21_535">
<rect width="22" height="16" fill="white" transform="translate(16 16)"/>
</clipPath>
<clipPath id="clip1_21_535">
<rect width="22" height="16" fill="white" transform="translate(16 48)"/>
</clipPath>
</defs>
</svg>
