<svg width="110" height="475" viewBox="0 0 110 475" fill="none" xmlns="http://www.w3.org/2000/svg">
<g clip-path="url(#clip0_29_14452)">
<rect x="-4" y="217.5" width="40" height="40" rx="20" fill="#0646C6"/>
<path d="M18.2433 233.169C18.6128 232.758 18.5795 232.126 18.169 231.757C17.7585 231.387 17.1262 231.421 16.7567 231.831L12.2567 236.831C11.9144 237.211 11.9144 237.789 12.2567 238.169L16.7567 243.169C17.1262 243.579 17.7585 243.613 18.169 243.243C18.5795 242.874 18.6128 242.242 18.2433 241.831L14.3454 237.5L18.2433 233.169Z" fill="white"/>
<rect x="-4" y="217.5" width="40" height="40" rx="20" stroke="white" stroke-width="8"/>
<rect x="-4" y="370.5" width="40" height="40" rx="20" fill="#18181B"/>
<path d="M18.2433 386.169C18.6128 385.758 18.5795 385.126 18.169 384.757C17.7585 384.387 17.1262 384.421 16.7567 384.831L12.2567 389.831C11.9144 390.211 11.9144 390.789 12.2567 391.169L16.7567 396.169C17.1262 396.579 17.7585 396.613 18.169 396.243C18.5795 395.874 18.6128 395.242 18.2433 394.831L14.3454 390.5L18.2433 386.169Z" fill="white"/>
<rect x="-4" y="370.5" width="40" height="40" rx="20" stroke="white" stroke-width="8"/>
</g>
<rect x="0.5" y="0.5" width="109" height="474" rx="4.5" stroke="#9747FF" stroke-dasharray="10 5"/>
<defs>
<clipPath id="clip0_29_14452">
<rect width="110" height="475" rx="5" fill="white"/>
</clipPath>
</defs>
</svg>
