<svg width="176" height="64" viewBox="0 0 176 64" fill="none" xmlns="http://www.w3.org/2000/svg">
<rect x="16" y="16" width="32" height="32" rx="16" fill="#0858F7"/>
<path d="M34.2433 27.669C34.6128 27.2584 34.5795 26.6262 34.169 26.2567C33.7585 25.8872 33.1262 25.9205 32.7567 26.331L28.2567 31.331C27.9144 31.7113 27.9144 32.2887 28.2567 32.669L32.7567 37.669C33.1262 38.0795 33.7585 38.1127 34.169 37.7433C34.5795 37.3738 34.6128 36.7415 34.2433 36.331L30.3454 32L34.2433 27.669Z" fill="white"/>
<rect x="72" y="16" width="32" height="32" rx="16" fill="#0646C6"/>
<path d="M90.2433 27.669C90.6128 27.2584 90.5795 26.6262 90.169 26.2567C89.7585 25.8872 89.1262 25.9205 88.7567 26.331L84.2567 31.331C83.9144 31.7113 83.9144 32.2887 84.2567 32.669L88.7567 37.669C89.1262 38.0795 89.7585 38.1127 90.169 37.7433C90.5795 37.3738 90.6128 36.7415 90.2433 36.331L86.3454 32L90.2433 27.669Z" fill="white"/>
<rect x="128" y="16" width="32" height="32" rx="16" fill="#18181B"/>
<path d="M146.243 27.669C146.613 27.2584 146.579 26.6262 146.169 26.2567C145.758 25.8872 145.126 25.9205 144.757 26.331L140.257 31.331C139.914 31.7113 139.914 32.2887 140.257 32.669L144.757 37.669C145.126 38.0795 145.758 38.1127 146.169 37.7433C146.579 37.3738 146.613 36.7415 146.243 36.331L142.345 32L146.243 27.669Z" fill="white"/>
<rect x="0.5" y="0.5" width="175" height="63" rx="4.5" stroke="#9747FF" stroke-dasharray="10 5"/>
</svg>
