<svg width="374" height="162" viewBox="0 0 374 162" fill="none" xmlns="http://www.w3.org/2000/svg">
<g clip-path="url(#clip0_29_918)">
<g clip-path="url(#clip1_29_918)">
<path d="M33.1911 45V33.3636H37.8501C38.7062 33.3636 39.4202 33.4905 39.9922 33.7443C40.5642 33.9981 40.9941 34.3504 41.282 34.8011C41.5698 35.2481 41.7138 35.7633 41.7138 36.3466C41.7138 36.8011 41.6229 37.2008 41.4411 37.5455C41.2592 37.8864 41.0092 38.1667 40.6911 38.3864C40.3767 38.6023 40.0168 38.7557 39.6115 38.8466V38.9602C40.0547 38.9792 40.4695 39.1042 40.8558 39.3352C41.246 39.5663 41.5623 39.8902 41.8047 40.3068C42.0471 40.7197 42.1683 41.2121 42.1683 41.7841C42.1683 42.4015 42.0149 42.9527 41.7081 43.4375C41.4051 43.9186 40.9562 44.2992 40.3615 44.5795C39.7668 44.8598 39.0339 45 38.1626 45H33.1911ZM35.6513 42.9886H37.657C38.3426 42.9886 38.8426 42.858 39.157 42.5966C39.4714 42.3314 39.6286 41.9792 39.6286 41.5398C39.6286 41.2178 39.5509 40.9337 39.3956 40.6875C39.2403 40.4413 39.0187 40.2481 38.7308 40.108C38.4467 39.9678 38.1077 39.8977 37.7138 39.8977H35.6513V42.9886ZM35.6513 38.233H37.4751C37.8123 38.233 38.1115 38.1742 38.3729 38.0568C38.638 37.9356 38.8464 37.7652 38.9979 37.5455C39.1532 37.3258 39.2308 37.0625 39.2308 36.7557C39.2308 36.3352 39.0812 35.9962 38.782 35.7386C38.4865 35.4811 38.0661 35.3523 37.5206 35.3523H35.6513V38.233ZM49.3203 41.2841V36.2727H51.7408V45H49.4169V43.4148H49.326C49.129 43.9261 48.8014 44.3371 48.343 44.6477C47.8885 44.9583 47.3336 45.1136 46.6783 45.1136C46.0949 45.1136 45.5817 44.9811 45.1385 44.7159C44.6953 44.4508 44.3487 44.0739 44.0987 43.5852C43.8525 43.0966 43.7275 42.5114 43.7237 41.8295V36.2727H46.1442V41.3977C46.148 41.9129 46.2862 42.3201 46.5589 42.6193C46.8317 42.9186 47.1972 43.0682 47.6555 43.0682C47.9472 43.0682 48.2199 43.0019 48.4737 42.8693C48.7275 42.733 48.9321 42.5322 49.0874 42.267C49.2464 42.0019 49.3241 41.6742 49.3203 41.2841ZM58.3189 36.2727V38.0909H53.0632V36.2727H58.3189ZM54.2564 34.1818H56.6768V42.3182C56.6768 42.5417 56.7109 42.7159 56.7791 42.8409C56.8473 42.9621 56.942 43.0473 57.0632 43.0966C57.1882 43.1458 57.3321 43.1705 57.495 43.1705C57.6087 43.1705 57.7223 43.161 57.8359 43.142C57.9496 43.1193 58.0367 43.1023 58.0973 43.0909L58.478 44.892C58.3568 44.9299 58.1863 44.9735 57.9666 45.0227C57.7469 45.0758 57.4799 45.108 57.1655 45.1193C56.5821 45.142 56.0708 45.0644 55.6314 44.8864C55.1958 44.7083 54.8568 44.4318 54.6143 44.0568C54.3719 43.6818 54.2526 43.2083 54.2564 42.6364V34.1818ZM64.5376 36.2727V38.0909H59.282V36.2727H64.5376ZM60.4751 34.1818H62.8956V42.3182C62.8956 42.5417 62.9297 42.7159 62.9979 42.8409C63.0661 42.9621 63.1607 43.0473 63.282 43.0966C63.407 43.1458 63.5509 43.1705 63.7138 43.1705C63.8274 43.1705 63.9411 43.161 64.0547 43.142C64.1683 43.1193 64.2554 43.1023 64.3161 43.0909L64.6967 44.892C64.5755 44.9299 64.4051 44.9735 64.1854 45.0227C63.9657 45.0758 63.6986 45.108 63.3842 45.1193C62.8009 45.142 62.2895 45.0644 61.8501 44.8864C61.4145 44.7083 61.0755 44.4318 60.8331 44.0568C60.5907 43.6818 60.4714 43.2083 60.4751 42.6364V34.1818ZM69.9638 45.1705C69.0812 45.1705 68.3179 44.983 67.674 44.608C67.0339 44.2292 66.5395 43.7027 66.1911 43.0284C65.8426 42.3504 65.6683 41.5644 65.6683 40.6705C65.6683 39.7689 65.8426 38.9811 66.1911 38.3068C66.5395 37.6288 67.0339 37.1023 67.674 36.7273C68.3179 36.3485 69.0812 36.1591 69.9638 36.1591C70.8464 36.1591 71.6077 36.3485 72.2479 36.7273C72.8918 37.1023 73.388 37.6288 73.7365 38.3068C74.085 38.9811 74.2592 39.7689 74.2592 40.6705C74.2592 41.5644 74.085 42.3504 73.7365 43.0284C73.388 43.7027 72.8918 44.2292 72.2479 44.608C71.6077 44.983 70.8464 45.1705 69.9638 45.1705ZM69.9751 43.2955C70.3767 43.2955 70.7119 43.1818 70.9808 42.9545C71.2498 42.7235 71.4524 42.4091 71.5888 42.0114C71.7289 41.6136 71.799 41.161 71.799 40.6534C71.799 40.1458 71.7289 39.6932 71.5888 39.2955C71.4524 38.8977 71.2498 38.5833 70.9808 38.3523C70.7119 38.1212 70.3767 38.0057 69.9751 38.0057C69.5698 38.0057 69.2289 38.1212 68.9524 38.3523C68.6797 38.5833 68.4732 38.8977 68.3331 39.2955C68.1967 39.6932 68.1286 40.1458 68.1286 40.6534C68.1286 41.161 68.1967 41.6136 68.3331 42.0114C68.4732 42.4091 68.6797 42.7235 68.9524 42.9545C69.2289 43.1818 69.5698 43.2955 69.9751 43.2955ZM78.2536 39.9545V45H75.8331V36.2727H78.1399V37.8125H78.2422C78.4354 37.3049 78.7592 36.9034 79.2138 36.608C79.6683 36.3087 80.2195 36.1591 80.8672 36.1591C81.4732 36.1591 82.0017 36.2917 82.4524 36.5568C82.9032 36.822 83.2536 37.2008 83.5036 37.6932C83.7536 38.1818 83.8786 38.7652 83.8786 39.4432V45H81.4581V39.875C81.4619 39.3409 81.3255 38.9242 81.049 38.625C80.7725 38.322 80.3918 38.1705 79.907 38.1705C79.5812 38.1705 79.2933 38.2405 79.0433 38.3807C78.7971 38.5208 78.6039 38.7254 78.4638 38.9943C78.3274 39.2595 78.2573 39.5795 78.2536 39.9545Z" fill="white"/>
</g>
<g clip-path="url(#clip2_29_918)">
<path d="M33.1911 118V106.364H37.8501C38.7062 106.364 39.4202 106.491 39.9922 106.744C40.5642 106.998 40.9941 107.35 41.282 107.801C41.5698 108.248 41.7138 108.763 41.7138 109.347C41.7138 109.801 41.6229 110.201 41.4411 110.545C41.2592 110.886 41.0092 111.167 40.6911 111.386C40.3767 111.602 40.0168 111.756 39.6115 111.847V111.96C40.0547 111.979 40.4695 112.104 40.8558 112.335C41.246 112.566 41.5623 112.89 41.8047 113.307C42.0471 113.72 42.1683 114.212 42.1683 114.784C42.1683 115.402 42.0149 115.953 41.7081 116.438C41.4051 116.919 40.9562 117.299 40.3615 117.58C39.7668 117.86 39.0339 118 38.1626 118H33.1911ZM35.6513 115.989H37.657C38.3426 115.989 38.8426 115.858 39.157 115.597C39.4714 115.331 39.6286 114.979 39.6286 114.54C39.6286 114.218 39.5509 113.934 39.3956 113.688C39.2403 113.441 39.0187 113.248 38.7308 113.108C38.4467 112.968 38.1077 112.898 37.7138 112.898H35.6513V115.989ZM35.6513 111.233H37.4751C37.8123 111.233 38.1115 111.174 38.3729 111.057C38.638 110.936 38.8464 110.765 38.9979 110.545C39.1532 110.326 39.2308 110.062 39.2308 109.756C39.2308 109.335 39.0812 108.996 38.782 108.739C38.4865 108.481 38.0661 108.352 37.5206 108.352H35.6513V111.233ZM49.3203 114.284V109.273H51.7408V118H49.4169V116.415H49.326C49.129 116.926 48.8014 117.337 48.343 117.648C47.8885 117.958 47.3336 118.114 46.6783 118.114C46.0949 118.114 45.5817 117.981 45.1385 117.716C44.6953 117.451 44.3487 117.074 44.0987 116.585C43.8525 116.097 43.7275 115.511 43.7237 114.83V109.273H46.1442V114.398C46.148 114.913 46.2862 115.32 46.5589 115.619C46.8317 115.919 47.1972 116.068 47.6555 116.068C47.9472 116.068 48.2199 116.002 48.4737 115.869C48.7275 115.733 48.9321 115.532 49.0874 115.267C49.2464 115.002 49.3241 114.674 49.3203 114.284ZM58.3189 109.273V111.091H53.0632V109.273H58.3189ZM54.2564 107.182H56.6768V115.318C56.6768 115.542 56.7109 115.716 56.7791 115.841C56.8473 115.962 56.942 116.047 57.0632 116.097C57.1882 116.146 57.3321 116.17 57.495 116.17C57.6087 116.17 57.7223 116.161 57.8359 116.142C57.9496 116.119 58.0367 116.102 58.0973 116.091L58.478 117.892C58.3568 117.93 58.1863 117.973 57.9666 118.023C57.7469 118.076 57.4799 118.108 57.1655 118.119C56.5821 118.142 56.0708 118.064 55.6314 117.886C55.1958 117.708 54.8568 117.432 54.6143 117.057C54.3719 116.682 54.2526 116.208 54.2564 115.636V107.182ZM64.5376 109.273V111.091H59.282V109.273H64.5376ZM60.4751 107.182H62.8956V115.318C62.8956 115.542 62.9297 115.716 62.9979 115.841C63.0661 115.962 63.1607 116.047 63.282 116.097C63.407 116.146 63.5509 116.17 63.7138 116.17C63.8274 116.17 63.9411 116.161 64.0547 116.142C64.1683 116.119 64.2554 116.102 64.3161 116.091L64.6967 117.892C64.5755 117.93 64.4051 117.973 64.1854 118.023C63.9657 118.076 63.6986 118.108 63.3842 118.119C62.8009 118.142 62.2895 118.064 61.8501 117.886C61.4145 117.708 61.0755 117.432 60.8331 117.057C60.5907 116.682 60.4714 116.208 60.4751 115.636V107.182ZM69.9638 118.17C69.0812 118.17 68.3179 117.983 67.674 117.608C67.0339 117.229 66.5395 116.703 66.1911 116.028C65.8426 115.35 65.6683 114.564 65.6683 113.67C65.6683 112.769 65.8426 111.981 66.1911 111.307C66.5395 110.629 67.0339 110.102 67.674 109.727C68.3179 109.348 69.0812 109.159 69.9638 109.159C70.8464 109.159 71.6077 109.348 72.2479 109.727C72.8918 110.102 73.388 110.629 73.7365 111.307C74.085 111.981 74.2592 112.769 74.2592 113.67C74.2592 114.564 74.085 115.35 73.7365 116.028C73.388 116.703 72.8918 117.229 72.2479 117.608C71.6077 117.983 70.8464 118.17 69.9638 118.17ZM69.9751 116.295C70.3767 116.295 70.7119 116.182 70.9808 115.955C71.2498 115.723 71.4524 115.409 71.5888 115.011C71.7289 114.614 71.799 114.161 71.799 113.653C71.799 113.146 71.7289 112.693 71.5888 112.295C71.4524 111.898 71.2498 111.583 70.9808 111.352C70.7119 111.121 70.3767 111.006 69.9751 111.006C69.5698 111.006 69.2289 111.121 68.9524 111.352C68.6797 111.583 68.4732 111.898 68.3331 112.295C68.1967 112.693 68.1286 113.146 68.1286 113.653C68.1286 114.161 68.1967 114.614 68.3331 115.011C68.4732 115.409 68.6797 115.723 68.9524 115.955C69.2289 116.182 69.5698 116.295 69.9751 116.295ZM78.2536 112.955V118H75.8331V109.273H78.1399V110.812H78.2422C78.4354 110.305 78.7592 109.903 79.2138 109.608C79.6683 109.309 80.2195 109.159 80.8672 109.159C81.4732 109.159 82.0017 109.292 82.4524 109.557C82.9032 109.822 83.2536 110.201 83.5036 110.693C83.7536 111.182 83.8786 111.765 83.8786 112.443V118H81.4581V112.875C81.4619 112.341 81.3255 111.924 81.049 111.625C80.7725 111.322 80.3918 111.17 79.907 111.17C79.5812 111.17 79.2933 111.241 79.0433 111.381C78.7971 111.521 78.6039 111.725 78.4638 111.994C78.3274 112.259 78.2573 112.58 78.2536 112.955Z" fill="white"/>
</g>
<g clip-path="url(#clip3_29_918)">
<path d="M142.191 45V33.3636H146.85C147.706 33.3636 148.42 33.4905 148.992 33.7443C149.564 33.9981 149.994 34.3504 150.282 34.8011C150.57 35.2481 150.714 35.7633 150.714 36.3466C150.714 36.8011 150.623 37.2008 150.441 37.5455C150.259 37.8864 150.009 38.1667 149.691 38.3864C149.377 38.6023 149.017 38.7557 148.612 38.8466V38.9602C149.055 38.9792 149.469 39.1042 149.856 39.3352C150.246 39.5663 150.562 39.8902 150.805 40.3068C151.047 40.7197 151.168 41.2121 151.168 41.7841C151.168 42.4015 151.015 42.9527 150.708 43.4375C150.405 43.9186 149.956 44.2992 149.362 44.5795C148.767 44.8598 148.034 45 147.163 45H142.191ZM144.651 42.9886H146.657C147.343 42.9886 147.843 42.858 148.157 42.5966C148.471 42.3314 148.629 41.9792 148.629 41.5398C148.629 41.2178 148.551 40.9337 148.396 40.6875C148.24 40.4413 148.019 40.2481 147.731 40.108C147.447 39.9678 147.108 39.8977 146.714 39.8977H144.651V42.9886ZM144.651 38.233H146.475C146.812 38.233 147.112 38.1742 147.373 38.0568C147.638 37.9356 147.846 37.7652 147.998 37.5455C148.153 37.3258 148.231 37.0625 148.231 36.7557C148.231 36.3352 148.081 35.9962 147.782 35.7386C147.487 35.4811 147.066 35.3523 146.521 35.3523H144.651V38.233ZM158.32 41.2841V36.2727H160.741V45H158.417V43.4148H158.326C158.129 43.9261 157.801 44.3371 157.343 44.6477C156.888 44.9583 156.334 45.1136 155.678 45.1136C155.095 45.1136 154.582 44.9811 154.138 44.7159C153.695 44.4508 153.349 44.0739 153.099 43.5852C152.853 43.0966 152.728 42.5114 152.724 41.8295V36.2727H155.144V41.3977C155.148 41.9129 155.286 42.3201 155.559 42.6193C155.832 42.9186 156.197 43.0682 156.656 43.0682C156.947 43.0682 157.22 43.0019 157.474 42.8693C157.728 42.733 157.932 42.5322 158.087 42.267C158.246 42.0019 158.324 41.6742 158.32 41.2841ZM167.319 36.2727V38.0909H162.063V36.2727H167.319ZM163.256 34.1818H165.677V42.3182C165.677 42.5417 165.711 42.7159 165.779 42.8409C165.847 42.9621 165.942 43.0473 166.063 43.0966C166.188 43.1458 166.332 43.1705 166.495 43.1705C166.609 43.1705 166.722 43.161 166.836 43.142C166.95 43.1193 167.037 43.1023 167.097 43.0909L167.478 44.892C167.357 44.9299 167.186 44.9735 166.967 45.0227C166.747 45.0758 166.48 45.108 166.165 45.1193C165.582 45.142 165.071 45.0644 164.631 44.8864C164.196 44.7083 163.857 44.4318 163.614 44.0568C163.372 43.6818 163.253 43.2083 163.256 42.6364V34.1818ZM173.538 36.2727V38.0909H168.282V36.2727H173.538ZM169.475 34.1818H171.896V42.3182C171.896 42.5417 171.93 42.7159 171.998 42.8409C172.066 42.9621 172.161 43.0473 172.282 43.0966C172.407 43.1458 172.551 43.1705 172.714 43.1705C172.827 43.1705 172.941 43.161 173.055 43.142C173.168 43.1193 173.255 43.1023 173.316 43.0909L173.697 44.892C173.576 44.9299 173.405 44.9735 173.185 45.0227C172.966 45.0758 172.699 45.108 172.384 45.1193C171.801 45.142 171.29 45.0644 170.85 44.8864C170.415 44.7083 170.076 44.4318 169.833 44.0568C169.591 43.6818 169.471 43.2083 169.475 42.6364V34.1818ZM178.964 45.1705C178.081 45.1705 177.318 44.983 176.674 44.608C176.034 44.2292 175.54 43.7027 175.191 43.0284C174.843 42.3504 174.668 41.5644 174.668 40.6705C174.668 39.7689 174.843 38.9811 175.191 38.3068C175.54 37.6288 176.034 37.1023 176.674 36.7273C177.318 36.3485 178.081 36.1591 178.964 36.1591C179.846 36.1591 180.608 36.3485 181.248 36.7273C181.892 37.1023 182.388 37.6288 182.737 38.3068C183.085 38.9811 183.259 39.7689 183.259 40.6705C183.259 41.5644 183.085 42.3504 182.737 43.0284C182.388 43.7027 181.892 44.2292 181.248 44.608C180.608 44.983 179.846 45.1705 178.964 45.1705ZM178.975 43.2955C179.377 43.2955 179.712 43.1818 179.981 42.9545C180.25 42.7235 180.452 42.4091 180.589 42.0114C180.729 41.6136 180.799 41.161 180.799 40.6534C180.799 40.1458 180.729 39.6932 180.589 39.2955C180.452 38.8977 180.25 38.5833 179.981 38.3523C179.712 38.1212 179.377 38.0057 178.975 38.0057C178.57 38.0057 178.229 38.1212 177.952 38.3523C177.68 38.5833 177.473 38.8977 177.333 39.2955C177.197 39.6932 177.129 40.1458 177.129 40.6534C177.129 41.161 177.197 41.6136 177.333 42.0114C177.473 42.4091 177.68 42.7235 177.952 42.9545C178.229 43.1818 178.57 43.2955 178.975 43.2955ZM187.254 39.9545V45H184.833V36.2727H187.14V37.8125H187.242C187.435 37.3049 187.759 36.9034 188.214 36.608C188.668 36.3087 189.219 36.1591 189.867 36.1591C190.473 36.1591 191.002 36.2917 191.452 36.5568C191.903 36.822 192.254 37.2008 192.504 37.6932C192.754 38.1818 192.879 38.7652 192.879 39.4432V45H190.458V39.875C190.462 39.3409 190.326 38.9242 190.049 38.625C189.772 38.322 189.392 38.1705 188.907 38.1705C188.581 38.1705 188.293 38.2405 188.043 38.3807C187.797 38.5208 187.604 38.7254 187.464 38.9943C187.327 39.2595 187.257 39.5795 187.254 39.9545Z" fill="white"/>
<path d="M211.855 33.8756C211.303 33.8905 210.868 34.3502 210.883 34.9023C210.897 35.4543 211.357 35.8898 211.909 35.8749L213.761 35.8248L209.586 40C209.195 40.3906 209.195 41.0237 209.586 41.4142C209.976 41.8048 210.609 41.8048 211 41.4142L215.175 37.239L215.125 39.0909C215.11 39.6429 215.546 40.1026 216.098 40.1175C216.65 40.1324 217.11 39.697 217.124 39.1449L217.242 34.7844C217.25 34.5099 217.144 34.2444 216.95 34.0503C216.756 33.8561 216.49 33.7503 216.216 33.7578L211.855 33.8756Z" fill="white"/>
<path d="M206.464 37.4645C206.855 37.074 206.855 36.4408 206.464 36.0503C206.074 35.6598 205.441 35.6598 205.05 36.0503C202.317 38.7839 202.317 43.2161 205.05 45.9498C207.784 48.6834 212.216 48.6834 214.95 45.9498C215.34 45.5592 215.34 44.9261 214.95 44.5356C214.559 44.145 213.926 44.145 213.536 44.5356C211.583 46.4882 208.417 46.4882 206.464 44.5356C204.512 42.5829 204.512 39.4171 206.464 37.4645Z" fill="white"/>
</g>
<g clip-path="url(#clip4_29_918)">
<path d="M142.191 118V106.364H146.85C147.706 106.364 148.42 106.491 148.992 106.744C149.564 106.998 149.994 107.35 150.282 107.801C150.57 108.248 150.714 108.763 150.714 109.347C150.714 109.801 150.623 110.201 150.441 110.545C150.259 110.886 150.009 111.167 149.691 111.386C149.377 111.602 149.017 111.756 148.612 111.847V111.96C149.055 111.979 149.469 112.104 149.856 112.335C150.246 112.566 150.562 112.89 150.805 113.307C151.047 113.72 151.168 114.212 151.168 114.784C151.168 115.402 151.015 115.953 150.708 116.438C150.405 116.919 149.956 117.299 149.362 117.58C148.767 117.86 148.034 118 147.163 118H142.191ZM144.651 115.989H146.657C147.343 115.989 147.843 115.858 148.157 115.597C148.471 115.331 148.629 114.979 148.629 114.54C148.629 114.218 148.551 113.934 148.396 113.688C148.24 113.441 148.019 113.248 147.731 113.108C147.447 112.968 147.108 112.898 146.714 112.898H144.651V115.989ZM144.651 111.233H146.475C146.812 111.233 147.112 111.174 147.373 111.057C147.638 110.936 147.846 110.765 147.998 110.545C148.153 110.326 148.231 110.062 148.231 109.756C148.231 109.335 148.081 108.996 147.782 108.739C147.487 108.481 147.066 108.352 146.521 108.352H144.651V111.233ZM158.32 114.284V109.273H160.741V118H158.417V116.415H158.326C158.129 116.926 157.801 117.337 157.343 117.648C156.888 117.958 156.334 118.114 155.678 118.114C155.095 118.114 154.582 117.981 154.138 117.716C153.695 117.451 153.349 117.074 153.099 116.585C152.853 116.097 152.728 115.511 152.724 114.83V109.273H155.144V114.398C155.148 114.913 155.286 115.32 155.559 115.619C155.832 115.919 156.197 116.068 156.656 116.068C156.947 116.068 157.22 116.002 157.474 115.869C157.728 115.733 157.932 115.532 158.087 115.267C158.246 115.002 158.324 114.674 158.32 114.284ZM167.319 109.273V111.091H162.063V109.273H167.319ZM163.256 107.182H165.677V115.318C165.677 115.542 165.711 115.716 165.779 115.841C165.847 115.962 165.942 116.047 166.063 116.097C166.188 116.146 166.332 116.17 166.495 116.17C166.609 116.17 166.722 116.161 166.836 116.142C166.95 116.119 167.037 116.102 167.097 116.091L167.478 117.892C167.357 117.93 167.186 117.973 166.967 118.023C166.747 118.076 166.48 118.108 166.165 118.119C165.582 118.142 165.071 118.064 164.631 117.886C164.196 117.708 163.857 117.432 163.614 117.057C163.372 116.682 163.253 116.208 163.256 115.636V107.182ZM173.538 109.273V111.091H168.282V109.273H173.538ZM169.475 107.182H171.896V115.318C171.896 115.542 171.93 115.716 171.998 115.841C172.066 115.962 172.161 116.047 172.282 116.097C172.407 116.146 172.551 116.17 172.714 116.17C172.827 116.17 172.941 116.161 173.055 116.142C173.168 116.119 173.255 116.102 173.316 116.091L173.697 117.892C173.576 117.93 173.405 117.973 173.185 118.023C172.966 118.076 172.699 118.108 172.384 118.119C171.801 118.142 171.29 118.064 170.85 117.886C170.415 117.708 170.076 117.432 169.833 117.057C169.591 116.682 169.471 116.208 169.475 115.636V107.182ZM178.964 118.17C178.081 118.17 177.318 117.983 176.674 117.608C176.034 117.229 175.54 116.703 175.191 116.028C174.843 115.35 174.668 114.564 174.668 113.67C174.668 112.769 174.843 111.981 175.191 111.307C175.54 110.629 176.034 110.102 176.674 109.727C177.318 109.348 178.081 109.159 178.964 109.159C179.846 109.159 180.608 109.348 181.248 109.727C181.892 110.102 182.388 110.629 182.737 111.307C183.085 111.981 183.259 112.769 183.259 113.67C183.259 114.564 183.085 115.35 182.737 116.028C182.388 116.703 181.892 117.229 181.248 117.608C180.608 117.983 179.846 118.17 178.964 118.17ZM178.975 116.295C179.377 116.295 179.712 116.182 179.981 115.955C180.25 115.723 180.452 115.409 180.589 115.011C180.729 114.614 180.799 114.161 180.799 113.653C180.799 113.146 180.729 112.693 180.589 112.295C180.452 111.898 180.25 111.583 179.981 111.352C179.712 111.121 179.377 111.006 178.975 111.006C178.57 111.006 178.229 111.121 177.952 111.352C177.68 111.583 177.473 111.898 177.333 112.295C177.197 112.693 177.129 113.146 177.129 113.653C177.129 114.161 177.197 114.614 177.333 115.011C177.473 115.409 177.68 115.723 177.952 115.955C178.229 116.182 178.57 116.295 178.975 116.295ZM187.254 112.955V118H184.833V109.273H187.14V110.812H187.242C187.435 110.305 187.759 109.903 188.214 109.608C188.668 109.309 189.219 109.159 189.867 109.159C190.473 109.159 191.002 109.292 191.452 109.557C191.903 109.822 192.254 110.201 192.504 110.693C192.754 111.182 192.879 111.765 192.879 112.443V118H190.458V112.875C190.462 112.341 190.326 111.924 190.049 111.625C189.772 111.322 189.392 111.17 188.907 111.17C188.581 111.17 188.293 111.241 188.043 111.381C187.797 111.521 187.604 111.725 187.464 111.994C187.327 112.259 187.257 112.58 187.254 112.955Z" fill="white"/>
</g>
<g clip-path="url(#clip5_29_918)">
<path opacity="0.6" d="M275.191 45V33.3636H279.85C280.706 33.3636 281.42 33.4905 281.992 33.7443C282.564 33.9981 282.994 34.3504 283.282 34.8011C283.57 35.2481 283.714 35.7633 283.714 36.3466C283.714 36.8011 283.623 37.2008 283.441 37.5455C283.259 37.8864 283.009 38.1667 282.691 38.3864C282.377 38.6023 282.017 38.7557 281.612 38.8466V38.9602C282.055 38.9792 282.469 39.1042 282.856 39.3352C283.246 39.5663 283.562 39.8902 283.805 40.3068C284.047 40.7197 284.168 41.2121 284.168 41.7841C284.168 42.4015 284.015 42.9527 283.708 43.4375C283.405 43.9186 282.956 44.2992 282.362 44.5795C281.767 44.8598 281.034 45 280.163 45H275.191ZM277.651 42.9886H279.657C280.343 42.9886 280.843 42.858 281.157 42.5966C281.471 42.3314 281.629 41.9792 281.629 41.5398C281.629 41.2178 281.551 40.9337 281.396 40.6875C281.24 40.4413 281.019 40.2481 280.731 40.108C280.447 39.9678 280.108 39.8977 279.714 39.8977H277.651V42.9886ZM277.651 38.233H279.475C279.812 38.233 280.112 38.1742 280.373 38.0568C280.638 37.9356 280.846 37.7652 280.998 37.5455C281.153 37.3258 281.231 37.0625 281.231 36.7557C281.231 36.3352 281.081 35.9962 280.782 35.7386C280.487 35.4811 280.066 35.3523 279.521 35.3523H277.651V38.233ZM291.32 41.2841V36.2727H293.741V45H291.417V43.4148H291.326C291.129 43.9261 290.801 44.3371 290.343 44.6477C289.888 44.9583 289.334 45.1136 288.678 45.1136C288.095 45.1136 287.582 44.9811 287.138 44.7159C286.695 44.4508 286.349 44.0739 286.099 43.5852C285.853 43.0966 285.728 42.5114 285.724 41.8295V36.2727H288.144V41.3977C288.148 41.9129 288.286 42.3201 288.559 42.6193C288.832 42.9186 289.197 43.0682 289.656 43.0682C289.947 43.0682 290.22 43.0019 290.474 42.8693C290.728 42.733 290.932 42.5322 291.087 42.267C291.246 42.0019 291.324 41.6742 291.32 41.2841ZM300.319 36.2727V38.0909H295.063V36.2727H300.319ZM296.256 34.1818H298.677V42.3182C298.677 42.5417 298.711 42.7159 298.779 42.8409C298.847 42.9621 298.942 43.0473 299.063 43.0966C299.188 43.1458 299.332 43.1705 299.495 43.1705C299.609 43.1705 299.722 43.161 299.836 43.142C299.95 43.1193 300.037 43.1023 300.097 43.0909L300.478 44.892C300.357 44.9299 300.186 44.9735 299.967 45.0227C299.747 45.0758 299.48 45.108 299.165 45.1193C298.582 45.142 298.071 45.0644 297.631 44.8864C297.196 44.7083 296.857 44.4318 296.614 44.0568C296.372 43.6818 296.253 43.2083 296.256 42.6364V34.1818ZM306.538 36.2727V38.0909H301.282V36.2727H306.538ZM302.475 34.1818H304.896V42.3182C304.896 42.5417 304.93 42.7159 304.998 42.8409C305.066 42.9621 305.161 43.0473 305.282 43.0966C305.407 43.1458 305.551 43.1705 305.714 43.1705C305.827 43.1705 305.941 43.161 306.055 43.142C306.168 43.1193 306.255 43.1023 306.316 43.0909L306.697 44.892C306.576 44.9299 306.405 44.9735 306.185 45.0227C305.966 45.0758 305.699 45.108 305.384 45.1193C304.801 45.142 304.29 45.0644 303.85 44.8864C303.415 44.7083 303.076 44.4318 302.833 44.0568C302.591 43.6818 302.471 43.2083 302.475 42.6364V34.1818ZM311.964 45.1705C311.081 45.1705 310.318 44.983 309.674 44.608C309.034 44.2292 308.54 43.7027 308.191 43.0284C307.843 42.3504 307.668 41.5644 307.668 40.6705C307.668 39.7689 307.843 38.9811 308.191 38.3068C308.54 37.6288 309.034 37.1023 309.674 36.7273C310.318 36.3485 311.081 36.1591 311.964 36.1591C312.846 36.1591 313.608 36.3485 314.248 36.7273C314.892 37.1023 315.388 37.6288 315.737 38.3068C316.085 38.9811 316.259 39.7689 316.259 40.6705C316.259 41.5644 316.085 42.3504 315.737 43.0284C315.388 43.7027 314.892 44.2292 314.248 44.608C313.608 44.983 312.846 45.1705 311.964 45.1705ZM311.975 43.2955C312.377 43.2955 312.712 43.1818 312.981 42.9545C313.25 42.7235 313.452 42.4091 313.589 42.0114C313.729 41.6136 313.799 41.161 313.799 40.6534C313.799 40.1458 313.729 39.6932 313.589 39.2955C313.452 38.8977 313.25 38.5833 312.981 38.3523C312.712 38.1212 312.377 38.0057 311.975 38.0057C311.57 38.0057 311.229 38.1212 310.952 38.3523C310.68 38.5833 310.473 38.8977 310.333 39.2955C310.197 39.6932 310.129 40.1458 310.129 40.6534C310.129 41.161 310.197 41.6136 310.333 42.0114C310.473 42.4091 310.68 42.7235 310.952 42.9545C311.229 43.1818 311.57 43.2955 311.975 43.2955ZM320.254 39.9545V45H317.833V36.2727H320.14V37.8125H320.242C320.435 37.3049 320.759 36.9034 321.214 36.608C321.668 36.3087 322.219 36.1591 322.867 36.1591C323.473 36.1591 324.002 36.2917 324.452 36.5568C324.903 36.822 325.254 37.2008 325.504 37.6932C325.754 38.1818 325.879 38.7652 325.879 39.4432V45H323.458V39.875C323.462 39.3409 323.326 38.9242 323.049 38.625C322.772 38.322 322.392 38.1705 321.907 38.1705C321.581 38.1705 321.293 38.2405 321.043 38.3807C320.797 38.5208 320.604 38.7254 320.464 38.9943C320.327 39.2595 320.257 39.5795 320.254 39.9545Z" fill="white"/>
<g opacity="0.6">
<path d="M344.855 33.8756C344.303 33.8905 343.868 34.3502 343.883 34.9023C343.897 35.4543 344.357 35.8898 344.909 35.8749L346.761 35.8248L342.586 40C342.195 40.3906 342.195 41.0237 342.586 41.4142C342.976 41.8048 343.609 41.8048 344 41.4142L348.175 37.239L348.125 39.0909C348.11 39.6429 348.546 40.1026 349.098 40.1175C349.65 40.1324 350.11 39.697 350.124 39.1449L350.242 34.7844C350.25 34.5099 350.144 34.2444 349.95 34.0503C349.756 33.8561 349.49 33.7503 349.216 33.7578L344.855 33.8756Z" fill="white"/>
<path d="M339.464 37.4645C339.855 37.074 339.855 36.4408 339.464 36.0503C339.074 35.6598 338.441 35.6598 338.05 36.0503C335.317 38.7839 335.317 43.2161 338.05 45.9498C340.784 48.6834 345.216 48.6834 347.95 45.9498C348.34 45.5592 348.34 44.9261 347.95 44.5356C347.559 44.145 346.926 44.145 346.536 44.5356C344.583 46.4882 341.417 46.4882 339.464 44.5356C337.512 42.5829 337.512 39.4171 339.464 37.4645Z" fill="white"/>
</g>
</g>
<g opacity="0.6" clip-path="url(#clip6_29_918)">
<path d="M275.191 118V106.364H279.85C280.706 106.364 281.42 106.491 281.992 106.744C282.564 106.998 282.994 107.35 283.282 107.801C283.57 108.248 283.714 108.763 283.714 109.347C283.714 109.801 283.623 110.201 283.441 110.545C283.259 110.886 283.009 111.167 282.691 111.386C282.377 111.602 282.017 111.756 281.612 111.847V111.96C282.055 111.979 282.469 112.104 282.856 112.335C283.246 112.566 283.562 112.89 283.805 113.307C284.047 113.72 284.168 114.212 284.168 114.784C284.168 115.402 284.015 115.953 283.708 116.438C283.405 116.919 282.956 117.299 282.362 117.58C281.767 117.86 281.034 118 280.163 118H275.191ZM277.651 115.989H279.657C280.343 115.989 280.843 115.858 281.157 115.597C281.471 115.331 281.629 114.979 281.629 114.54C281.629 114.218 281.551 113.934 281.396 113.688C281.24 113.441 281.019 113.248 280.731 113.108C280.447 112.968 280.108 112.898 279.714 112.898H277.651V115.989ZM277.651 111.233H279.475C279.812 111.233 280.112 111.174 280.373 111.057C280.638 110.936 280.846 110.765 280.998 110.545C281.153 110.326 281.231 110.062 281.231 109.756C281.231 109.335 281.081 108.996 280.782 108.739C280.487 108.481 280.066 108.352 279.521 108.352H277.651V111.233ZM291.32 114.284V109.273H293.741V118H291.417V116.415H291.326C291.129 116.926 290.801 117.337 290.343 117.648C289.888 117.958 289.334 118.114 288.678 118.114C288.095 118.114 287.582 117.981 287.138 117.716C286.695 117.451 286.349 117.074 286.099 116.585C285.853 116.097 285.728 115.511 285.724 114.83V109.273H288.144V114.398C288.148 114.913 288.286 115.32 288.559 115.619C288.832 115.919 289.197 116.068 289.656 116.068C289.947 116.068 290.22 116.002 290.474 115.869C290.728 115.733 290.932 115.532 291.087 115.267C291.246 115.002 291.324 114.674 291.32 114.284ZM300.319 109.273V111.091H295.063V109.273H300.319ZM296.256 107.182H298.677V115.318C298.677 115.542 298.711 115.716 298.779 115.841C298.847 115.962 298.942 116.047 299.063 116.097C299.188 116.146 299.332 116.17 299.495 116.17C299.609 116.17 299.722 116.161 299.836 116.142C299.95 116.119 300.037 116.102 300.097 116.091L300.478 117.892C300.357 117.93 300.186 117.973 299.967 118.023C299.747 118.076 299.48 118.108 299.165 118.119C298.582 118.142 298.071 118.064 297.631 117.886C297.196 117.708 296.857 117.432 296.614 117.057C296.372 116.682 296.253 116.208 296.256 115.636V107.182ZM306.538 109.273V111.091H301.282V109.273H306.538ZM302.475 107.182H304.896V115.318C304.896 115.542 304.93 115.716 304.998 115.841C305.066 115.962 305.161 116.047 305.282 116.097C305.407 116.146 305.551 116.17 305.714 116.17C305.827 116.17 305.941 116.161 306.055 116.142C306.168 116.119 306.255 116.102 306.316 116.091L306.697 117.892C306.576 117.93 306.405 117.973 306.185 118.023C305.966 118.076 305.699 118.108 305.384 118.119C304.801 118.142 304.29 118.064 303.85 117.886C303.415 117.708 303.076 117.432 302.833 117.057C302.591 116.682 302.471 116.208 302.475 115.636V107.182ZM311.964 118.17C311.081 118.17 310.318 117.983 309.674 117.608C309.034 117.229 308.54 116.703 308.191 116.028C307.843 115.35 307.668 114.564 307.668 113.67C307.668 112.769 307.843 111.981 308.191 111.307C308.54 110.629 309.034 110.102 309.674 109.727C310.318 109.348 311.081 109.159 311.964 109.159C312.846 109.159 313.608 109.348 314.248 109.727C314.892 110.102 315.388 110.629 315.737 111.307C316.085 111.981 316.259 112.769 316.259 113.67C316.259 114.564 316.085 115.35 315.737 116.028C315.388 116.703 314.892 117.229 314.248 117.608C313.608 117.983 312.846 118.17 311.964 118.17ZM311.975 116.295C312.377 116.295 312.712 116.182 312.981 115.955C313.25 115.723 313.452 115.409 313.589 115.011C313.729 114.614 313.799 114.161 313.799 113.653C313.799 113.146 313.729 112.693 313.589 112.295C313.452 111.898 313.25 111.583 312.981 111.352C312.712 111.121 312.377 111.006 311.975 111.006C311.57 111.006 311.229 111.121 310.952 111.352C310.68 111.583 310.473 111.898 310.333 112.295C310.197 112.693 310.129 113.146 310.129 113.653C310.129 114.161 310.197 114.614 310.333 115.011C310.473 115.409 310.68 115.723 310.952 115.955C311.229 116.182 311.57 116.295 311.975 116.295ZM320.254 112.955V118H317.833V109.273H320.14V110.812H320.242C320.435 110.305 320.759 109.903 321.214 109.608C321.668 109.309 322.219 109.159 322.867 109.159C323.473 109.159 324.002 109.292 324.452 109.557C324.903 109.822 325.254 110.201 325.504 110.693C325.754 111.182 325.879 111.765 325.879 112.443V118H323.458V112.875C323.462 112.341 323.326 111.924 323.049 111.625C322.772 111.322 322.392 111.17 321.907 111.17C321.581 111.17 321.293 111.241 321.043 111.381C320.797 111.521 320.604 111.725 320.464 111.994C320.327 112.259 320.257 112.58 320.254 112.955Z" fill="white"/>
</g>
</g>
<rect x="0.5" y="0.5" width="373" height="161" rx="4.5" stroke="#9747FF" stroke-dasharray="10 5"/>
<defs>
<clipPath id="clip0_29_918">
<rect width="374" height="162" rx="5" fill="white"/>
</clipPath>
<clipPath id="clip1_29_918">
<rect width="53" height="24" fill="white" transform="translate(32 29)"/>
</clipPath>
<clipPath id="clip2_29_918">
<rect width="53" height="24" fill="white" transform="translate(32 102)"/>
</clipPath>
<clipPath id="clip3_29_918">
<rect width="77" height="24" fill="white" transform="translate(141 29)"/>
</clipPath>
<clipPath id="clip4_29_918">
<rect width="53" height="24" fill="white" transform="translate(141 102)"/>
</clipPath>
<clipPath id="clip5_29_918">
<rect width="77" height="24" fill="white" transform="translate(274 29)"/>
</clipPath>
<clipPath id="clip6_29_918">
<rect width="53" height="24" fill="white" transform="translate(274 102)"/>
</clipPath>
</defs>
</svg>
