<svg width="140" height="96" viewBox="0 0 140 96" fill="none" xmlns="http://www.w3.org/2000/svg">
<g clip-path="url(#clip0_21_547)">
<path d="M17.4645 32V20.3636H22.0554C22.9342 20.3636 23.6842 20.5208 24.3054 20.8352C24.9304 21.1458 25.4058 21.5871 25.7315 22.1591C26.0611 22.7273 26.2259 23.3958 26.2259 24.1648C26.2259 24.9375 26.0592 25.6023 25.7259 26.1591C25.3925 26.7121 24.9096 27.1364 24.277 27.4318C23.6482 27.7273 22.8868 27.875 21.9929 27.875H18.919V25.8977H21.5952C22.0649 25.8977 22.455 25.8333 22.7656 25.7045C23.0762 25.5758 23.3073 25.3826 23.4588 25.125C23.6141 24.8674 23.6918 24.5473 23.6918 24.1648C23.6918 23.7784 23.6141 23.4527 23.4588 23.1875C23.3073 22.9223 23.0743 22.7216 22.7599 22.5852C22.4493 22.4451 22.0573 22.375 21.5838 22.375H19.9247V32H17.4645ZM23.7486 26.7045L26.6406 32H23.9247L21.0952 26.7045H23.7486ZM31.7557 32.1705C30.858 32.1705 30.0852 31.9886 29.4375 31.625C28.7936 31.2576 28.2973 30.7386 27.9489 30.0682C27.6004 29.3939 27.4261 28.5966 27.4261 27.6761C27.4261 26.7784 27.6004 25.9905 27.9489 25.3125C28.2973 24.6345 28.7879 24.1061 29.4205 23.7273C30.0568 23.3485 30.803 23.1591 31.6591 23.1591C32.2348 23.1591 32.7708 23.2519 33.267 23.4375C33.767 23.6193 34.2027 23.8939 34.5739 24.2614C34.9489 24.6288 35.2405 25.0909 35.4489 25.6477C35.6572 26.2008 35.7614 26.8485 35.7614 27.5909V28.2557H28.392V26.7557H33.483C33.483 26.4072 33.4072 26.0985 33.2557 25.8295C33.1042 25.5606 32.8939 25.3504 32.625 25.1989C32.3598 25.0436 32.0511 24.9659 31.6989 24.9659C31.3314 24.9659 31.0057 25.0511 30.7216 25.2216C30.4413 25.3883 30.2216 25.6136 30.0625 25.8977C29.9034 26.178 29.822 26.4905 29.8182 26.8352V28.2614C29.8182 28.6932 29.8977 29.0663 30.0568 29.3807C30.2197 29.6951 30.4489 29.9375 30.7443 30.108C31.0398 30.2784 31.3902 30.3636 31.7955 30.3636C32.0644 30.3636 32.3106 30.3258 32.5341 30.25C32.7576 30.1742 32.9489 30.0606 33.108 29.9091C33.267 29.7576 33.3883 29.572 33.4716 29.3523L35.7102 29.5C35.5966 30.0379 35.3636 30.5076 35.0114 30.9091C34.6629 31.3068 34.2121 31.6174 33.6591 31.8409C33.1098 32.0606 32.4754 32.1705 31.7557 32.1705ZM44.6023 25.7614L42.3864 25.8977C42.3485 25.7083 42.267 25.5379 42.142 25.3864C42.017 25.2311 41.8523 25.108 41.6477 25.017C41.447 24.9223 41.2064 24.875 40.9261 24.875C40.5511 24.875 40.2348 24.9545 39.9773 25.1136C39.7197 25.2689 39.5909 25.4773 39.5909 25.7386C39.5909 25.947 39.6742 26.1231 39.8409 26.267C40.0076 26.411 40.2936 26.5265 40.6989 26.6136L42.2784 26.9318C43.1269 27.1061 43.7595 27.3864 44.1761 27.7727C44.5928 28.1591 44.8011 28.6667 44.8011 29.2955C44.8011 29.8674 44.6326 30.3693 44.2955 30.8011C43.9621 31.233 43.5038 31.5701 42.9205 31.8125C42.3409 32.0511 41.6723 32.1705 40.9148 32.1705C39.7595 32.1705 38.839 31.9299 38.1534 31.4489C37.4716 30.964 37.072 30.3049 36.9545 29.4716L39.3352 29.3466C39.4072 29.6989 39.5814 29.9678 39.858 30.1534C40.1345 30.3352 40.4886 30.4261 40.9205 30.4261C41.3447 30.4261 41.6856 30.3447 41.9432 30.1818C42.2045 30.0152 42.3371 29.8011 42.3409 29.5398C42.3371 29.3201 42.2443 29.1402 42.0625 29C41.8807 28.8561 41.6004 28.7462 41.2216 28.6705L39.7102 28.3693C38.858 28.1989 38.2235 27.9034 37.8068 27.483C37.3939 27.0625 37.1875 26.5265 37.1875 25.875C37.1875 25.3144 37.339 24.8314 37.642 24.4261C37.9489 24.0208 38.3788 23.7083 38.9318 23.4886C39.4886 23.2689 40.1402 23.1591 40.8864 23.1591C41.9886 23.1591 42.8561 23.392 43.4886 23.858C44.125 24.3239 44.4962 24.9583 44.6023 25.7614ZM50.3026 32.1705C49.4048 32.1705 48.6321 31.9886 47.9844 31.625C47.3404 31.2576 46.8442 30.7386 46.4957 30.0682C46.1473 29.3939 45.973 28.5966 45.973 27.6761C45.973 26.7784 46.1473 25.9905 46.4957 25.3125C46.8442 24.6345 47.3348 24.1061 47.9673 23.7273C48.6037 23.3485 49.3499 23.1591 50.206 23.1591C50.7817 23.1591 51.3177 23.2519 51.8139 23.4375C52.3139 23.6193 52.7495 23.8939 53.1207 24.2614C53.4957 24.6288 53.7874 25.0909 53.9957 25.6477C54.2041 26.2008 54.3082 26.8485 54.3082 27.5909V28.2557H46.9389V26.7557H52.0298C52.0298 26.4072 51.9541 26.0985 51.8026 25.8295C51.651 25.5606 51.4408 25.3504 51.1719 25.1989C50.9067 25.0436 50.598 24.9659 50.2457 24.9659C49.8783 24.9659 49.5526 25.0511 49.2685 25.2216C48.9882 25.3883 48.7685 25.6136 48.6094 25.8977C48.4503 26.178 48.3688 26.4905 48.3651 26.8352V28.2614C48.3651 28.6932 48.4446 29.0663 48.6037 29.3807C48.7666 29.6951 48.9957 29.9375 49.2912 30.108C49.5866 30.2784 49.937 30.3636 50.3423 30.3636C50.6113 30.3636 50.8575 30.3258 51.081 30.25C51.3045 30.1742 51.4957 30.0606 51.6548 29.9091C51.8139 29.7576 51.9351 29.572 52.0185 29.3523L54.2571 29.5C54.1435 30.0379 53.9105 30.5076 53.5582 30.9091C53.2098 31.3068 52.759 31.6174 52.206 31.8409C51.6567 32.0606 51.0223 32.1705 50.3026 32.1705ZM58.3082 26.9545V32H55.8878V23.2727H58.1946V24.8125H58.2969C58.4901 24.3049 58.8139 23.9034 59.2685 23.608C59.723 23.3087 60.2741 23.1591 60.9219 23.1591C61.5279 23.1591 62.0563 23.2917 62.5071 23.5568C62.9579 23.822 63.3082 24.2008 63.5582 24.6932C63.8082 25.1818 63.9332 25.7652 63.9332 26.4432V32H61.5128V26.875C61.5166 26.3409 61.3802 25.9242 61.1037 25.625C60.8272 25.322 60.4465 25.1705 59.9616 25.1705C59.6359 25.1705 59.348 25.2405 59.098 25.3807C58.8518 25.5208 58.6586 25.7254 58.5185 25.9943C58.3821 26.2595 58.312 26.5795 58.3082 26.9545ZM69.0568 32.142C68.3939 32.142 67.7936 31.9716 67.2557 31.6307C66.7216 31.286 66.2973 30.7803 65.983 30.1136C65.6723 29.4432 65.517 28.6212 65.517 27.6477C65.517 26.6477 65.678 25.8163 66 25.1534C66.322 24.4867 66.75 23.9886 67.2841 23.6591C67.822 23.3258 68.411 23.1591 69.0511 23.1591C69.5398 23.1591 69.947 23.2424 70.2727 23.4091C70.6023 23.572 70.8674 23.7765 71.0682 24.0227C71.2727 24.2652 71.428 24.5038 71.5341 24.7386H71.608V20.3636H74.0227V32H71.6364V30.6023H71.5341C71.4205 30.8447 71.2595 31.0852 71.0511 31.3239C70.8466 31.5587 70.5795 31.7538 70.25 31.9091C69.9242 32.0644 69.5265 32.142 69.0568 32.142ZM69.8239 30.2159C70.214 30.2159 70.5436 30.1098 70.8125 29.8977C71.0852 29.6818 71.2936 29.3807 71.4375 28.9943C71.5852 28.608 71.6591 28.1553 71.6591 27.6364C71.6591 27.1174 71.5871 26.6667 71.4432 26.2841C71.2992 25.9015 71.0909 25.6061 70.8182 25.3977C70.5455 25.1894 70.214 25.0852 69.8239 25.0852C69.4261 25.0852 69.0909 25.1932 68.8182 25.4091C68.5455 25.625 68.339 25.9242 68.1989 26.3068C68.0587 26.6894 67.9886 27.1326 67.9886 27.6364C67.9886 28.1439 68.0587 28.5928 68.1989 28.983C68.3428 29.3693 68.5492 29.6723 68.8182 29.892C69.0909 30.108 69.4261 30.2159 69.8239 30.2159ZM84.2557 32.2557C83.2784 32.2519 82.4375 32.0114 81.733 31.5341C81.0322 31.0568 80.4924 30.3655 80.1136 29.4602C79.7386 28.5549 79.553 27.4659 79.5568 26.1932C79.5568 24.9242 79.7443 23.8428 80.1193 22.9489C80.4981 22.0549 81.0379 21.375 81.7386 20.9091C82.4432 20.4394 83.2822 20.2045 84.2557 20.2045C85.2292 20.2045 86.0663 20.4394 86.767 20.9091C87.4716 21.3788 88.0133 22.0606 88.392 22.9545C88.7708 23.8447 88.9583 24.9242 88.9545 26.1932C88.9545 27.4697 88.7652 28.5606 88.3864 29.4659C88.0114 30.3712 87.4735 31.0625 86.7727 31.5398C86.072 32.017 85.233 32.2557 84.2557 32.2557ZM84.2557 30.2159C84.9223 30.2159 85.4545 29.8807 85.8523 29.2102C86.25 28.5398 86.447 27.5341 86.4432 26.1932C86.4432 25.3106 86.3523 24.5758 86.1705 23.9886C85.9924 23.4015 85.7386 22.9602 85.4091 22.6648C85.0833 22.3693 84.6989 22.2216 84.2557 22.2216C83.5928 22.2216 83.0625 22.553 82.6648 23.2159C82.267 23.8788 82.0663 24.8712 82.0625 26.1932C82.0625 27.0871 82.1515 27.8333 82.3295 28.4318C82.5114 29.0265 82.767 29.4735 83.0966 29.7727C83.4261 30.0682 83.8125 30.2159 84.2557 30.2159ZM95.2713 32.2557C94.294 32.2519 93.4531 32.0114 92.7486 31.5341C92.0478 31.0568 91.508 30.3655 91.1293 29.4602C90.7543 28.5549 90.5687 27.4659 90.5724 26.1932C90.5724 24.9242 90.7599 23.8428 91.1349 22.9489C91.5137 22.0549 92.0535 21.375 92.7543 20.9091C93.4588 20.4394 94.2978 20.2045 95.2713 20.2045C96.2448 20.2045 97.0819 20.4394 97.7827 20.9091C98.4872 21.3788 99.0289 22.0606 99.4077 22.9545C99.7865 23.8447 99.974 24.9242 99.9702 26.1932C99.9702 27.4697 99.7808 28.5606 99.402 29.4659C99.027 30.3712 98.4891 31.0625 97.7884 31.5398C97.0876 32.017 96.2486 32.2557 95.2713 32.2557ZM95.2713 30.2159C95.938 30.2159 96.4702 29.8807 96.8679 29.2102C97.2656 28.5398 97.4626 27.5341 97.4588 26.1932C97.4588 25.3106 97.3679 24.5758 97.1861 23.9886C97.008 23.4015 96.7543 22.9602 96.4247 22.6648C96.099 22.3693 95.7145 22.2216 95.2713 22.2216C94.6084 22.2216 94.0781 22.553 93.6804 23.2159C93.2827 23.8788 93.0819 24.8712 93.0781 26.1932C93.0781 27.0871 93.1671 27.8333 93.3452 28.4318C93.527 29.0265 93.7827 29.4735 94.1122 29.7727C94.4418 30.0682 94.8281 30.2159 95.2713 30.2159ZM103.162 30.6477C102.787 30.6477 102.465 30.5152 102.196 30.25C101.931 29.9848 101.798 29.6629 101.798 29.2841C101.798 28.9129 101.931 28.5947 102.196 28.3295C102.465 28.0644 102.787 27.9318 103.162 27.9318C103.526 27.9318 103.844 28.0644 104.116 28.3295C104.389 28.5947 104.526 28.9129 104.526 29.2841C104.526 29.5341 104.461 29.7633 104.332 29.9716C104.207 30.1761 104.043 30.3409 103.838 30.4659C103.634 30.5871 103.408 30.6477 103.162 30.6477ZM103.162 24.9375C102.787 24.9375 102.465 24.8049 102.196 24.5398C101.931 24.2746 101.798 23.9527 101.798 23.5739C101.798 23.2027 101.931 22.8864 102.196 22.625C102.465 22.3598 102.787 22.2273 103.162 22.2273C103.526 22.2273 103.844 22.3598 104.116 22.625C104.389 22.8864 104.526 23.2027 104.526 23.5739C104.526 23.8277 104.461 24.0587 104.332 24.267C104.207 24.4716 104.043 24.6345 103.838 24.7557C103.634 24.8769 103.408 24.9375 103.162 24.9375Z" fill="#CACACE"/>
</g>
<g clip-path="url(#clip1_21_547)">
<path d="M112.006 20.3636V32H109.545V22.6989H109.477L106.812 24.3693V22.1875L109.693 20.3636H112.006ZM119.334 32.2557C118.357 32.2519 117.516 32.0114 116.811 31.5341C116.11 31.0568 115.571 30.3655 115.192 29.4602C114.817 28.5549 114.631 27.4659 114.635 26.1932C114.635 24.9242 114.822 23.8428 115.197 22.9489C115.576 22.0549 116.116 21.375 116.817 20.9091C117.521 20.4394 118.36 20.2045 119.334 20.2045C120.307 20.2045 121.144 20.4394 121.845 20.9091C122.55 21.3788 123.091 22.0606 123.47 22.9545C123.849 23.8447 124.036 24.9242 124.033 26.1932C124.033 27.4697 123.843 28.5606 123.464 29.4659C123.089 30.3712 122.552 31.0625 121.851 31.5398C121.15 32.017 120.311 32.2557 119.334 32.2557ZM119.334 30.2159C120 30.2159 120.533 29.8807 120.93 29.2102C121.328 28.5398 121.525 27.5341 121.521 26.1932C121.521 25.3106 121.43 24.5758 121.249 23.9886C121.071 23.4015 120.817 22.9602 120.487 22.6648C120.161 22.3693 119.777 22.2216 119.334 22.2216C118.671 22.2216 118.141 22.553 117.743 23.2159C117.345 23.8788 117.144 24.8712 117.141 26.1932C117.141 27.0871 117.23 27.8333 117.408 28.4318C117.589 29.0265 117.845 29.4735 118.175 29.7727C118.504 30.0682 118.891 30.2159 119.334 30.2159ZM111.506 56.2557C110.528 56.2519 109.688 56.0114 108.983 55.5341C108.282 55.0568 107.742 54.3655 107.364 53.4602C106.989 52.5549 106.803 51.4659 106.807 50.1932C106.807 48.9242 106.994 47.8428 107.369 46.9489C107.748 46.0549 108.288 45.375 108.989 44.9091C109.693 44.4394 110.532 44.2045 111.506 44.2045C112.479 44.2045 113.316 44.4394 114.017 44.9091C114.722 45.3788 115.263 46.0606 115.642 46.9545C116.021 47.8447 116.208 48.9242 116.205 50.1932C116.205 51.4697 116.015 52.5606 115.636 53.4659C115.261 54.3712 114.723 55.0625 114.023 55.5398C113.322 56.017 112.483 56.2557 111.506 56.2557ZM111.506 54.2159C112.172 54.2159 112.705 53.8807 113.102 53.2102C113.5 52.5398 113.697 51.5341 113.693 50.1932C113.693 49.3106 113.602 48.5758 113.42 47.9886C113.242 47.4015 112.989 46.9602 112.659 46.6648C112.333 46.3693 111.949 46.2216 111.506 46.2216C110.843 46.2216 110.313 46.553 109.915 47.2159C109.517 47.8788 109.316 48.8712 109.312 50.1932C109.312 51.0871 109.402 51.8333 109.58 52.4318C109.761 53.0265 110.017 53.4735 110.347 53.7727C110.676 54.0682 111.062 54.2159 111.506 54.2159ZM122.169 44.2045C122.768 44.2045 123.343 44.3049 123.896 44.5057C124.453 44.7064 124.949 45.0265 125.385 45.4659C125.824 45.9053 126.171 46.4886 126.425 47.2159C126.682 47.9394 126.813 48.8277 126.817 49.8807C126.817 50.8693 126.705 51.7519 126.482 52.5284C126.262 53.3011 125.946 53.9583 125.533 54.5C125.12 55.0417 124.622 55.4545 124.038 55.7386C123.455 56.0189 122.804 56.1591 122.084 56.1591C121.307 56.1591 120.622 56.0095 120.027 55.7102C119.432 55.4072 118.953 54.9962 118.589 54.4773C118.23 53.9545 118.012 53.3674 117.936 52.7159H120.362C120.457 53.1402 120.656 53.4697 120.959 53.7045C121.262 53.9356 121.637 54.0511 122.084 54.0511C122.841 54.0511 123.417 53.7216 123.811 53.0625C124.205 52.3996 124.404 51.4924 124.408 50.3409H124.328C124.154 50.6818 123.919 50.9754 123.624 51.2216C123.328 51.464 122.989 51.6515 122.607 51.7841C122.228 51.9167 121.824 51.983 121.396 51.983C120.711 51.983 120.099 51.822 119.561 51.5C119.023 51.178 118.599 50.7348 118.288 50.1705C117.978 49.6061 117.822 48.9621 117.822 48.2386C117.819 47.4583 117.999 46.7633 118.362 46.1534C118.726 45.5436 119.233 45.0663 119.885 44.7216C120.54 44.3731 121.302 44.2008 122.169 44.2045ZM122.186 46.1364C121.804 46.1364 121.463 46.2273 121.163 46.4091C120.868 46.5909 120.633 46.8352 120.459 47.142C120.288 47.4489 120.205 47.7917 120.209 48.1705C120.209 48.553 120.292 48.8977 120.459 49.2045C120.629 49.5076 120.86 49.75 121.152 49.9318C121.447 50.1098 121.785 50.1989 122.163 50.1989C122.447 50.1989 122.711 50.1458 122.953 50.0398C123.196 49.9337 123.406 49.7879 123.584 49.6023C123.766 49.4129 123.908 49.1951 124.01 48.9489C124.112 48.7027 124.163 48.4413 124.163 48.1648C124.16 47.7973 124.072 47.4602 123.902 47.1534C123.732 46.8466 123.497 46.6004 123.197 46.4148C122.898 46.2292 122.561 46.1364 122.186 46.1364ZM111.506 80.2557C110.528 80.2519 109.688 80.0114 108.983 79.5341C108.282 79.0568 107.742 78.3655 107.364 77.4602C106.989 76.5549 106.803 75.4659 106.807 74.1932C106.807 72.9242 106.994 71.8428 107.369 70.9489C107.748 70.0549 108.288 69.375 108.989 68.9091C109.693 68.4394 110.532 68.2045 111.506 68.2045C112.479 68.2045 113.316 68.4394 114.017 68.9091C114.722 69.3788 115.263 70.0606 115.642 70.9545C116.021 71.8447 116.208 72.9242 116.205 74.1932C116.205 75.4697 116.015 76.5606 115.636 77.4659C115.261 78.3712 114.723 79.0625 114.023 79.5398C113.322 80.017 112.483 80.2557 111.506 80.2557ZM111.506 78.2159C112.172 78.2159 112.705 77.8807 113.102 77.2102C113.5 76.5398 113.697 75.5341 113.693 74.1932C113.693 73.3106 113.602 72.5758 113.42 71.9886C113.242 71.4015 112.989 70.9602 112.659 70.6648C112.333 70.3693 111.949 70.2216 111.506 70.2216C110.843 70.2216 110.313 70.553 109.915 71.2159C109.517 71.8788 109.316 72.8712 109.312 74.1932C109.312 75.0871 109.402 75.8333 109.58 76.4318C109.761 77.0265 110.017 77.4735 110.347 77.7727C110.676 78.0682 111.062 78.2159 111.506 78.2159ZM122.3 80.1591C121.425 80.1591 120.646 80.017 119.964 79.733C119.286 79.4451 118.754 79.053 118.368 78.5568C117.982 78.0606 117.788 77.4981 117.788 76.8693C117.788 76.3845 117.898 75.9394 118.118 75.5341C118.341 75.125 118.644 74.786 119.027 74.517C119.41 74.2443 119.838 74.0701 120.311 73.9943V73.9148C119.69 73.7898 119.186 73.4886 118.8 73.0114C118.413 72.5303 118.22 71.9716 118.22 71.3352C118.22 70.733 118.396 70.197 118.749 69.7273C119.101 69.2538 119.584 68.8826 120.197 68.6136C120.815 68.3409 121.516 68.2045 122.3 68.2045C123.084 68.2045 123.783 68.3409 124.396 68.6136C125.014 68.8864 125.499 69.2595 125.851 69.733C126.203 70.2027 126.381 70.7367 126.385 71.3352C126.381 71.9754 126.184 72.5341 125.794 73.0114C125.404 73.4886 124.904 73.7898 124.294 73.9148V73.9943C124.76 74.0701 125.182 74.2443 125.561 74.517C125.944 74.786 126.247 75.125 126.47 75.5341C126.697 75.9394 126.813 76.3845 126.817 76.8693C126.813 77.4981 126.618 78.0606 126.232 78.5568C125.845 79.053 125.311 79.4451 124.629 79.733C123.951 80.017 123.175 80.1591 122.3 80.1591ZM122.3 78.3523C122.69 78.3523 123.031 78.2822 123.322 78.142C123.614 77.9981 123.841 77.8011 124.004 77.5511C124.171 77.2973 124.254 77.0057 124.254 76.6761C124.254 76.339 124.169 76.0417 123.999 75.7841C123.828 75.5227 123.597 75.3182 123.305 75.1705C123.014 75.0189 122.679 74.9432 122.3 74.9432C121.925 74.9432 121.589 75.0189 121.294 75.1705C120.999 75.3182 120.766 75.5227 120.595 75.7841C120.429 76.0417 120.345 76.339 120.345 76.6761C120.345 77.0057 120.427 77.2973 120.589 77.5511C120.752 77.8011 120.982 77.9981 121.277 78.142C121.572 78.2822 121.913 78.3523 122.3 78.3523ZM122.3 73.1534C122.625 73.1534 122.915 73.0871 123.169 72.9545C123.423 72.822 123.622 72.6383 123.766 72.4034C123.91 72.1686 123.982 71.8977 123.982 71.5909C123.982 71.2879 123.91 71.0227 123.766 70.7955C123.622 70.5644 123.425 70.3845 123.175 70.2557C122.925 70.1231 122.633 70.0568 122.3 70.0568C121.97 70.0568 121.679 70.1231 121.425 70.2557C121.171 70.3845 120.972 70.5644 120.828 70.7955C120.688 71.0227 120.618 71.2879 120.618 71.5909C120.618 71.8977 120.69 72.1686 120.834 72.4034C120.978 72.6383 121.177 72.822 121.43 72.9545C121.684 73.0871 121.974 73.1534 122.3 73.1534ZM111.506 104.256C110.528 104.252 109.688 104.011 108.983 103.534C108.282 103.057 107.742 102.366 107.364 101.46C106.989 100.555 106.803 99.4659 106.807 98.1932C106.807 96.9242 106.994 95.8428 107.369 94.9489C107.748 94.0549 108.288 93.375 108.989 92.9091C109.693 92.4394 110.532 92.2045 111.506 92.2045C112.479 92.2045 113.316 92.4394 114.017 92.9091C114.722 93.3788 115.263 94.0606 115.642 94.9545C116.021 95.8447 116.208 96.9242 116.205 98.1932C116.205 99.4697 116.015 100.561 115.636 101.466C115.261 102.371 114.723 103.062 114.023 103.54C113.322 104.017 112.483 104.256 111.506 104.256ZM111.506 102.216C112.172 102.216 112.705 101.881 113.102 101.21C113.5 100.54 113.697 99.5341 113.693 98.1932C113.693 97.3106 113.602 96.5758 113.42 95.9886C113.242 95.4015 112.989 94.9602 112.659 94.6648C112.333 94.3693 111.949 94.2216 111.506 94.2216C110.843 94.2216 110.313 94.553 109.915 95.2159C109.517 95.8788 109.316 96.8712 109.312 98.1932C109.312 99.0871 109.402 99.8333 109.58 100.432C109.761 101.027 110.017 101.473 110.347 101.773C110.676 102.068 111.062 102.216 111.506 102.216ZM118.107 104L122.93 94.4545V94.375H117.311V92.3636H125.476V94.4034L120.646 104H118.107ZM111.506 128.256C110.528 128.252 109.688 128.011 108.983 127.534C108.282 127.057 107.742 126.366 107.364 125.46C106.989 124.555 106.803 123.466 106.807 122.193C106.807 120.924 106.994 119.843 107.369 118.949C107.748 118.055 108.288 117.375 108.989 116.909C109.693 116.439 110.532 116.205 111.506 116.205C112.479 116.205 113.316 116.439 114.017 116.909C114.722 117.379 115.263 118.061 115.642 118.955C116.021 119.845 116.208 120.924 116.205 122.193C116.205 123.47 116.015 124.561 115.636 125.466C115.261 126.371 114.723 127.062 114.023 127.54C113.322 128.017 112.483 128.256 111.506 128.256ZM111.506 126.216C112.172 126.216 112.705 125.881 113.102 125.21C113.5 124.54 113.697 123.534 113.693 122.193C113.693 121.311 113.602 120.576 113.42 119.989C113.242 119.402 112.989 118.96 112.659 118.665C112.333 118.369 111.949 118.222 111.506 118.222C110.843 118.222 110.313 118.553 109.915 119.216C109.517 119.879 109.316 120.871 109.312 122.193C109.312 123.087 109.402 123.833 109.58 124.432C109.761 125.027 110.017 125.473 110.347 125.773C110.676 126.068 111.062 126.216 111.506 126.216ZM122.425 128.159C121.826 128.155 121.249 128.055 120.692 127.858C120.139 127.661 119.643 127.341 119.203 126.898C118.764 126.455 118.415 125.867 118.158 125.136C117.904 124.405 117.777 123.508 117.777 122.443C117.781 121.466 117.893 120.593 118.112 119.824C118.336 119.051 118.654 118.396 119.067 117.858C119.483 117.32 119.982 116.911 120.561 116.631C121.141 116.347 121.79 116.205 122.51 116.205C123.286 116.205 123.972 116.356 124.567 116.659C125.161 116.958 125.639 117.366 125.999 117.881C126.362 118.396 126.582 118.973 126.658 119.614H124.232C124.137 119.208 123.938 118.89 123.635 118.659C123.332 118.428 122.957 118.312 122.51 118.312C121.752 118.312 121.177 118.642 120.783 119.301C120.393 119.96 120.194 120.856 120.186 121.989H120.266C120.44 121.644 120.675 121.35 120.97 121.108C121.269 120.862 121.608 120.674 121.987 120.545C122.37 120.413 122.773 120.347 123.197 120.347C123.887 120.347 124.5 120.509 125.038 120.835C125.576 121.157 126 121.6 126.311 122.165C126.622 122.729 126.777 123.375 126.777 124.102C126.777 124.89 126.593 125.591 126.226 126.205C125.862 126.818 125.353 127.299 124.697 127.648C124.046 127.992 123.288 128.163 122.425 128.159ZM122.413 126.227C122.792 126.227 123.131 126.136 123.43 125.955C123.73 125.773 123.964 125.527 124.135 125.216C124.305 124.905 124.391 124.557 124.391 124.17C124.391 123.784 124.305 123.437 124.135 123.131C123.968 122.824 123.737 122.58 123.442 122.398C123.146 122.216 122.809 122.125 122.43 122.125C122.146 122.125 121.883 122.178 121.641 122.284C121.402 122.39 121.192 122.538 121.01 122.727C120.832 122.917 120.692 123.136 120.589 123.386C120.487 123.633 120.436 123.896 120.436 124.176C120.436 124.551 120.521 124.894 120.692 125.205C120.866 125.515 121.101 125.763 121.396 125.949C121.696 126.134 122.035 126.227 122.413 126.227ZM111.506 152.256C110.528 152.252 109.688 152.011 108.983 151.534C108.282 151.057 107.742 150.366 107.364 149.46C106.989 148.555 106.803 147.466 106.807 146.193C106.807 144.924 106.994 143.843 107.369 142.949C107.748 142.055 108.288 141.375 108.989 140.909C109.693 140.439 110.532 140.205 111.506 140.205C112.479 140.205 113.316 140.439 114.017 140.909C114.722 141.379 115.263 142.061 115.642 142.955C116.021 143.845 116.208 144.924 116.205 146.193C116.205 147.47 116.015 148.561 115.636 149.466C115.261 150.371 114.723 151.062 114.023 151.54C113.322 152.017 112.483 152.256 111.506 152.256ZM111.506 150.216C112.172 150.216 112.705 149.881 113.102 149.21C113.5 148.54 113.697 147.534 113.693 146.193C113.693 145.311 113.602 144.576 113.42 143.989C113.242 143.402 112.989 142.96 112.659 142.665C112.333 142.369 111.949 142.222 111.506 142.222C110.843 142.222 110.313 142.553 109.915 143.216C109.517 143.879 109.316 144.871 109.312 146.193C109.312 147.087 109.402 147.833 109.58 148.432C109.761 149.027 110.017 149.473 110.347 149.773C110.676 150.068 111.062 150.216 111.506 150.216ZM122.209 152.159C121.406 152.159 120.69 152.011 120.061 151.716C119.436 151.42 118.94 151.013 118.572 150.494C118.205 149.975 118.014 149.381 117.999 148.71H120.385C120.411 149.161 120.601 149.527 120.953 149.807C121.305 150.087 121.724 150.227 122.209 150.227C122.595 150.227 122.936 150.142 123.232 149.972C123.531 149.797 123.764 149.557 123.93 149.25C124.101 148.939 124.186 148.583 124.186 148.182C124.186 147.773 124.099 147.413 123.925 147.102C123.754 146.792 123.518 146.549 123.214 146.375C122.911 146.201 122.565 146.112 122.175 146.108C121.834 146.108 121.502 146.178 121.18 146.318C120.862 146.458 120.614 146.65 120.436 146.892L118.249 146.5L118.8 140.364H125.913V142.375H120.828L120.527 145.29H120.595C120.8 145.002 121.108 144.763 121.521 144.574C121.934 144.384 122.396 144.29 122.908 144.29C123.608 144.29 124.233 144.455 124.783 144.784C125.332 145.114 125.766 145.566 126.084 146.142C126.402 146.714 126.559 147.373 126.555 148.119C126.559 148.903 126.377 149.6 126.01 150.21C125.646 150.816 125.137 151.294 124.482 151.642C123.83 151.987 123.072 152.159 122.209 152.159ZM111.506 176.256C110.528 176.252 109.688 176.011 108.983 175.534C108.282 175.057 107.742 174.366 107.364 173.46C106.989 172.555 106.803 171.466 106.807 170.193C106.807 168.924 106.994 167.843 107.369 166.949C107.748 166.055 108.288 165.375 108.989 164.909C109.693 164.439 110.532 164.205 111.506 164.205C112.479 164.205 113.316 164.439 114.017 164.909C114.722 165.379 115.263 166.061 115.642 166.955C116.021 167.845 116.208 168.924 116.205 170.193C116.205 171.47 116.015 172.561 115.636 173.466C115.261 174.371 114.723 175.062 114.023 175.54C113.322 176.017 112.483 176.256 111.506 176.256ZM111.506 174.216C112.172 174.216 112.705 173.881 113.102 173.21C113.5 172.54 113.697 171.534 113.693 170.193C113.693 169.311 113.602 168.576 113.42 167.989C113.242 167.402 112.989 166.96 112.659 166.665C112.333 166.369 111.949 166.222 111.506 166.222C110.843 166.222 110.313 166.553 109.915 167.216C109.517 167.879 109.316 168.871 109.312 170.193C109.312 171.087 109.402 171.833 109.58 172.432C109.761 173.027 110.017 173.473 110.347 173.773C110.676 174.068 111.062 174.216 111.506 174.216ZM117.783 173.955V172.017L122.641 164.364H124.311V167.045H123.322L120.26 171.892V171.983H127.163V173.955H117.783ZM123.368 176V173.364L123.413 172.506V164.364H125.72V176H123.368ZM111.506 200.256C110.528 200.252 109.688 200.011 108.983 199.534C108.282 199.057 107.742 198.366 107.364 197.46C106.989 196.555 106.803 195.466 106.807 194.193C106.807 192.924 106.994 191.843 107.369 190.949C107.748 190.055 108.288 189.375 108.989 188.909C109.693 188.439 110.532 188.205 111.506 188.205C112.479 188.205 113.316 188.439 114.017 188.909C114.722 189.379 115.263 190.061 115.642 190.955C116.021 191.845 116.208 192.924 116.205 194.193C116.205 195.47 116.015 196.561 115.636 197.466C115.261 198.371 114.723 199.062 114.023 199.54C113.322 200.017 112.483 200.256 111.506 200.256ZM111.506 198.216C112.172 198.216 112.705 197.881 113.102 197.21C113.5 196.54 113.697 195.534 113.693 194.193C113.693 193.311 113.602 192.576 113.42 191.989C113.242 191.402 112.989 190.96 112.659 190.665C112.333 190.369 111.949 190.222 111.506 190.222C110.843 190.222 110.313 190.553 109.915 191.216C109.517 191.879 109.316 192.871 109.312 194.193C109.312 195.087 109.402 195.833 109.58 196.432C109.761 197.027 110.017 197.473 110.347 197.773C110.676 198.068 111.062 198.216 111.506 198.216ZM122.26 200.159C121.411 200.159 120.656 200.013 119.993 199.722C119.334 199.426 118.813 199.021 118.43 198.506C118.052 197.987 117.857 197.388 117.845 196.71H120.322C120.338 196.994 120.43 197.244 120.601 197.46C120.775 197.672 121.006 197.837 121.294 197.955C121.582 198.072 121.906 198.131 122.266 198.131C122.641 198.131 122.972 198.064 123.26 197.932C123.548 197.799 123.773 197.616 123.936 197.381C124.099 197.146 124.18 196.875 124.18 196.568C124.18 196.258 124.093 195.983 123.919 195.744C123.749 195.502 123.502 195.312 123.18 195.176C122.862 195.04 122.483 194.972 122.044 194.972H120.959V193.165H122.044C122.415 193.165 122.743 193.1 123.027 192.972C123.315 192.843 123.538 192.665 123.697 192.438C123.857 192.206 123.936 191.938 123.936 191.631C123.936 191.339 123.866 191.083 123.726 190.864C123.589 190.64 123.396 190.466 123.146 190.341C122.9 190.216 122.612 190.153 122.283 190.153C121.949 190.153 121.644 190.214 121.368 190.335C121.091 190.453 120.87 190.621 120.703 190.841C120.536 191.061 120.447 191.318 120.436 191.614H118.078C118.089 190.943 118.281 190.352 118.652 189.841C119.023 189.33 119.523 188.93 120.152 188.642C120.785 188.35 121.499 188.205 122.294 188.205C123.097 188.205 123.8 188.35 124.402 188.642C125.004 188.934 125.472 189.328 125.805 189.824C126.143 190.316 126.309 190.869 126.305 191.483C126.309 192.134 126.107 192.678 125.697 193.114C125.292 193.549 124.764 193.826 124.112 193.943V194.034C124.968 194.144 125.62 194.441 126.067 194.926C126.518 195.407 126.741 196.009 126.737 196.733C126.741 197.396 126.55 197.985 126.163 198.5C125.781 199.015 125.252 199.42 124.578 199.716C123.904 200.011 123.131 200.159 122.26 200.159ZM111.506 224.256C110.528 224.252 109.688 224.011 108.983 223.534C108.282 223.057 107.742 222.366 107.364 221.46C106.989 220.555 106.803 219.466 106.807 218.193C106.807 216.924 106.994 215.843 107.369 214.949C107.748 214.055 108.288 213.375 108.989 212.909C109.693 212.439 110.532 212.205 111.506 212.205C112.479 212.205 113.316 212.439 114.017 212.909C114.722 213.379 115.263 214.061 115.642 214.955C116.021 215.845 116.208 216.924 116.205 218.193C116.205 219.47 116.015 220.561 115.636 221.466C115.261 222.371 114.723 223.062 114.023 223.54C113.322 224.017 112.483 224.256 111.506 224.256ZM111.506 222.216C112.172 222.216 112.705 221.881 113.102 221.21C113.5 220.54 113.697 219.534 113.693 218.193C113.693 217.311 113.602 216.576 113.42 215.989C113.242 215.402 112.989 214.96 112.659 214.665C112.333 214.369 111.949 214.222 111.506 214.222C110.843 214.222 110.313 214.553 109.915 215.216C109.517 215.879 109.316 216.871 109.312 218.193C109.312 219.087 109.402 219.833 109.58 220.432C109.761 221.027 110.017 221.473 110.347 221.773C110.676 222.068 111.062 222.216 111.506 222.216ZM117.959 224V222.227L122.101 218.392C122.453 218.051 122.749 217.744 122.987 217.472C123.23 217.199 123.413 216.932 123.538 216.67C123.663 216.405 123.726 216.119 123.726 215.812C123.726 215.472 123.648 215.178 123.493 214.932C123.338 214.682 123.125 214.491 122.857 214.358C122.588 214.222 122.283 214.153 121.942 214.153C121.586 214.153 121.275 214.225 121.01 214.369C120.745 214.513 120.54 214.72 120.396 214.989C120.252 215.258 120.18 215.578 120.18 215.949H117.845C117.845 215.187 118.018 214.527 118.362 213.966C118.707 213.405 119.19 212.972 119.811 212.665C120.432 212.358 121.148 212.205 121.959 212.205C122.792 212.205 123.518 212.352 124.135 212.648C124.756 212.939 125.239 213.345 125.584 213.864C125.929 214.383 126.101 214.977 126.101 215.648C126.101 216.087 126.014 216.521 125.839 216.949C125.669 217.377 125.364 217.852 124.925 218.375C124.485 218.894 123.866 219.517 123.067 220.244L121.368 221.909V221.989H126.254V224H117.959ZM111.506 248.256C110.528 248.252 109.688 248.011 108.983 247.534C108.282 247.057 107.742 246.366 107.364 245.46C106.989 244.555 106.803 243.466 106.807 242.193C106.807 240.924 106.994 239.843 107.369 238.949C107.748 238.055 108.288 237.375 108.989 236.909C109.693 236.439 110.532 236.205 111.506 236.205C112.479 236.205 113.316 236.439 114.017 236.909C114.722 237.379 115.263 238.061 115.642 238.955C116.021 239.845 116.208 240.924 116.205 242.193C116.205 243.47 116.015 244.561 115.636 245.466C115.261 246.371 114.723 247.062 114.023 247.54C113.322 248.017 112.483 248.256 111.506 248.256ZM111.506 246.216C112.172 246.216 112.705 245.881 113.102 245.21C113.5 244.54 113.697 243.534 113.693 242.193C113.693 241.311 113.602 240.576 113.42 239.989C113.242 239.402 112.989 238.96 112.659 238.665C112.333 238.369 111.949 238.222 111.506 238.222C110.843 238.222 110.313 238.553 109.915 239.216C109.517 239.879 109.316 240.871 109.312 242.193C109.312 243.087 109.402 243.833 109.58 244.432C109.761 245.027 110.017 245.473 110.347 245.773C110.676 246.068 111.062 246.216 111.506 246.216ZM123.021 236.364V248H120.561V238.699H120.493L117.828 240.369V238.188L120.709 236.364H123.021ZM111.506 272.256C110.528 272.252 109.688 272.011 108.983 271.534C108.282 271.057 107.742 270.366 107.364 269.46C106.989 268.555 106.803 267.466 106.807 266.193C106.807 264.924 106.994 263.843 107.369 262.949C107.748 262.055 108.288 261.375 108.989 260.909C109.693 260.439 110.532 260.205 111.506 260.205C112.479 260.205 113.316 260.439 114.017 260.909C114.722 261.379 115.263 262.061 115.642 262.955C116.021 263.845 116.208 264.924 116.205 266.193C116.205 267.47 116.015 268.561 115.636 269.466C115.261 270.371 114.723 271.062 114.023 271.54C113.322 272.017 112.483 272.256 111.506 272.256ZM111.506 270.216C112.172 270.216 112.705 269.881 113.102 269.21C113.5 268.54 113.697 267.534 113.693 266.193C113.693 265.311 113.602 264.576 113.42 263.989C113.242 263.402 112.989 262.96 112.659 262.665C112.333 262.369 111.949 262.222 111.506 262.222C110.843 262.222 110.313 262.553 109.915 263.216C109.517 263.879 109.316 264.871 109.312 266.193C109.312 267.087 109.402 267.833 109.58 268.432C109.761 269.027 110.017 269.473 110.347 269.773C110.676 270.068 111.062 270.216 111.506 270.216ZM111.506 296.256C110.528 296.252 109.688 296.011 108.983 295.534C108.282 295.057 107.742 294.366 107.364 293.46C106.989 292.555 106.803 291.466 106.807 290.193C106.807 288.924 106.994 287.843 107.369 286.949C107.748 286.055 108.288 285.375 108.989 284.909C109.693 284.439 110.532 284.205 111.506 284.205C112.479 284.205 113.316 284.439 114.017 284.909C114.722 285.379 115.263 286.061 115.642 286.955C116.021 287.845 116.208 288.924 116.205 290.193C116.205 291.47 116.015 292.561 115.636 293.466C115.261 294.371 114.723 295.062 114.023 295.54C113.322 296.017 112.483 296.256 111.506 296.256ZM111.506 294.216C112.172 294.216 112.705 293.881 113.102 293.21C113.5 292.54 113.697 291.534 113.693 290.193C113.693 289.311 113.602 288.576 113.42 287.989C113.242 287.402 112.989 286.96 112.659 286.665C112.333 286.369 111.949 286.222 111.506 286.222C110.843 286.222 110.313 286.553 109.915 287.216C109.517 287.879 109.316 288.871 109.312 290.193C109.312 291.087 109.402 291.833 109.58 292.432C109.761 293.027 110.017 293.473 110.347 293.773C110.676 294.068 111.062 294.216 111.506 294.216Z" fill="#CACACE"/>
</g>
<g clip-path="url(#clip2_21_547)">
<path d="M17.3942 72V60.3636H21.9851C22.8639 60.3636 23.6139 60.5208 24.2351 60.8352C24.8601 61.1458 25.3355 61.5871 25.6612 62.1591C25.9908 62.7273 26.1555 63.3958 26.1555 64.1648C26.1555 64.9375 25.9889 65.6023 25.6555 66.1591C25.3222 66.7121 24.8393 67.1364 24.2067 67.4318C23.5779 67.7273 22.8165 67.875 21.9226 67.875H18.8487V65.8977H21.5249C21.9946 65.8977 22.3847 65.8333 22.6953 65.7045C23.0059 65.5758 23.237 65.3826 23.3885 65.125C23.5438 64.8674 23.6214 64.5473 23.6214 64.1648C23.6214 63.7784 23.5438 63.4527 23.3885 63.1875C23.237 62.9223 23.004 62.7216 22.6896 62.5852C22.379 62.4451 21.987 62.375 21.5135 62.375H19.8544V72H17.3942ZM23.6783 66.7045L26.5703 72H23.8544L21.0249 66.7045H23.6783ZM31.6854 72.1705C30.7876 72.1705 30.0149 71.9886 29.3672 71.625C28.7232 71.2576 28.227 70.7386 27.8786 70.0682C27.5301 69.3939 27.3558 68.5966 27.3558 67.6761C27.3558 66.7784 27.5301 65.9905 27.8786 65.3125C28.227 64.6345 28.7176 64.1061 29.3501 63.7273C29.9865 63.3485 30.7327 63.1591 31.5888 63.1591C32.1645 63.1591 32.7005 63.2519 33.1967 63.4375C33.6967 63.6193 34.1323 63.8939 34.5036 64.2614C34.8786 64.6288 35.1702 65.0909 35.3786 65.6477C35.5869 66.2008 35.6911 66.8485 35.6911 67.5909V68.2557H28.3217V66.7557H33.4126C33.4126 66.4072 33.3369 66.0985 33.1854 65.8295C33.0339 65.5606 32.8236 65.3504 32.5547 65.1989C32.2895 65.0436 31.9808 64.9659 31.6286 64.9659C31.2611 64.9659 30.9354 65.0511 30.6513 65.2216C30.371 65.3883 30.1513 65.6136 29.9922 65.8977C29.8331 66.178 29.7517 66.4905 29.7479 66.8352V68.2614C29.7479 68.6932 29.8274 69.0663 29.9865 69.3807C30.1494 69.6951 30.3786 69.9375 30.674 70.108C30.9695 70.2784 31.3198 70.3636 31.7251 70.3636C31.9941 70.3636 32.2403 70.3258 32.4638 70.25C32.6873 70.1742 32.8786 70.0606 33.0376 69.9091C33.1967 69.7576 33.3179 69.572 33.4013 69.3523L35.6399 69.5C35.5263 70.0379 35.2933 70.5076 34.9411 70.9091C34.5926 71.3068 34.1418 71.6174 33.5888 71.8409C33.0395 72.0606 32.4051 72.1705 31.6854 72.1705ZM44.532 65.7614L42.3161 65.8977C42.2782 65.7083 42.1967 65.5379 42.0717 65.3864C41.9467 65.2311 41.782 65.108 41.5774 65.017C41.3767 64.9223 41.1361 64.875 40.8558 64.875C40.4808 64.875 40.1645 64.9545 39.907 65.1136C39.6494 65.2689 39.5206 65.4773 39.5206 65.7386C39.5206 65.947 39.6039 66.1231 39.7706 66.267C39.9373 66.411 40.2232 66.5265 40.6286 66.6136L42.2081 66.9318C43.0566 67.1061 43.6892 67.3864 44.1058 67.7727C44.5225 68.1591 44.7308 68.6667 44.7308 69.2955C44.7308 69.8674 44.5623 70.3693 44.2251 70.8011C43.8918 71.233 43.4335 71.5701 42.8501 71.8125C42.2706 72.0511 41.602 72.1705 40.8445 72.1705C39.6892 72.1705 38.7687 71.9299 38.0831 71.4489C37.4013 70.964 37.0017 70.3049 36.8842 69.4716L39.2649 69.3466C39.3369 69.6989 39.5111 69.9678 39.7876 70.1534C40.0642 70.3352 40.4183 70.4261 40.8501 70.4261C41.2744 70.4261 41.6153 70.3447 41.8729 70.1818C42.1342 70.0152 42.2668 69.8011 42.2706 69.5398C42.2668 69.3201 42.174 69.1402 41.9922 69C41.8104 68.8561 41.5301 68.7462 41.1513 68.6705L39.6399 68.3693C38.7876 68.1989 38.1532 67.9034 37.7365 67.483C37.3236 67.0625 37.1172 66.5265 37.1172 65.875C37.1172 65.3144 37.2687 64.8314 37.5717 64.4261C37.8786 64.0208 38.3085 63.7083 38.8615 63.4886C39.4183 63.2689 40.0698 63.1591 40.8161 63.1591C41.9183 63.1591 42.7857 63.392 43.4183 63.858C44.0547 64.3239 44.4259 64.9583 44.532 65.7614ZM50.2322 72.1705C49.3345 72.1705 48.5618 71.9886 47.9141 71.625C47.2701 71.2576 46.7739 70.7386 46.4254 70.0682C46.0769 69.3939 45.9027 68.5966 45.9027 67.6761C45.9027 66.7784 46.0769 65.9905 46.4254 65.3125C46.7739 64.6345 47.2644 64.1061 47.897 63.7273C48.5334 63.3485 49.2796 63.1591 50.1357 63.1591C50.7114 63.1591 51.2474 63.2519 51.7436 63.4375C52.2436 63.6193 52.6792 63.8939 53.0504 64.2614C53.4254 64.6288 53.7171 65.0909 53.9254 65.6477C54.1338 66.2008 54.2379 66.8485 54.2379 67.5909V68.2557H46.8686V66.7557H51.9595C51.9595 66.4072 51.8838 66.0985 51.7322 65.8295C51.5807 65.5606 51.3705 65.3504 51.1016 65.1989C50.8364 65.0436 50.5277 64.9659 50.1754 64.9659C49.808 64.9659 49.4822 65.0511 49.1982 65.2216C48.9179 65.3883 48.6982 65.6136 48.5391 65.8977C48.38 66.178 48.2985 66.4905 48.2947 66.8352V68.2614C48.2947 68.6932 48.3743 69.0663 48.5334 69.3807C48.6963 69.6951 48.9254 69.9375 49.2209 70.108C49.5163 70.2784 49.8667 70.3636 50.272 70.3636C50.541 70.3636 50.7872 70.3258 51.0107 70.25C51.2341 70.1742 51.4254 70.0606 51.5845 69.9091C51.7436 69.7576 51.8648 69.572 51.9482 69.3523L54.1868 69.5C54.0732 70.0379 53.8402 70.5076 53.4879 70.9091C53.1394 71.3068 52.6887 71.6174 52.1357 71.8409C51.5864 72.0606 50.9519 72.1705 50.2322 72.1705ZM58.2379 66.9545V72H55.8175V63.2727H58.1243V64.8125H58.2266C58.4197 64.3049 58.7436 63.9034 59.1982 63.608C59.6527 63.3087 60.2038 63.1591 60.8516 63.1591C61.4576 63.1591 61.986 63.2917 62.4368 63.5568C62.8875 63.822 63.2379 64.2008 63.4879 64.6932C63.7379 65.1818 63.8629 65.7652 63.8629 66.4432V72H61.4425V66.875C61.4463 66.3409 61.3099 65.9242 61.0334 65.625C60.7569 65.322 60.3762 65.1705 59.8913 65.1705C59.5656 65.1705 59.2777 65.2405 59.0277 65.3807C58.7815 65.5208 58.5883 65.7254 58.4482 65.9943C58.3118 66.2595 58.2417 66.5795 58.2379 66.9545ZM68.9865 72.142C68.3236 72.142 67.7232 71.9716 67.1854 71.6307C66.6513 71.286 66.227 70.7803 65.9126 70.1136C65.602 69.4432 65.4467 68.6212 65.4467 67.6477C65.4467 66.6477 65.6077 65.8163 65.9297 65.1534C66.2517 64.4867 66.6797 63.9886 67.2138 63.6591C67.7517 63.3258 68.3407 63.1591 68.9808 63.1591C69.4695 63.1591 69.8767 63.2424 70.2024 63.4091C70.532 63.572 70.7971 63.7765 70.9979 64.0227C71.2024 64.2652 71.3577 64.5038 71.4638 64.7386H71.5376V60.3636H73.9524V72H71.5661V70.6023H71.4638C71.3501 70.8447 71.1892 71.0852 70.9808 71.3239C70.7763 71.5587 70.5092 71.7538 70.1797 71.9091C69.8539 72.0644 69.4562 72.142 68.9865 72.142ZM69.7536 70.2159C70.1437 70.2159 70.4732 70.1098 70.7422 69.8977C71.0149 69.6818 71.2232 69.3807 71.3672 68.9943C71.5149 68.608 71.5888 68.1553 71.5888 67.6364C71.5888 67.1174 71.5168 66.6667 71.3729 66.2841C71.2289 65.9015 71.0206 65.6061 70.7479 65.3977C70.4751 65.1894 70.1437 65.0852 69.7536 65.0852C69.3558 65.0852 69.0206 65.1932 68.7479 65.4091C68.4751 65.625 68.2687 65.9242 68.1286 66.3068C67.9884 66.6894 67.9183 67.1326 67.9183 67.6364C67.9183 68.1439 67.9884 68.5928 68.1286 68.983C68.2725 69.3693 68.4789 69.6723 68.7479 69.892C69.0206 70.108 69.3558 70.2159 69.7536 70.2159ZM83.5888 72.1705C82.6948 72.1705 81.9259 71.9811 81.282 71.6023C80.6418 71.2197 80.1494 70.6894 79.8047 70.0114C79.4638 69.3333 79.2933 68.553 79.2933 67.6705C79.2933 66.7765 79.4657 65.9924 79.8104 65.3182C80.1589 64.6402 80.6532 64.1117 81.2933 63.733C81.9335 63.3504 82.6948 63.1591 83.5774 63.1591C84.3388 63.1591 85.0054 63.2973 85.5774 63.5739C86.1494 63.8504 86.602 64.2386 86.9354 64.7386C87.2687 65.2386 87.4524 65.8258 87.4865 66.5H85.2024C85.138 66.0644 84.9676 65.714 84.6911 65.4489C84.4183 65.1799 84.0604 65.0455 83.6172 65.0455C83.2422 65.0455 82.9145 65.1477 82.6342 65.3523C82.3577 65.553 82.1418 65.8466 81.9865 66.233C81.8312 66.6193 81.7536 67.0871 81.7536 67.6364C81.7536 68.1932 81.8293 68.6667 81.9808 69.0568C82.1361 69.447 82.3539 69.7443 82.6342 69.9489C82.9145 70.1534 83.2422 70.2557 83.6172 70.2557C83.8937 70.2557 84.1418 70.1989 84.3615 70.0852C84.585 69.9716 84.7687 69.8068 84.9126 69.5909C85.0604 69.3712 85.157 69.108 85.2024 68.8011H87.4865C87.4486 69.4678 87.2668 70.0549 86.9411 70.5625C86.6191 71.0663 86.174 71.4602 85.6058 71.7443C85.0376 72.0284 84.3653 72.1705 83.5888 72.1705ZM92.9794 72.1705C92.0968 72.1705 91.3336 71.983 90.6896 71.608C90.0495 71.2292 89.5552 70.7027 89.2067 70.0284C88.8582 69.3504 88.6839 68.5644 88.6839 67.6705C88.6839 66.7689 88.8582 65.9811 89.2067 65.3068C89.5552 64.6288 90.0495 64.1023 90.6896 63.7273C91.3336 63.3485 92.0968 63.1591 92.9794 63.1591C93.862 63.1591 94.6233 63.3485 95.2635 63.7273C95.9074 64.1023 96.4036 64.6288 96.7521 65.3068C97.1006 65.9811 97.2749 66.7689 97.2749 67.6705C97.2749 68.5644 97.1006 69.3504 96.7521 70.0284C96.4036 70.7027 95.9074 71.2292 95.2635 71.608C94.6233 71.983 93.862 72.1705 92.9794 72.1705ZM92.9908 70.2955C93.3923 70.2955 93.7275 70.1818 93.9964 69.9545C94.2654 69.7235 94.468 69.4091 94.6044 69.0114C94.7446 68.6136 94.8146 68.161 94.8146 67.6534C94.8146 67.1458 94.7446 66.6932 94.6044 66.2955C94.468 65.8977 94.2654 65.5833 93.9964 65.3523C93.7275 65.1212 93.3923 65.0057 92.9908 65.0057C92.5855 65.0057 92.2446 65.1212 91.968 65.3523C91.6953 65.5833 91.4889 65.8977 91.3487 66.2955C91.2124 66.6932 91.1442 67.1458 91.1442 67.6534C91.1442 68.161 91.2124 68.6136 91.3487 69.0114C91.4889 69.4091 91.6953 69.7235 91.968 69.9545C92.2446 70.1818 92.5855 70.2955 92.9908 70.2955ZM102.065 72.142C101.402 72.142 100.801 71.9716 100.263 71.6307C99.7294 71.286 99.3052 70.7803 98.9908 70.1136C98.6802 69.4432 98.5249 68.6212 98.5249 67.6477C98.5249 66.6477 98.6858 65.8163 99.0078 65.1534C99.3298 64.4867 99.7578 63.9886 100.292 63.6591C100.83 63.3258 101.419 63.1591 102.059 63.1591C102.548 63.1591 102.955 63.2424 103.281 63.4091C103.61 63.572 103.875 63.7765 104.076 64.0227C104.281 64.2652 104.436 64.5038 104.542 64.7386H104.616V60.3636H107.031V72H104.644V70.6023H104.542C104.428 70.8447 104.267 71.0852 104.059 71.3239C103.854 71.5587 103.587 71.7538 103.258 71.9091C102.932 72.0644 102.534 72.142 102.065 72.142ZM102.832 70.2159C103.222 70.2159 103.551 70.1098 103.82 69.8977C104.093 69.6818 104.301 69.3807 104.445 68.9943C104.593 68.608 104.667 68.1553 104.667 67.6364C104.667 67.1174 104.595 66.6667 104.451 66.2841C104.307 65.9015 104.099 65.6061 103.826 65.3977C103.553 65.1894 103.222 65.0852 102.832 65.0852C102.434 65.0852 102.099 65.1932 101.826 65.4091C101.553 65.625 101.347 65.9242 101.207 66.3068C101.067 66.6894 100.996 67.1326 100.996 67.6364C100.996 68.1439 101.067 68.5928 101.207 68.983C101.351 69.3693 101.557 69.6723 101.826 69.892C102.099 70.108 102.434 70.2159 102.832 70.2159ZM112.998 72.1705C112.1 72.1705 111.327 71.9886 110.68 71.625C110.036 71.2576 109.54 70.7386 109.191 70.0682C108.843 69.3939 108.668 68.5966 108.668 67.6761C108.668 66.7784 108.843 65.9905 109.191 65.3125C109.54 64.6345 110.03 64.1061 110.663 63.7273C111.299 63.3485 112.045 63.1591 112.901 63.1591C113.477 63.1591 114.013 63.2519 114.509 63.4375C115.009 63.6193 115.445 63.8939 115.816 64.2614C116.191 64.6288 116.483 65.0909 116.691 65.6477C116.899 66.2008 117.004 66.8485 117.004 67.5909V68.2557H109.634V66.7557H114.725C114.725 66.4072 114.649 66.0985 114.498 65.8295C114.346 65.5606 114.136 65.3504 113.867 65.1989C113.602 65.0436 113.293 64.9659 112.941 64.9659C112.574 64.9659 112.248 65.0511 111.964 65.2216C111.683 65.3883 111.464 65.6136 111.305 65.8977C111.146 66.178 111.064 66.4905 111.06 66.8352V68.2614C111.06 68.6932 111.14 69.0663 111.299 69.3807C111.462 69.6951 111.691 69.9375 111.987 70.108C112.282 70.2784 112.632 70.3636 113.038 70.3636C113.307 70.3636 113.553 70.3258 113.776 70.25C114 70.1742 114.191 70.0606 114.35 69.9091C114.509 69.7576 114.63 69.572 114.714 69.3523L116.952 69.5C116.839 70.0379 116.606 70.5076 116.254 70.9091C115.905 71.3068 115.454 71.6174 114.901 71.8409C114.352 72.0606 113.718 72.1705 112.998 72.1705Z" fill="#0858F7"/>
</g>
<rect x="0.5" y="0.5" width="139" height="95" rx="4.5" stroke="#9747FF" stroke-dasharray="10 5"/>
<defs>
<clipPath id="clip0_21_547">
<rect width="90" height="24" fill="white" transform="translate(16 16)"/>
</clipPath>
<clipPath id="clip1_21_547">
<rect width="22" height="16" fill="white" transform="translate(106 20)"/>
</clipPath>
<clipPath id="clip2_21_547">
<rect width="102" height="24" fill="white" transform="translate(16 56)"/>
</clipPath>
</defs>
</svg>
