<svg width="16" height="12" viewBox="0 0 16 12" fill="none" xmlns="http://www.w3.org/2000/svg">
<path fill-rule="evenodd" clip-rule="evenodd" d="M2 6C2 5.88067 2.07077 5.5629 2.34757 5.0955C2.60975 4.65279 3.01083 4.1552 3.54194 3.68913C4.60204 2.75887 6.12501 2 8 2C9.87499 2 11.398 2.75887 12.4581 3.68913C12.9892 4.1552 13.3903 4.65279 13.6524 5.0955C13.9292 5.5629 14 5.88067 14 6C14 6.11933 13.9292 6.4371 13.6524 6.9045C13.3903 7.34721 12.9892 7.8448 12.4581 8.31087C11.398 9.24113 9.87499 10 8 10C6.12501 10 4.60204 9.24113 3.54194 8.31087C3.01083 7.8448 2.60975 7.34721 2.34757 6.9045C2.07077 6.4371 2 6.11933 2 6ZM8 0C5.56128 0 3.58425 0.991132 2.22278 2.18587C1.5431 2.7823 1.003 3.44096 0.626701 4.07638C0.265021 4.6871 0 5.36933 0 6C0 6.63067 0.265021 7.3129 0.626701 7.92362C1.003 8.55904 1.5431 9.2177 2.22278 9.81413C3.58425 11.0089 5.56128 12 8 12C10.4387 12 12.4157 11.0089 13.7772 9.81413C14.4569 9.2177 14.997 8.55904 15.3733 7.92362C15.735 7.3129 16 6.63067 16 6C16 5.36933 15.735 4.6871 15.3733 4.07638C14.997 3.44096 14.4569 2.7823 13.7772 2.18587C12.4157 0.991132 10.4387 0 8 0ZM7 6C7 5.44772 7.44772 5 8 5C8.55228 5 9 5.44772 9 6C9 6.55228 8.55228 7 8 7C7.44772 7 7 6.55228 7 6ZM8 3C6.34315 3 5 4.34315 5 6C5 7.65685 6.34315 9 8 9C9.65685 9 11 7.65685 11 6C11 4.34315 9.65685 3 8 3Z" fill="#18181B"/>
</svg>
